<?xml version="1.0" encoding="utf-8"?>
<!-- Generator: Adobe Illustrator 21.0.0, SVG Export Plug-In . SVG Version: 6.00 Build 0)  -->
<svg version="1.1" id="Calque_1" xmlns="http://www.w3.org/2000/svg" xmlns:xlink="http://www.w3.org/1999/xlink" x="0px" y="0px"
	 viewBox="0 0 429 105" style="enable-background:new 0 0 429 105;" xml:space="preserve">
<style type="text/css">
	.st0{fill:#FFFFFF;stroke:#020202;stroke-width:4;stroke-miterlimit:10;}
	.st1{fill:#FFFFFF;}
</style>
<path class="st0" d="M401,99H27C14.4,99,4,88.7,4,76V28C4,15.4,14.4,5,27,5h374c12.6,0,23,10.4,23,23v48C424,88.7,413.6,99,401,99z"
	/>
<g>
	<path d="M114.1,57.6c4.3,0.5,5.5-0.5,6.4-4.1c1.4-5.7,3.9-10.8,8.7-14.5c2.8-2.1,5.9-3.2,9.4-1.9c0.9,0.4,2.1,1.4,2.3,2.2
		c0.2,1-0.4,2.9-1.2,3.2c-1.7,0.6-1.9-0.9-1.9-2.3c0-0.3-0.2-0.5-0.5-1.2c-0.9,0.6-2,0.9-2.5,1.6c-4,5.1-7.3,10.5-7.7,17.3
		c0,0.9,0,1.7,0.2,2.6c0.5,2.2,2.5,2.9,4.1,1.3c1-1,2-2.1,2.6-3.4c3.1-6.7,6-13.6,9.2-20.3c0.3-0.7,1.8-1.6,2.3-1.4
		c1.4,0.5,3.4,1.4,3.6,2.5c0.4,2,0.2,4.5-0.6,6.4c-1.7,4.1-3.9,7.9-5.8,11.8c-0.7,1.4-1.1,2.9-1.7,4.4c0.3,0.3,0.5,0.5,0.8,0.8
		c0.9-0.5,2.1-0.9,2.7-1.7c2.6-4,5.2-8,7.5-12.1c1.6-2.9,2.7-6.1,3.9-9.3c0.9-2.5,3.8-3.3,5.6-1.3c0.6,0.6,0.9,1.4,1.2,1.8
		c3-1,5.9-2.9,8.5-2.6c3.8,0.4,3,4.5,3.6,7.8c0.9-1,1.4-1.7,2-2.3c1.4-1.5,2.6-3.2,4.2-4.2c1.4-0.9,3.7-1.7,4.9-1
		c1.3,0.7,2.4,2.9,2.6,4.6c0.5,5.3-2.2,9.8-4.2,14.4c-0.9,2-1.5,4.1-2.3,6.1c0.4,0.3,0.8,0.5,1.2,0.8c1-0.8,2.3-1.4,3-2.5
		c2.7-3.8,5.2-7.8,7.8-11.7c0.4-0.6,0.9-1.3,1.3-1.9c0.2,0.1,0.5,0.2,0.7,0.2c0,0.6,0.2,1.3,0,1.7c-2.9,4.5-5.8,9-8.9,13.4
		c-0.7,1-2,1.7-3.2,2.3c-2.9,1.5-5.3,0.4-6.2-2.8c-1.1-4.2,0.4-7.9,1.9-11.7c1.1-2.6,2.5-5.2,3.6-7.8c0.3-0.9-0.1-2.1-0.2-3.2
		c-0.9,0.4-2.1,0.5-2.7,1.2c-5.6,6.8-10.7,14-12.8,22.8c-0.2,0.8-1.2,2-1.6,1.9c-1.5-0.4-3.4-0.8-4.1-1.9c-0.8-1.3-0.9-3.5-0.3-4.9
		c2-5,4.4-9.8,6.5-14.6c0.6-1.3,0.8-2.7,1.2-4.1c-0.3-0.2-0.5-0.3-0.8-0.5c-0.8,0.5-1.8,0.9-2.5,1.5c-6.2,6.4-9.9,14.2-12.5,22.6
		c-0.2,0.8-1,2-1.5,2c-1,0-2.2-0.5-2.9-1.2c-0.8-0.7-1.1-2-1.5-2.9c-2.2,1.4-4.3,3.2-6.7,4.1c-2.2,0.9-3.8-0.9-4.7-4.3
		c-2.9,1.5-5.8,3.9-9,4.3c-3.7,0.5-6.2-2.4-7.2-6.3c-2,0.4-3.9,0.6-5.6,1.3c-0.9,0.4-1.7,1.5-2,2.5C106.8,78.3,96,87.3,80.7,91.4
		c-4.4,1.2-8.9,1.6-13.3,0.3c-5.6-1.7-7.5-7.2-4.1-12.1c3-4.4,7.3-7.1,12-9c8.5-3.2,17.1-6,25.7-9.1c0.9-0.3,2-1.4,2.2-2.4
		c2-7.3,3-14.6,1.1-22.1c-1.5-5.7-4.5-10.3-10.3-12.2C88.4,23,82.9,24.1,78.3,28c-6.7,6-10.5,13.6-11.7,22.4c-0.3,1.9,0.3,4,1,5.8
		s0.1,2.5-1.4,3c-3.1,1-6.1-1.1-6.9-4.8c-1-4.8,0.3-9.3,2.4-13.6c6.6-13.4,22.7-21.6,37.4-18.9c8.8,1.6,14.6,7.3,15.4,16.2
		c0.5,5.8-0.1,11.6-0.2,17.4C114.3,56.2,114.2,56.8,114.1,57.6z M101.5,64.8c-1.4,0.1-2.3,0-3,0.3c-7.6,2.6-15.2,5.1-22.6,8.1
		c-3.5,1.5-6.8,3.9-9.6,6.5c-3.3,3-3.1,7.6,0.3,9.3c2,1,4.9,1.3,7.1,0.7c7-1.8,13.2-5.5,18.5-10.5C96.3,75.4,99.7,71,101.5,64.8z"/>
	<path d="M306.3,62.8c1-0.9,2.2-1.8,3.1-2.8c4.5-5.2,7.5-11.3,10-17.6c2.9-7.3,5.7-14.6,8.7-21.8c0.4-0.8,2.1-1.6,3.1-1.6
		c2,0.1,3.6,1.6,3.2,3.7c-0.6,3.3-1.6,6.7-2.8,9.9c-1.5,4-3.4,7.8-5.1,11.7c0.2,0.2,0.5,0.4,0.7,0.6c1.6-1.2,3.2-2.4,4.7-3.8
		c2.2-2,4.4-4,6.5-6.1c0.8-0.8,1.4-2.7,2.8-1.3c1.1,1.1,2.1,3,1.9,4.2c-0.3,1.5-1.7,3-3.1,3.9c-2.6,1.7-5.5,3.1-8.3,4.5
		c-1.3,0.6-2.3,1.2-1.3,2.8c3.9,6.5,7.6,13,11.9,19.3c1.8,2.6,4.8,4.4,7.5,6.9c-0.9,3.7-6.4,5.1-10,1.5c-2.2-2.2-4-4.9-5.2-7.8
		c-2.4-5.5-4.3-11.2-6.6-16.8c-0.4-1.1-1.6-1.9-2.5-2.8c-0.9,0.9-2.2,1.6-2.7,2.7c-1.7,4-3.1,8.2-4.6,12.3c-0.2,0.6-0.8,1.7-1.2,1.7
		c-1.1,0-2.6-0.1-3.1-0.7c-0.9-1.2-1.3-2.8-2-4.6c-1.1,1-2.2,2.4-3.6,3.2c-1.6,0.9-3.6,1.8-5.2,1.5c-2.3-0.4-3.4-3-2.9-5
		c1.3-5.2,3.1-10.4,4.7-15.5c0.4-1.2,0.9-2.3,1.3-3.4c-3.9-1.5-5-1-6.7,2.3c-2.9,5.6-5.8,11.1-9.1,16.5c-1.1,1.8-2.9,3.4-4.7,4.6
		c-3.2,2.2-5.7,1.1-6.7-2.6c-0.1-0.4-0.2-0.9-0.3-1.3c-0.3-0.3-0.7-0.6-1-0.9c-0.6,1-0.9,2.1-1.7,2.9c-2.2,2.2-4.6,3.7-8,2.6
		c-3.5-1.1-5.3-3.6-5.2-7.1c0.1-8.5,3.4-15.5,10.4-20.3c2.3-1.6,5.2-2.3,7.9-1c1,0.5,2.1,1.5,2.4,2.5c0.2,0.9-0.5,2.7-1.2,3
		c-1.7,0.6-1.9-0.9-1.9-2.2c0-0.3-0.2-0.5-0.5-1.2c-0.9,0.5-2,0.9-2.5,1.6c-4.1,5.1-7.3,10.5-7.7,17.3c0,0.5-0.1,1,0.1,1.4
		c0.5,1.1,1,2.6,1.9,3.1c0.7,0.3,2.4-0.6,3-1.4c1.6-2.1,3.2-4.3,4.3-6.8c2.4-5.4,4.4-10.9,6.8-16.3c0.3-0.7,1.9-1.4,2.5-1.2
		c1.3,0.6,3.2,1.6,3.5,2.7c0.4,1.9,0.1,4.3-0.7,6.1c-1.7,4-3.9,7.9-5.8,11.8c-0.7,1.5-1.1,3.1-1.7,4.6c0.3,0.2,0.6,0.4,0.8,0.6
		c0.9-0.5,1.9-0.9,2.6-1.7c3.5-4.1,7.1-8.3,8.4-13.8c0.2-0.9,0.7-1.8,1.1-2.6c1.2-2.6,2.7-4.9-0.3-7.6c-0.9-0.8-0.8-3.3-0.3-4.7
		c0.3-1,2.4-2.1,3.3-1.9c1.1,0.3,2.2,1.9,2.7,3.1c0.6,1.4,0.6,3,0.9,4.5c1.5-0.4,3.1-1,4.7-1c1.6-0.1,4-0.2,4.6,0.7
		c1,1.4,1.5,3.9,0.9,5.5c-1.1,3.5-2.9,6.8-4.5,10.2c-0.8,1.7-1.8,3.4-2.6,5.1c-0.4,1.1-0.5,2.3-0.8,3.5
		C305.7,62.4,306,62.6,306.3,62.8z"/>
	<path d="M233,62.8c4.9-0.8,9.1-2.7,12.7-6.1c7.1-6.6,8.7-19.1,3.3-26c-5.9-7.5-15.4-8.2-23.1-1.7c-4.6,3.8-7.6,8.7-8.4,14.6
		c-0.4,2.6,0.3,5.5,0.7,8.1c0.2,1.3,1.9,2.5-0.1,3.7c-1.8,1-3.6,1.2-5.2-0.5c-2.7-2.9-3.3-6.4-2.7-10.2c2.4-13.8,21.1-27.8,38-20.7
		c15.2,6.4,18.5,22.6,4.7,34.9c-4.8,4.2-10.5,6.7-17.1,5.8c-1-0.1-2-0.6-2.9-0.9C232.9,63.5,233,63.1,233,62.8z"/>
	<path d="M238.5,36.5c-1.9,5.8-3.8,11.5-5.8,17.3c-2.9,8.3-5.7,16.6-8.7,24.8c-0.3,0.8-1.4,1.9-2.1,1.9c-1.2,0-3-0.5-3.4-1.4
		c-0.8-1.5-1.3-3.6-0.9-5.1c3.3-10.6,6.9-21,10.4-31.5c0.8-2.4,1.5-4.7,2.1-7.1c0.8-3.3,1.6-4.1,4.5-3.8
		C237,31.9,238,33.3,238.5,36.5z"/>
	<path d="M90.6,36.4c-2.1,4.7-4.3,9.3-6.4,14c-1.8,4-3.7,7.9-5.4,12c-0.7,1.7-0.9,3.7-3.4,3.4c-2-0.2-3.8-2.8-3.2-5.1
		c0.7-2.9,1.6-5.7,2.8-8.4c2-4.8,4.4-9.6,6.5-14.4c0.4-1,0.9-2,1-3c0.2-2.8,1.8-3.7,4.3-3.4c2.5,0.3,3.1,2.2,3.1,4.4
		C90.1,36.2,90.3,36.3,90.6,36.4z"/>
	<path class="st1" d="M101.5,64.8c-1.8,6.2-5.2,10.6-9.3,14.5c-5.3,5-11.5,8.7-18.5,10.5c-2.2,0.6-5.1,0.4-7.1-0.7
		c-3.4-1.8-3.6-6.3-0.3-9.3c2.8-2.6,6.1-5.1,9.6-6.5c7.4-3.1,15-5.5,22.6-8.1C99.2,64.8,100.1,64.9,101.5,64.8z"/>
</g>
<g>
	<g>
		<path d="M136.2,89.5c52-14.3,106.2-19.7,160-15.9c1.9,0.1,1.9-2.9,0-3c-54.1-3.8-108.5,1.6-160.8,16
			C133.5,87.1,134.3,90,136.2,89.5L136.2,89.5z"/>
	</g>
</g>
</svg>
