<?xml version="1.0" encoding="utf-8"?>
<!-- Generator: Adobe Illustrator 21.0.0, SVG Export Plug-In . SVG Version: 6.00 Build 0)  -->
<svg version="1.1" id="Calque_1" xmlns="http://www.w3.org/2000/svg" xmlns:xlink="http://www.w3.org/1999/xlink" x="0px" y="0px"
	 viewBox="0 0 768 670" style="enable-background:new 0 0 768 670;" xml:space="preserve">
<style type="text/css">
	.st0{fill:#FFFFFF;}
</style>
<g>
	<g>
		<path class="st0" d="M1,671C1,447.7,1,224.3,1,1c256,0,512,0,768,0c0,223.3,0,446.7,0,670C513,671,257,671,1,671z M695.6,292.5
			c0-25.7,0-51.3,0-77c0-3.5-0.4-6.3-4-8.4c-74.7-43-149.3-86-223.8-129.2c-3.9-2.2-6.5-1.8-9.7,0.9c-11.3,9.6-22.8,19-34.2,28.4
			c-55.4,45.9-110.9,91.8-166.2,137.8c-2.2,1.8-4,4.4-5.4,6.9c-4.1,7-8.1,14.1-12,21.3c-4.7,8.5-12,13-21.3,14.7
			c-2,0.3-4,0.5-5.9,1.1c-5.1,1.7-11.1,2.4-15,5.6c-39.1,31.9-77.5,64.7-116.9,96.2c-10.6,8.5-16.6,17-13.9,30.5
			c0.6,2.8,2,6.1,4.1,7.7c3.9,3,5.3,6.5,4,10.8c-1.7,5.3-3.7,10.6-6.2,15.6c-4.3,8.4-3,14,5,18.6c73.3,42.3,146.6,84.6,219.8,127
			c3.9,2.3,7.2,2.3,11.1,0C433.2,527.1,561.6,453,689.9,379c4.2-2.4,5.7-5.3,5.7-10C695.5,343.5,695.6,318,695.6,292.5z"/>
		<path d="M695.6,292.5c0,25.5-0.1,51,0.1,76.5c0,4.7-1.5,7.5-5.7,10c-128.4,74-256.7,148.1-385,222.2c-3.9,2.3-7.1,2.3-11.1,0
			c-73.2-42.4-146.5-84.7-219.8-127c-8-4.6-9.3-10.2-5-18.6c2.5-5,4.5-10.3,6.2-15.6c1.4-4.3-0.1-7.8-4-10.8c-2.1-1.6-3.6-5-4.1-7.7
			c-2.8-13.4,3.3-22,13.9-30.5c39.4-31.5,77.8-64.3,116.9-96.2c3.9-3.2,9.9-3.9,15-5.6c1.9-0.6,3.9-0.8,5.9-1.1
			c9.3-1.6,16.7-6.1,21.3-14.7c3.9-7.1,7.9-14.3,12-21.3c1.5-2.5,3.2-5.1,5.4-6.9c55.4-46,110.8-91.9,166.2-137.8
			c11.4-9.5,22.9-18.8,34.2-28.4c3.2-2.7,5.8-3.2,9.7-0.9c74.5,43.2,149.2,86.2,223.8,129.2c3.6,2,4,4.9,4,8.4
			C695.5,241.2,695.6,266.9,695.6,292.5z M261.4,508.8c11.6,6.8,22.7,13.1,33.7,19.7c2.9,1.8,4.8,1.6,7.4-0.6
			c34.3-28.6,68.7-57,103-85.7c1.7-1.4,3.1-3.9,3.5-6.1c2.2-11.1,8.2-18.8,19.2-22c3.8-1.1,7.8-1.9,11.5-3.2c3-1.1,6.3-2.3,8.7-4.3
			c16.7-13.6,33.1-27.4,49.8-41c2.9-2.4,3.9-4.6,3.7-8.4c-0.8-13.2,5.8-21.5,18.9-24c4.9-0.9,9.9-1,14.8-1.9
			c2.5-0.4,5.3-1.2,7.2-2.7c36.9-30.4,73.7-60.9,110.5-91.5c9.6-7.9,19.1-15.9,29.2-24.2c-22.8-13.2-44.9-26-67.9-39.3
			c6.8,15.8,4.4,27.1-7.4,38c-15.7,14.6-42.6,19.1-62.1,10.4c-19.1-8.5-23.5-29.3-9.6-44.9c8.7-9.8,19.9-15,32.5-17.2
			c6.3-1.1,12.9-1,19.6-1.5c-0.5-0.5-0.8-0.7-1.1-0.9c-39.9-23.1-79.9-46.1-119.7-69.2c-2.7-1.6-4.1-0.6-6,0.9
			c-17.5,14.6-35.1,29.1-52.7,43.7c-47.3,39.2-94.7,78.4-141.9,117.7c-1.9,1.6-3.4,4.4-4,6.9c-2.4,11.5-5.3,23.2-16.1,29.2
			c-8.9,4.9-19,7.6-28.6,11.1c-4.8,1.8-10.5,2.2-14.2,5.2c-40,32.6-79.7,65.6-119.6,98.5c-1,0.8-2.3,1.2-4.2,2.1
			c48.9,28.3,96,55.5,143,82.7c8-10.6,18.4-14.8,30.8-14.3c13.2,0.6,22.3,9.5,21,20.4C273,499.9,267.9,504.4,261.4,508.8z
			 M498.9,377.4c-6.9,5.7-13.2,10.7-19.3,16c-14.1,12.2-30.2,22.2-38.6,40.2c-4.2,8.9-12.9,13.1-23,13.4c-1.2,0-2.6-0.1-3.4,0.5
			c-6.4,5.1-12.8,10.4-20.3,16.5c2.8-0.2,3.9-0.1,5-0.3c13-2.5,22.5,4.1,24.8,17.2c2.1,11.9-1.3,22.8-6.7,33
			c-3.3,6.3-7.8,11.9-12.2,18.7c58.7-33.9,116.7-67.4,175.2-101.2c-17.7-6.1-25-16.9-22-33.6c1.5-8.6,4.1-17.2,7.8-25.1
			c6.7-14.5,16.9-26.4,31.9-33c17.4-7.7,32.9,2.1,34.1,21.1c1,16.9-4.9,31.6-14.2,45.3c-0.7,1.1-1.4,2.2-2.8,4.5
			c2.3-0.9,3.2-1.1,4-1.6c21.5-12.3,43-24.6,64.3-37.1c1.5-0.9,2.5-3.7,2.5-5.6c0.1-46.3,0.1-92.6,0.1-139c0-1.4-0.2-2.7-0.4-4.9
			c-10,8.4-19.4,16.2-29.3,24.4c15,0.8,20.9,6.3,21.9,19.8c1.3,17.9-13.1,41.2-29.5,47.9c-10.8,4.4-21.5,0-24.4-10.7
			c-1.3-4.7-1.5-10-0.7-14.7c1.2-6.6,3.8-12.9,6.2-20.4c-27,22.3-53.2,44.1-79.8,66.1c5.4,6.2,7.6,13.1,6.7,20.7
			c-2.2,18.7-10.7,33.9-26.9,43.9c-15.5,9.5-30.3,1-30.9-17.1C499,380.9,499,379.7,498.9,377.4z M294.9,590.9
			c0-17.4,0.1-33.4-0.1-49.4c0-1.4-1.5-3.2-2.8-4c-12.7-7.5-25.5-14.9-38.5-22.1c-1.3-0.7-3.8-0.6-5.1,0.2
			c-6.6,3.9-12.4,3.6-17.3-2.4c-3.3-4.1-5.5-9-8.4-13.5c-1.1-1.7-2.5-3.6-4.2-4.6c-46-26.7-92.1-53.2-138.1-79.8
			c-1.1-0.6-2.3-1-3.6-1.6c-1.3,4.8-0.1,7.8,3.4,11.2c5.8,5.6,11.6,11.6,15.6,18.6c7.9,13.7,4.3,21.6-11.5,26
			c32.8,18.9,65,37.5,97.1,56c0.2-2.1-0.4-3.2-0.9-4.4c-2.1-5-4.6-9.9-6.1-15.1c-2.2-7.9,0.6-15.8,5.9-19.3
			c5.2-3.4,12.6-2.6,19.4,2.6c8.4,6.4,13.3,15,15.4,25.4c2.4,11.9-1.9,19.1-14.3,22.2c20.9,12,41.2,23.7,61.4,35.3
			c-0.8-6-2.3-11.5-2.1-16.9c0.3-7.9,7.7-12.1,15.1-9.2c7.5,3,11.8,9,14.7,16.1c4.1,10,2.4,15.7-6.2,22.4
			C287.2,586.5,290.6,588.5,294.9,590.9z M373.5,482.4c-1.4,0.5-1.7,0.5-2,0.7c-21.7,17.9-43.4,35.8-64.9,53.9
			c-1.4,1.1-2.2,3.7-2.2,5.6c-0.2,14.5-0.1,29-0.1,43.5c0,1.2,0.3,2.4,0.5,4.2c26.5-15.3,52.5-30.3,79.1-45.7
			c-18.7-2.5-26.3-12.6-23.6-30.7C361.9,502.7,366.1,492.5,373.5,482.4z M583.7,210.5c9.4,2.1,14-3,18.5-7.5
			c11.2-11.2,8.6-24.7-5.8-31.3c-15.8-7.3-40.6-2.4-52.7,10.5c-7.5,7.9-9.1,17.1-4.2,23.9c6.3,8.7,20.4,12.6,29.2,8.8
			C573.9,212.6,579.7,211.6,583.7,210.5z M596.3,351.5c6.9,18-10.9,45.8-25.7,48.8c-1.2,0.2-2.8,2.7-2.8,4c0.2,14.9,10,21,23,13.7
			c20.2-11.5,30.2-29.8,32-52.6c0.5-6.6-0.7-13.7-7.6-17.3C608.4,344.5,602.5,348,596.3,351.5z M415.2,490.1
			c-0.3-16.8-8.4-21.3-20.4-14.3c-0.9,0.5-1.9,0.9-2.5,1.6c-0.9,1.2-2,2.7-2.1,4.1c-0.4,13.6-6.6,23.7-17.9,30.9
			c-0.8,0.5-1.8,1.1-2.1,1.9c-1.9,4.1,0.3,14.6,3.6,17.4c4.9,4.2,10.2,2.7,14.9-0.1C405.4,521.7,413.3,506.3,415.2,490.1z
			 M521.9,342.6c1.6,10-0.5,18.2-7.2,23.9c-6.6,5.6-6.3,12.4-5.4,19.5c0.8,6.1,5.8,9.4,11.2,6.8c5.7-2.7,11.3-6.5,15.4-11.2
			c8.1-9.2,12.9-20.2,11.1-33c-0.5-3.6-2-7.4-6.1-7.5C534.7,341,528.4,342,521.9,342.6z M632.7,294.2c0,12,6.3,15.6,16.1,9.6
			c9.3-5.7,15.2-14.4,18.2-24.7c1.3-4.7,1.9-9.8,1.5-14.7c-0.6-6.7-5.2-9.2-11.4-6.7c-6.8,2.7-12.6,6.6-14.9,14.2
			c-0.7,2.5-2.1,5.1-3.9,6.8C633.5,283.3,633.1,289,632.7,294.2z M250.7,481.9c-7.1,0-14.2,2.6-17.9,7.1c-1.1,1.4-2.4,3.9-1.9,5.1
			c2,4.5,4.6,8.7,7.4,12.8c0.6,0.9,3.1,1.5,4.1,1c4.5-2.2,8.8-4.8,13.2-7.2c6.4-3.5,9.5-8,8.4-12.2
			C263,484.6,257.6,481.9,250.7,481.9z M183,500.8c-0.1,9,7.6,21.6,15.2,24.9c4.9,2.1,7.7,0.4,8.3-4.8c0.8-8.6-6.6-21.9-14.5-25.8
			C186.3,492.3,183.1,494.4,183,500.8z M281.6,574c1.5-9-4.3-18.2-11.6-18.7C267.8,563.1,273.8,573,281.6,574z M419.1,436.9
			c8.4-0.6,14.5-5.9,17.3-14.9C428.1,423.9,420.8,426.8,419.1,436.9z M79.2,457.6c0.5,0.2,0.9,0.6,1.4,0.6c2.9-0.1,5.8-0.4,8.6-0.6
			c-0.2-2.7-0.1-5.4-0.8-8c-0.6-2.1-2.2-3.8-3.5-6.2C82.8,448.7,81,453.1,79.2,457.6z"/>
		<path class="st0" d="M261.4,508.8c6.5-4.5,11.6-9,12.5-16.4c1.3-10.9-7.8-19.8-21-20.4c-12.4-0.5-22.8,3.7-30.8,14.3
			c-47-27.2-94.1-54.4-143-82.7c1.9-0.9,3.2-1.2,4.2-2.1c39.8-32.9,79.5-65.9,119.6-98.5c3.7-3,9.5-3.4,14.2-5.2
			c9.6-3.6,19.8-6.2,28.6-11.1c10.9-6,13.7-17.7,16.1-29.2c0.5-2.5,2-5.3,4-6.9c47.2-39.3,94.6-78.5,141.9-117.7
			c17.6-14.6,35.2-29.1,52.7-43.7c1.9-1.6,3.3-2.5,6-0.9c39.9,23.2,79.8,46.2,119.7,69.2c0.3,0.2,0.5,0.4,1.1,0.9
			c-6.7,0.5-13.3,0.4-19.6,1.5c-12.6,2.2-23.7,7.4-32.5,17.2c-13.9,15.6-9.4,36.4,9.6,44.9c19.5,8.7,46.4,4.2,62.1-10.4
			c11.7-10.9,14.2-22.3,7.4-38c23,13.3,45.2,26.2,67.9,39.3c-10.1,8.4-19.6,16.3-29.2,24.2c-36.8,30.5-73.6,61.1-110.5,91.5
			c-1.9,1.5-4.7,2.3-7.2,2.7c-4.9,0.9-9.9,1-14.8,1.9c-13.1,2.5-19.7,10.8-18.9,24c0.2,3.8-0.8,6-3.7,8.4
			c-16.7,13.6-33.1,27.4-49.8,41c-2.5,2-5.7,3.2-8.7,4.3c-3.7,1.3-7.7,2.1-11.5,3.2c-11.1,3.3-17,10.9-19.2,22
			c-0.4,2.2-1.8,4.7-3.5,6.1c-34.3,28.6-68.7,57.1-103,85.7c-2.6,2.2-4.5,2.4-7.4,0.6C284.1,522,273,515.6,261.4,508.8z
			 M363.2,329.8c19-0.1,36.8-8.2,45.6-20c11.2-14.9,7-32.7-9.7-41c-12.8-6.4-26.1-6.4-39.4-2.6c-12.1,3.5-22.7,9.7-29.3,20.9
			c-7,11.9-4.7,24.8,6,33.5C344.7,327.5,354.6,329.5,363.2,329.8z M380.6,225.9c14.5-0.7,27.5-4.7,37.6-15.8
			c11.8-13,8.5-30.5-7.1-38.4c-9.6-4.8-19.8-5.4-30.2-3.3c-12.3,2.5-23,8-29.9,19c-7,11.2-4.5,23.5,6.1,31.3
			C364.1,223.9,372.2,225.4,380.6,225.9z M319.8,360.6c-0.1,0.4-0.3,0.8-0.4,1.3c-14.3,0-28.1,6.1-35.8,15.8
			c-9.6,12.1-6.7,26.9,6.8,34.3c17,9.4,43.6,3.8,55.4-11.6c9-11.8,6.7-26.1-6.3-33.2C333.4,363.9,326.3,362.7,319.8,360.6z
			 M454.5,157c12.8-0.7,22-3.6,29.1-11.2c9.7-10.3,6.9-24.1-5.8-30c-13.5-6.2-32.1-1.9-41.4,9.6c-7.5,9.3-5.5,21.5,5,27.2
			C446.1,155.2,451.6,156.1,454.5,157z M186.2,397.9c5.5-2.5,12-4.2,17-7.9c11.2-8.4,8.7-22.3-4.4-27.3c-9.9-3.7-23.8-0.1-30.5,8
			c-6.2,7.5-5,17.4,3.4,22.2C175.7,395.4,180.6,396.1,186.2,397.9z M464.7,349.4c0.2,0.3,0.3,0.5,0.5,0.8c4.7-1.8,9.7-3.2,14-5.7
			c4.6-2.7,7.3-7.3,6.4-13.1c-0.9-5.7-4.6-9-10-10.5c-8.3-2.4-15.9-0.7-22.3,5c-8.1,7.2-5.6,18.6,4.7,22
			C460.1,348.6,462.5,348.9,464.7,349.4z M546.5,245.5c-5.9,0.1-12,2-16.4,7.4c-5.3,6.6-3.7,14.5,3.7,18.5
			c6.5,3.6,13.2,2.7,19.6-0.3c6.8-3.2,10.6-9.7,9.3-15.4C561.3,249.7,555,245.5,546.5,245.5z"/>
		<path class="st0" d="M498.9,377.4c0.1,2.3,0.2,3.5,0.2,4.8c0.6,18.1,15.4,26.7,30.9,17.1c16.2-9.9,24.7-25.2,26.9-43.9
			c0.9-7.6-1.3-14.4-6.7-20.7c26.5-22,52.8-43.8,79.8-66.1c-2.4,7.5-5,13.8-6.2,20.4c-0.8,4.7-0.6,10.1,0.7,14.7
			c2.9,10.7,13.6,15.1,24.4,10.7c16.5-6.7,30.8-30,29.5-47.9c-1-13.4-6.9-19-21.9-19.8c9.9-8.2,19.2-16,29.3-24.4
			c0.2,2.2,0.4,3.5,0.4,4.9c0,46.3,0,92.6-0.1,139c0,1.9-1.1,4.7-2.5,5.6c-21.4,12.5-42.9,24.8-64.3,37.1c-0.8,0.5-1.8,0.7-4,1.6
			c1.4-2.2,2.1-3.4,2.8-4.5c9.3-13.7,15.2-28.4,14.2-45.3c-1.2-19-16.7-28.8-34.1-21.1c-15,6.6-25.2,18.5-31.9,33
			c-3.6,7.9-6.2,16.5-7.8,25.1c-3,16.7,4.3,27.5,22,33.6c-58.5,33.8-116.5,67.3-175.2,101.2c4.5-6.7,8.9-12.4,12.2-18.7
			c5.4-10.2,8.8-21.1,6.7-33c-2.3-13-11.7-19.7-24.8-17.2c-1.1,0.2-2.2,0.2-5,0.3c7.5-6.2,13.8-11.4,20.3-16.5
			c0.8-0.6,2.2-0.5,3.4-0.5c10.1-0.4,18.8-4.5,23-13.4c8.4-18,24.5-28,38.6-40.2C485.7,388.1,492,383.1,498.9,377.4z M492.4,449.8
			c0-13.1-9.6-18.8-19.4-12.7c-9.5,5.9-14.6,15-14.8,26.2c-0.2,11,9.6,16.6,19,11C486.7,468.5,491.5,459.4,492.4,449.8z
			 M669.3,358.2c-1.1-1.7-2.4-5-4.8-7.1c-3-2.6-6.9-1.8-10.3,0.2c-6.3,3.8-9.7,9.8-9.9,16.9c-0.1,3.1,2.3,6.8,4.6,9.2
			c2.7,2.8,6.4,1.7,9.7-0.2C665.1,373.2,668.1,367.2,669.3,358.2z"/>
		<path class="st0" d="M294.9,590.9c-4.3-2.5-7.7-4.4-11.2-6.4c8.6-6.7,10.2-12.4,6.2-22.4c-2.9-7.1-7.2-13.2-14.7-16.1
			c-7.4-2.9-14.8,1.2-15.1,9.2c-0.2,5.4,1.3,10.9,2.1,16.9c-20.2-11.6-40.4-23.2-61.4-35.3c12.4-3.1,16.7-10.3,14.3-22.2
			c-2.1-10.4-7-19-15.4-25.4c-6.8-5.2-14.3-6.1-19.4-2.6c-5.3,3.6-8.1,11.4-5.9,19.3c1.4,5.2,4,10.1,6.1,15.1
			c0.5,1.2,1.1,2.3,0.9,4.4c-32.2-18.6-64.3-37.1-97.1-56c15.7-4.3,19.4-12.3,11.5-26c-4-6.9-9.8-13-15.6-18.6
			c-3.5-3.4-4.7-6.3-3.4-11.2c1.3,0.6,2.5,1,3.6,1.6c46.1,26.6,92.1,53.1,138.1,79.8c1.7,1,3.1,2.9,4.2,4.6
			c2.9,4.4,5.1,9.4,8.4,13.5c4.9,6,10.7,6.3,17.3,2.4c1.3-0.8,3.8-0.9,5.1-0.2c12.9,7.2,25.7,14.6,38.5,22.1c1.3,0.8,2.8,2.6,2.8,4
			C295,557.6,294.9,573.5,294.9,590.9z M143.6,470.4c-1.1-10.2-4.4-16.8-11.9-20.6c-7.4-3.7-14.7,0.9-14.3,9.1
			c0.3,7.5,3.5,14.1,10.1,17.9c3,1.7,8,2.3,11,1C141.2,476.6,142.5,472.1,143.6,470.4z"/>
		<path class="st0" d="M373.5,482.4c-7.3,10-11.6,20.2-13.3,31.4c-2.7,18.1,4.9,28.2,23.6,30.7c-26.6,15.4-52.5,30.4-79.1,45.7
			c-0.2-1.8-0.5-3-0.5-4.2c0-14.5-0.1-29,0.1-43.5c0-1.9,0.8-4.4,2.2-5.6c21.5-18.1,43.2-36,64.9-53.9
			C371.7,483,372.1,482.9,373.5,482.4z M337.6,536c-1.2-1.7-2.7-5.2-5.3-7.5c-3.3-2.8-7.4-1.6-10.7,0.6c-6.3,4.2-9.8,10.3-10.4,17.8
			c-0.3,4.2,1,8.5,5.2,9.8c3.1,0.9,7.4,0.8,10.2-0.7C333.6,552.5,336.6,545.8,337.6,536z"/>
		<path class="st0" d="M583.7,210.5c-4,1.1-9.8,2.1-15,4.4c-8.8,3.7-22.9-0.2-29.2-8.8c-4.9-6.7-3.3-15.9,4.2-23.9
			c12.1-12.8,36.9-17.8,52.7-10.5c14.3,6.6,17,20.2,5.8,31.3C597.7,207.4,593.1,212.6,583.7,210.5z"/>
		<path class="st0" d="M596.3,351.5c6.2-3.5,12.1-7,19-3.3c6.9,3.6,8.1,10.7,7.6,17.3c-1.9,22.7-11.9,41.1-32,52.6
			c-12.9,7.4-22.7,1.2-23-13.7c0-1.4,1.6-3.8,2.8-4C585.4,397.2,603.2,369.5,596.3,351.5z"/>
		<path class="st0" d="M415.2,490.1c-1.9,16.1-9.8,31.5-26.5,41.5c-4.7,2.8-10,4.3-14.9,0.1c-3.4-2.8-5.5-13.3-3.6-17.4
			c0.4-0.8,1.3-1.3,2.1-1.9c11.3-7.2,17.5-17.3,17.9-30.9c0-1.4,1.2-2.8,2.1-4.1c0.6-0.7,1.6-1.1,2.5-1.6
			C406.7,468.8,414.9,473.4,415.2,490.1z"/>
		<path class="st0" d="M521.9,342.6c6.6-0.6,12.8-1.6,19-1.5c4,0.1,5.6,3.9,6.1,7.5c1.8,12.8-3,23.7-11.1,33
			c-4.1,4.7-9.8,8.5-15.4,11.2c-5.4,2.6-10.4-0.7-11.2-6.8c-1-7.1-1.2-13.9,5.4-19.5C521.4,360.7,523.4,352.6,521.9,342.6z"/>
		<path class="st0" d="M632.7,294.2c0.5-5.2,0.8-10.9,5.6-15.4c1.8-1.7,3.2-4.4,3.9-6.8c2.3-7.6,8.1-11.6,14.9-14.2
			c6.2-2.4,10.8,0,11.4,6.7c0.4,4.8-0.2,10-1.5,14.7c-3,10.3-8.9,19-18.2,24.7C639,309.8,632.7,306.2,632.7,294.2z"/>
		<path class="st0" d="M250.7,481.9c6.9,0,12.3,2.7,13.3,6.7c1.1,4.2-2,8.7-8.4,12.2c-4.4,2.4-8.7,5.1-13.2,7.2
			c-1,0.5-3.5-0.1-4.1-1c-2.7-4.1-5.3-8.4-7.4-12.8c-0.5-1.2,0.7-3.7,1.9-5.1C236.5,484.5,243.6,481.9,250.7,481.9z"/>
		<path class="st0" d="M183,500.8c0.1-6.5,3.3-8.5,9-5.7c7.9,3.9,15.3,17.1,14.5,25.8c-0.5,5.3-3.4,6.9-8.3,4.8
			C190.7,522.4,183,509.8,183,500.8z"/>
		<path class="st0" d="M281.6,574c-7.8-1-13.8-10.9-11.6-18.7C277.3,555.8,283.1,564.9,281.6,574z"/>
		<path class="st0" d="M419.1,436.9c1.7-10.1,9-12.9,17.3-14.9C433.6,431,427.5,436.3,419.1,436.9z"/>
		<path class="st0" d="M79.2,457.6c1.8-4.5,3.6-8.9,5.7-14.1c1.4,2.3,3,4.1,3.5,6.2c0.7,2.5,0.6,5.3,0.8,8c-2.9,0.2-5.8,0.4-8.6,0.6
			C80.1,458.2,79.7,457.8,79.2,457.6z"/>
		<path d="M363.2,329.8c-8.6-0.4-18.5-2.4-26.7-9.1c-10.7-8.7-13-21.7-6-33.5c6.7-11.3,17.2-17.4,29.3-20.9
			c13.3-3.8,26.6-3.8,39.4,2.6c16.7,8.3,20.9,26.1,9.7,41C400,321.6,382.2,329.7,363.2,329.8z M401.5,303.2c6.8-9.2,5-18.5-4.3-24.6
			c-17-11.1-47.6-4.3-58.2,12.9c-5.7,9.1-3.1,18.5,6.5,23.3C353.8,295,385.4,287.9,401.5,303.2z"/>
		<path d="M380.6,225.9c-8.4-0.5-16.5-2-23.5-7.1c-10.6-7.8-13.1-20.1-6.1-31.3c6.9-11,17.5-16.5,29.9-19
			c10.4-2.1,20.5-1.6,30.2,3.3c15.7,7.9,18.9,25.3,7.1,38.4C408.1,221.2,395.1,225.2,380.6,225.9z M380.7,216.7
			c13.8-0.6,26.3-6.4,32.3-15.4c4.9-7.3,3-15.6-4.5-20.1c-13.6-8.2-37.5-4-47.5,8.4c-7.6,9.4-4.7,20.3,6.7,24.3
			C371.9,215.3,376.4,215.8,380.7,216.7z"/>
		<path d="M319.8,360.6c6.5,2.1,13.6,3.3,19.5,6.6c13,7.1,15.4,21.4,6.3,33.2c-11.8,15.4-38.4,21-55.4,11.6
			c-13.4-7.4-16.3-22.3-6.8-34.3c7.7-9.7,21.5-15.8,35.8-15.8C319.5,361.4,319.6,361,319.8,360.6z M309.2,408.1
			c11.2-1.3,20.9-4.5,28.3-12.9c6.1-6.9,4.7-15.5-3.2-20.2c-12.6-7.4-35.3-2.7-43.8,9.2c-4.9,6.8-3.8,14.7,3.5,18.7
			C298.6,405.5,304.1,406.4,309.2,408.1z"/>
		<path d="M454.5,157c-2.9-0.9-8.4-1.9-13.1-4.4c-10.6-5.7-12.6-17.9-5-27.2c9.3-11.5,28-15.8,41.4-9.6c12.8,5.9,15.5,19.7,5.8,30
			C476.4,153.4,467.2,156.4,454.5,157z M479.9,132c-0.6-4-3.1-6.8-7-8c-9.6-2.9-18.7-1.6-26.6,4.9c-4.8,4-6,8.3-3.8,12.1
			c2.5,4.3,10.1,7,14.9,5.5c3.7-1.1,7.6-1.9,11.5-2.4C473.6,143.5,480.1,136.9,479.9,132z"/>
		<path d="M186.2,397.9c-5.6-1.8-10.5-2.6-14.5-4.9c-8.4-4.8-9.6-14.8-3.4-22.2c6.7-8.1,20.6-11.8,30.5-8
			c13.1,4.9,15.7,18.9,4.4,27.3C198.2,393.7,191.7,395.4,186.2,397.9z M190.4,371c-0.1-0.3-0.2-0.6-0.4-0.9
			c-3.9,1.5-8.2,2.6-11.7,4.8c-2,1.3-4.2,4.6-3.9,6.7c0.3,2,3.5,4.4,5.8,5.1c5.3,1.6,10.8,0.7,15.2-2.7c2.3-1.8,5.1-5.7,4.5-7.7
			c-0.7-2.3-4.8-3.6-7.5-5.2C191.9,370.7,191.1,371,190.4,371z"/>
		<path d="M464.7,349.4c-2.3-0.5-4.6-0.7-6.8-1.5c-10.3-3.5-12.8-14.9-4.7-22c6.4-5.6,14-7.3,22.3-5c5.4,1.5,9.1,4.8,10,10.5
			c0.9,5.7-1.8,10.3-6.4,13.1c-4.3,2.5-9.3,3.8-14,5.7C465,349.9,464.9,349.6,464.7,349.4z M475.7,332.4c-4.3-3.7-12.2-3.4-15.6,0.6
			c-1.7,2-2.5,4,0.7,5.5C466.1,341.2,473.6,338.2,475.7,332.4z"/>
		<path d="M546.5,245.5c8.5,0,14.8,4.2,16.2,10.3c1.3,5.7-2.4,12.2-9.3,15.4c-6.4,3-13.1,3.9-19.6,0.3c-7.4-4.1-9-11.9-3.7-18.5
			C534.5,247.5,540.6,245.6,546.5,245.5z M543.4,265.1c3.2-2,6.2-3.8,9.1-5.8c0.3-0.2,0.1-2.1-0.4-2.5c-3.5-2.3-7.3-2.3-10.8-0.2
			c-1.7,1-2.8,3-4.1,4.5C539,262.3,540.8,263.4,543.4,265.1z"/>
		<path d="M492.4,449.8c-0.9,9.6-5.7,18.7-15.3,24.4c-9.4,5.6-19.2,0-19-11c0.2-11.2,5.4-20.2,14.8-26.2
			C482.8,431,492.4,436.7,492.4,449.8z M480.9,444.6c-9.6,2.5-15.6,14.3-11.3,22.3C479.1,464,485.4,451.7,480.9,444.6z"/>
		<path d="M669.3,358.2c-1.3,9-4.2,15-10.7,19c-3.3,2-7,3-9.7,0.2c-2.3-2.4-4.6-6.1-4.6-9.2c0.2-7.1,3.6-13.1,9.9-16.9
			c3.3-2,7.2-2.9,10.3-0.2C666.9,353.2,668.2,356.5,669.3,358.2z"/>
		<path d="M143.6,470.4c-1.1,1.7-2.4,6.2-5.1,7.4c-3,1.3-8,0.8-11-1c-6.5-3.8-9.8-10.4-10.1-17.9c-0.3-8.2,6.9-12.8,14.3-9.1
			C139.2,453.6,142.5,460.2,143.6,470.4z M132.3,469.7c0.8-0.5,1.5-1,2.3-1.5c-2-3.3-4.1-6.6-6.1-9.9c-0.7,0.5-1.5,0.9-2.2,1.4
			C128.2,462.9,130.2,466.3,132.3,469.7z"/>
		<path d="M337.6,536c-1,9.8-4,16.5-11,20.1c-2.8,1.5-7.1,1.6-10.2,0.7c-4.2-1.3-5.5-5.6-5.2-9.8c0.5-7.6,4.1-13.6,10.4-17.8
			c3.3-2.2,7.4-3.4,10.7-0.6C334.9,530.8,336.4,534.3,337.6,536z M328,539c-0.8-0.5-1.6-0.9-2.4-1.4c-1.7,3.2-3.4,6.4-5.1,9.6
			c0.7,0.4,1.3,0.7,2,1.1C324.2,545.2,326.1,542.1,328,539z"/>
		<path class="st0" d="M401.5,303.2c-16.1-15.4-47.7-8.2-56.1,11.6c-9.5-4.7-12.2-14.1-6.5-23.3c10.7-17.2,41.2-24,58.2-12.9
			C406.5,284.7,408.3,294.1,401.5,303.2z"/>
		<path class="st0" d="M380.7,216.7c-4.3-0.9-8.9-1.4-13-2.9c-11.4-4-14.3-15-6.7-24.3c10-12.3,33.9-16.5,47.5-8.4
			c7.5,4.5,9.3,12.9,4.5,20.1C407,210.3,394.5,216.1,380.7,216.7z"/>
		<path class="st0" d="M309.2,408.1c-5.1-1.7-10.6-2.6-15.3-5.2c-7.3-4.1-8.4-11.9-3.5-18.7c8.5-11.9,31.2-16.6,43.8-9.2
			c7.9,4.7,9.3,13.3,3.2,20.2C330.1,403.6,320.4,406.7,309.2,408.1z"/>
		<path class="st0" d="M479.9,132c0.2,4.8-6.3,11.4-11.1,12.1c-3.9,0.5-7.8,1.3-11.5,2.4c-4.7,1.5-12.4-1.2-14.9-5.5
			c-2.2-3.8-1-8.1,3.8-12.1c7.9-6.5,16.9-7.8,26.6-4.9C476.8,125.3,479.3,128.1,479.9,132z"/>
		<path class="st0" d="M190.4,371c0.7,0,1.5-0.3,2,0c2.7,1.6,6.9,2.9,7.5,5.2c0.6,2-2.2,5.9-4.5,7.7c-4.4,3.4-9.9,4.3-15.2,2.7
			c-2.4-0.7-5.5-3.1-5.8-5.1c-0.3-2,1.9-5.4,3.9-6.7c3.5-2.2,7.8-3.3,11.7-4.8C190.2,370.3,190.3,370.6,190.4,371z"/>
		<path class="st0" d="M475.7,332.4c-2.1,5.7-9.6,8.8-15,6.1c-3.1-1.5-2.4-3.5-0.7-5.5C463.6,329,471.4,328.7,475.7,332.4z"/>
		<path class="st0" d="M543.4,265.1c-2.6-1.6-4.4-2.8-6.2-4c1.4-1.5,2.4-3.5,4.1-4.5c3.5-2.2,7.3-2.1,10.8,0.2
			c0.5,0.3,0.8,2.2,0.4,2.5C549.6,261.3,546.6,263,543.4,265.1z"/>
		<path class="st0" d="M480.9,444.6c4.5,7.2-1.7,19.5-11.3,22.3C465.3,458.8,471.3,447,480.9,444.6z"/>
		<path class="st0" d="M132.3,469.7c-2-3.4-4.1-6.7-6.1-10.1c0.7-0.5,1.5-0.9,2.2-1.4c2,3.3,4.1,6.6,6.1,9.9
			C133.8,468.7,133,469.2,132.3,469.7z"/>
		<path class="st0" d="M328,539c-1.9,3.1-3.7,6.2-5.6,9.3c-0.7-0.4-1.3-0.7-2-1.1c1.7-3.2,3.4-6.4,5.1-9.6
			C326.4,538,327.2,538.5,328,539z"/>
	</g>
</g>
</svg>
