<?xml version="1.0" encoding="utf-8"?>
<!-- Generator: Adobe Illustrator 21.0.0, SVG Export Plug-In . SVG Version: 6.00 Build 0)  -->
<svg version="1.1" id="Calque_1" xmlns="http://www.w3.org/2000/svg" xmlns:xlink="http://www.w3.org/1999/xlink" x="0px" y="0px"
	 viewBox="0 0 400 700" style="enable-background:new 0 0 400 700;" xml:space="preserve">
<style type="text/css">
	.st0{fill:#FC0316;}
	.st1{fill:#FFFFFF;}
</style>
<g>
	<path d="M61,170l12.7,23.9l-2.4,2.4l-27.5-16.7l2.5-2.4l22.1,13.6l-12.2-23.4l2.2-2.2l22.9,12.5c-2.2-3.7-4.4-7.4-6.5-11.1
		c-2.1-3.7-4.3-7.4-6.5-11.1l2.5-2.4l16.2,27.7l-2.4,2.4L61,170z"/>
	<path d="M94.5,137.3l1.7,2.5l-14.5,9.7l5.9,8.8l13.7-9.1l1.7,2.5l-13.7,9.1l6.4,9.6l15.2-10.1l1.7,2.5l-18,12l-17.3-25.9
		L94.5,137.3z"/>
	<path d="M105.4,131.5l12,25.4l14.2-6.7l1.3,2.7l-17.2,8.2l-13.3-28.1L105.4,131.5z"/>
	<path d="M134.9,135.2c0.7,2.3,1.5,4.2,2.6,5.7s2.3,2.7,3.5,3.5c1.3,0.8,2.6,1.3,4,1.5c1.4,0.2,2.7,0.1,4-0.2c1.3-0.4,2.4-1,3.3-1.7
		s1.7-1.7,2.2-2.7c0.6-1,0.9-2.1,1.2-3.2c0.2-1.1,0.3-2.3,0.2-3.4l3.2-0.9c0.2,1.6,0.1,3.2-0.2,4.8c-0.3,1.5-0.8,3-1.6,4.3
		c-0.8,1.3-1.8,2.5-3,3.4c-1.2,1-2.8,1.7-4.5,2.2c-2.1,0.6-4,0.8-5.9,0.5s-3.6-0.9-5.1-2c-1.6-1.1-3-2.5-4.2-4.3
		c-1.2-1.8-2.2-4-2.9-6.6c-0.6-2-0.8-4-0.7-6c0.1-2,0.5-3.9,1.2-5.7c0.7-1.8,1.8-3.3,3.2-4.6c1.4-1.3,3.2-2.3,5.3-2.9
		c1.8-0.5,3.5-0.7,5-0.7c1.5,0.1,2.9,0.4,4.2,0.9c1.3,0.5,2.4,1.3,3.5,2.2c1,1,1.9,2.1,2.7,3.3l-3.4,1c-1.4-2-3.1-3.4-4.9-4
		c-1.8-0.7-3.9-0.6-6.3,0c-1.5,0.4-2.8,1.2-3.8,2.2c-1,1-1.9,2.3-2.4,3.7c-0.6,1.4-0.9,3-0.9,4.6
		C134.2,131.8,134.4,133.5,134.9,135.2z"/>
	<path d="M191.9,125.4c0.2,2.4,0.1,4.6-0.3,6.7c-0.4,2-1.2,3.8-2.2,5.4s-2.4,2.8-4.1,3.8c-1.6,1-3.6,1.5-5.8,1.8
		c-2.2,0.2-4.2,0-6-0.7s-3.4-1.6-4.7-3c-1.3-1.3-2.4-3-3.2-4.9c-0.8-1.9-1.3-4.1-1.5-6.5c-0.2-2.4-0.1-4.6,0.3-6.6
		c0.4-2,1.2-3.8,2.2-5.4c1.1-1.5,2.4-2.8,4.1-3.8c1.7-1,3.6-1.5,5.8-1.8c2.2-0.2,4.3,0,6.1,0.7c1.8,0.7,3.4,1.6,4.7,3
		c1.3,1.3,2.4,3,3.2,4.9C191.2,120.8,191.7,123,191.9,125.4z M188.6,125.7c-0.2-2.1-0.6-3.9-1.3-5.5c-0.7-1.6-1.6-2.9-2.6-4
		c-1.1-1-2.3-1.8-3.6-2.3c-1.3-0.5-2.8-0.7-4.3-0.5c-1.5,0.1-2.9,0.6-4.1,1.3c-1.2,0.7-2.3,1.7-3.1,2.9c-0.9,1.2-1.5,2.7-1.9,4.4
		c-0.4,1.7-0.5,3.6-0.3,5.7c0.2,2.1,0.6,3.9,1.3,5.6c0.7,1.6,1.6,2.9,2.6,4c1.1,1,2.3,1.8,3.6,2.3c1.3,0.5,2.8,0.7,4.3,0.5
		c1.5-0.1,2.9-0.6,4.1-1.3c1.2-0.7,2.3-1.7,3.1-2.9c0.9-1.2,1.5-2.7,1.9-4.4C188.7,129.7,188.8,127.8,188.6,125.7z"/>
	<path d="M204.1,110.3l7.2,27.4l12.7-25.4l4.3,0.4l-3.1,31l-3.3-0.3l2.6-25.4l-11.9,24.5l-3-0.3l-7-26.4l-2.6,25.4l-3.3-0.3l3.1-31
		L204.1,110.3z"/>
	<path d="M257.1,120.5l-0.8,2.9l-16.8-4.8l-2.9,10.1l15.8,4.5l-0.8,2.9l-15.8-4.5l-3.1,11.1l17.6,5l-0.8,2.9l-20.8-5.9l8.5-30
		L257.1,120.5z"/>
	<path d="M312.9,150.3l-1.7,2.5l-8.6-5.8L287,170.4l-2.8-1.9l15.7-23.3l-8.6-5.8l1.7-2.5L312.9,150.3z"/>
	<path d="M327.3,184.5c-1.6,1.7-3.4,3.1-5.2,4.2c-1.8,1-3.7,1.7-5.5,1.9c-1.9,0.2-3.7,0-5.5-0.6c-1.8-0.6-3.5-1.7-5.2-3.2
		c-1.6-1.5-2.8-3.2-3.5-5s-1-3.6-0.9-5.5s0.6-3.7,1.6-5.6c0.9-1.9,2.2-3.7,3.8-5.4c1.6-1.7,3.4-3.1,5.2-4.2c1.8-1,3.6-1.7,5.5-1.9
		c1.9-0.2,3.7-0.1,5.5,0.6c1.8,0.6,3.5,1.7,5.2,3.2c1.6,1.5,2.8,3.2,3.5,5c0.7,1.8,1,3.6,0.9,5.5c-0.1,1.9-0.6,3.7-1.5,5.6
		C330.2,180.9,328.9,182.7,327.3,184.5z M324.9,182.2c1.4-1.5,2.5-3.1,3.3-4.7c0.7-1.6,1.1-3.1,1.2-4.6c0.1-1.5-0.1-2.9-0.7-4.2
		c-0.5-1.3-1.3-2.5-2.4-3.5c-1.1-1-2.3-1.8-3.7-2.2c-1.4-0.4-2.8-0.6-4.3-0.4c-1.5,0.2-3,0.7-4.5,1.5c-1.5,0.8-3,2-4.5,3.6
		s-2.5,3.1-3.3,4.7c-0.7,1.6-1.2,3.1-1.2,4.6c-0.1,1.5,0.1,2.9,0.7,4.2c0.5,1.3,1.3,2.5,2.4,3.5c1.1,1,2.3,1.8,3.7,2.2
		c1.4,0.4,2.8,0.6,4.3,0.4c1.5-0.2,3-0.7,4.5-1.5C321.9,184.9,323.4,183.7,324.9,182.2z"/>
</g>
<circle class="st0" cx="194.5" cy="302.5" r="150.5"/>
<g>
	<path d="M96.7,280.6c5.3,0.2,6.6-1.2,7.4-5.5c1.2-7,3.7-13.5,9.1-18.4c3.2-2.8,6.9-4.4,11.2-3.1c1.2,0.4,2.7,1.5,3,2.5
		c0.3,1.3-0.3,3.6-1.1,4c-2,0.9-2.4-0.9-2.5-2.6c0-0.3-0.3-0.6-0.7-1.4c-1,0.8-2.3,1.2-2.9,2.2c-4.4,6.5-7.9,13.5-7.7,21.7
		c0,1,0.2,2.1,0.5,3.1c0.8,2.6,3.2,3.2,5.1,1.2c1.2-1.3,2.3-2.8,2.9-4.3c3.1-8.5,6.1-17,9.2-25.4c0.3-0.9,2-2.1,2.7-1.9
		c1.7,0.5,4.3,1.4,4.6,2.7c0.7,2.4,0.6,5.4-0.2,7.8c-1.6,5.1-4,9.9-5.9,14.9c-0.7,1.8-1.1,3.7-1.7,5.5c0.3,0.3,0.7,0.6,1,0.9
		c1-0.7,2.5-1.3,3.1-2.3c2.8-5.1,5.6-10.2,7.9-15.4c1.7-3.7,2.7-7.7,3.8-11.6c0.9-3.1,4.3-4.3,6.7-2.1c0.8,0.7,1.3,1.6,1.6,2.1
		c3.5-1.5,6.8-4,10.1-4c4.6,0.1,4,5.1,5.1,9.1c1-1.3,1.6-2.2,2.2-3c1.5-1.9,2.8-4.1,4.7-5.5c1.6-1.2,4.4-2.4,5.8-1.7
		c1.7,0.7,3.2,3.3,3.6,5.4c1.1,6.3-1.8,12.1-3.8,17.9c-0.9,2.5-1.5,5.1-2.2,7.7c0.5,0.3,1,0.6,1.5,0.9c1.2-1.1,2.6-2,3.4-3.3
		c2.9-4.9,5.6-9.9,8.3-14.9c0.5-0.8,1-1.6,1.4-2.4c0.3,0.1,0.6,0.2,0.9,0.2c0.1,0.7,0.4,1.6,0.1,2.1c-3.1,5.7-6.2,11.4-9.5,17
		c-0.8,1.3-2.3,2.3-3.7,3.1c-3.4,2.1-6.4,0.9-7.7-2.9c-1.7-4.9-0.3-9.7,1.3-14.3c1.1-3.3,2.6-6.5,3.6-9.8c0.3-1.1-0.3-2.5-0.5-3.8
		c-1.1,0.6-2.5,0.9-3.1,1.7c-6.1,8.8-11.6,17.9-13.4,28.8c-0.2,0.9-1.3,2.5-1.8,2.4c-1.8-0.3-4.2-0.7-5.1-2c-1-1.5-1.4-4.1-0.9-5.9
		c1.9-6.2,4.4-12.2,6.5-18.4c0.6-1.6,0.7-3.4,1.1-5.1c-0.3-0.2-0.7-0.4-1-0.6c-1,0.7-2.1,1.2-2.9,2.1c-6.9,8.3-10.7,18.1-13,28.5
		c-0.2,1-1.1,2.5-1.7,2.5c-1.2,0.1-2.7-0.4-3.7-1.2c-1-0.8-1.5-2.3-2.1-3.4c-2.6,1.9-4.9,4.2-7.7,5.7c-2.6,1.3-4.7-0.7-6.2-4.8
		c-3.4,2.1-6.7,5.2-10.5,6c-4.5,1-7.7-2.4-9.3-7c-2.4,0.7-4.7,1.1-6.7,2.1c-1,0.5-1.9,2-2.2,3.2c-5.2,18.8-17.5,30.8-35.6,37.2
		c-5.3,1.9-10.6,2.8-16.1,1.6c-7-1.6-9.7-8-6.1-14.3c3.2-5.6,8.2-9.3,13.8-12c10-4.7,20.2-8.9,30.3-13.4c1.1-0.5,2.3-1.9,2.5-3.1
		c1.7-9,2.3-18-0.7-26.9c-2.3-6.8-6.5-12.1-13.6-13.8c-7-1.7-13.6,0.2-18.7,5.3c-7.7,7.7-11.6,17.4-12.3,28.2
		c-0.1,2.3,0.7,4.8,1.7,6.9c1.1,2.1,0.4,3-1.4,3.7c-3.7,1.5-7.5-0.7-8.8-5.1c-1.7-5.8-0.5-11.3,1.7-16.7
		c6.7-16.8,25.6-28.3,43.6-26.4c10.8,1.1,18.3,7.5,20.1,18.2c1.2,6.9,1,14.1,1.3,21.2C96.7,278.8,96.7,279.6,96.7,280.6z
		 M82.1,290.5c-1.7,0.3-2.8,0.2-3.7,0.6c-8.9,3.9-18,7.6-26.6,12c-4.1,2.1-7.9,5.4-11.1,8.8c-3.7,4-3,9.4,1.3,11.3
		c2.5,1.1,6.1,1.1,8.7,0.2c8.4-2.9,15.6-7.9,21.5-14.4C76.7,303.8,80.5,298.1,82.1,290.5z"/>
	<path d="M330.2,268.9c1.2-1.2,2.5-2.4,3.5-3.7c5-6.7,8-14.4,10.5-22.3c2.9-9.1,5.5-18.2,8.5-27.3c0.3-1.1,2.4-2.2,3.6-2.2
		c2.5,0,4.5,1.7,4.2,4.2c-0.4,4.1-1.3,8.2-2.5,12.2c-1.5,5-3.4,9.8-5.1,14.6c0.3,0.2,0.6,0.4,0.9,0.6c1.8-1.7,3.6-3.3,5.3-5
		c2.5-2.6,4.9-5.3,7.3-8c0.9-1,1.4-3.4,3.3-1.8c1.4,1.2,2.8,3.4,2.7,5c-0.2,1.8-1.8,3.8-3.4,5c-3,2.4-6.3,4.3-9.6,6.3
		c-1.5,0.9-2.6,1.7-1.3,3.5c5.3,7.5,10.5,15.1,16.2,22.2c2.4,3,6.2,4.9,9.8,7.6c-0.7,4.6-7.2,6.7-12,2.7c-2.8-2.4-5.3-5.6-7.1-8.9
		c-3.5-6.4-6.3-13.2-9.5-19.8c-0.6-1.3-2.1-2.1-3.2-3.2c-1,1.2-2.6,2.2-3,3.5c-1.7,5-3,10.2-4.5,15.3c-0.2,0.8-0.8,2.1-1.2,2.1
		c-1.3,0.1-3.1,0.2-3.8-0.6c-1.2-1.3-1.8-3.3-2.9-5.4c-1.3,1.4-2.5,3.2-4.1,4.2c-1.8,1.2-4.2,2.5-6.1,2.3c-2.9-0.3-4.3-3.3-3.9-5.8
		c1.1-6.5,2.8-12.9,4.2-19.3c0.3-1.4,0.9-2.8,1.3-4.2c-4.9-1.4-6.2-0.7-7.9,3.4c-3,7-6,14.1-9.4,20.9c-1.1,2.3-3.2,4.3-5.2,6
		c-3.6,3-6.8,1.9-8.4-2.5c-0.2-0.5-0.3-1-0.5-1.6c-0.4-0.3-0.9-0.6-1.3-0.9c-0.6,1.2-0.9,2.7-1.8,3.7c-2.4,2.9-5.3,4.9-9.4,3.9
		c-4.3-1.1-6.7-3.9-7-8.1c-0.7-10.3,2.6-19,10.8-25.6c2.7-2.1,6.1-3.2,9.5-1.9c1.3,0.5,2.7,1.6,3.1,2.8c0.3,1.1-0.3,3.3-1.2,3.7
		c-2,0.9-2.4-0.9-2.5-2.5c0-0.3-0.3-0.6-0.7-1.4c-1.1,0.7-2.3,1.2-2.9,2.1c-4.4,6.5-7.9,13.4-7.7,21.6c0,0.6-0.1,1.3,0.2,1.7
		c0.8,1.3,1.5,3.1,2.6,3.5c0.9,0.3,2.8-0.9,3.5-2c1.8-2.7,3.5-5.6,4.6-8.6c2.4-6.7,4.4-13.6,6.8-20.4c0.3-0.8,2.2-1.9,3-1.6
		c1.7,0.6,4.1,1.6,4.4,2.9c0.6,2.3,0.5,5.2-0.2,7.5c-1.7,5.1-4,9.9-5.9,14.9c-0.7,1.9-1.1,3.8-1.6,5.8c0.4,0.2,0.7,0.5,1.1,0.7
		c1-0.7,2.3-1.3,3-2.2c3.9-5.3,7.8-10.7,9-17.5c0.2-1.1,0.7-2.2,1.1-3.3c1.2-3.2,2.8-6.2-1.1-9.1c-1.1-0.8-1.3-3.9-0.8-5.7
		c0.3-1.2,2.7-2.8,3.8-2.6c1.4,0.3,2.8,2.1,3.6,3.5c0.9,1.6,1.1,3.5,1.5,5.3c1.8-0.6,3.7-1.5,5.5-1.7c1.9-0.2,4.8-0.6,5.7,0.5
		c1.3,1.6,2.1,4.6,1.7,6.6c-1,4.4-2.9,8.6-4.5,12.8c-0.8,2.2-1.9,4.3-2.6,6.5c-0.4,1.3-0.4,2.8-0.6,4.3
		C329.4,268.5,329.8,268.7,330.2,268.9z"/>
	<path d="M241.3,275.8c5.9-1.4,10.8-4.2,14.9-8.6c8-8.7,8.8-24,1.6-31.8c-7.9-8.5-19.4-8.5-28.2,0.1c-5.2,5.1-8.4,11.3-8.8,18.5
		c-0.2,3.2,0.8,6.6,1.7,9.8c0.4,1.5,2.5,2.9,0.2,4.5c-2.1,1.4-4.3,1.8-6.4-0.1c-3.6-3.3-4.6-7.5-4.2-12.1c1.6-17,23-35.7,44.1-28.7
		c19,6.3,24.6,25.7,8.9,41.8c-5.4,5.6-12.1,9.1-20.2,8.7c-1.2-0.1-2.4-0.6-3.6-0.8C241.3,276.6,241.3,276.2,241.3,275.8z"/>
	<path d="M245.5,243.4c-1.8,7.2-3.6,14.3-5.5,21.5c-2.7,10.3-5.4,20.6-8.3,30.9c-0.3,1-1.5,2.4-2.4,2.5c-1.5,0.1-3.7-0.4-4.3-1.4
		c-1.1-1.7-1.9-4.2-1.5-6.1c3-13.1,6.4-26.1,9.6-39.2c0.7-2.9,1.4-5.9,1.9-8.8c0.6-4.1,1.6-5.2,5-5
		C243.2,237.9,244.6,239.6,245.5,243.4z"/>
	<path d="M66.2,257c-2.2,5.8-4.3,11.7-6.5,17.5c-1.8,5-3.8,10-5.4,15c-0.7,2.1-0.7,4.6-3.8,4.5c-2.4-0.1-4.8-3-4.4-5.8
		c0.6-3.5,1.4-7.1,2.6-10.5c2-6.1,4.4-12,6.6-18c0.4-1.2,0.9-2.5,0.9-3.7c0-3.4,1.8-4.6,4.9-4.5c3.1,0.2,4,2.4,4.1,5.1
		C65.6,256.8,65.9,256.9,66.2,257z"/>
</g>
<circle class="st1" cx="201.5" cy="467.5" r="114.5"/>
<g>
	<g>
		<path d="M124.6,304.5c52-14.3,106.2-19.7,160-15.9c1.9,0.1,1.9-2.9,0-3c-54.1-3.8-108.5,1.6-160.8,16
			C122,302.1,122.7,305,124.6,304.5L124.6,304.5z"/>
	</g>
</g>
<g>
	<path d="M89.6,539.2c0-1.1,0-1.8,0-2.7c3.4,0.3,6.1,1.5,7.9,4.4c0.1,0.2,0.2,0.3,0.3,0.5c4.2,5.8,8.5,5.9,12.8,0.2
		c1.7-2.3,3.5-4.3,6.4-4.8c4-0.8,7.3,0.3,9.8,3.7c0.3,0.4,0.7,0.9,1,1.3c0.1,0.1,0.2,0.1,0.6,0.2c0-62.2,0-124.4,0-186.7
		c4.4,0,8.6,0,12.8,0c1.2,0,1.9-0.3,2.6-1.4c3.5-5.9,7-11.7,10.5-17.6c0.4-0.7,0.6-1.6,0.6-2.5c0.1-3.1,0-6.2,0-9.5
		c6.5,0,12.9,0,19.4,0c0,3.2-0.1,6.3,0,9.4c0,0.9,0.3,1.9,0.7,2.6c3.5,5.9,7,11.7,10.5,17.6c0.3,0.6,1,1.3,1.6,1.3
		c3.6,0.1,7.2,0.1,11,0.1c0-4,0-7.9,0-12.1c0.9,0,1.6-0.1,2.3-0.1c7.5,0,15,0,22.5,0c1.3,0,2.1-0.4,2.7-1.5c3.1-5.6,6.3-11.1,9.7-17
		c0.9,1.6,1.8,2.8,2.4,4.2c0.6,1.4,1.5,1.8,3,1.7c3.5-0.2,6.8-1.2,9.6-3.3c2.7-2,4.9-4.2,4.3-8c-0.1-0.4,0.1-0.9,0.1-1.5
		c3.6,0,7,0,10.7,0c0,8.5,0,16.8,0,25.4c2.5,0,4.9,0,7.5,0c0,1.1,0,1.9,0,2.8c0,63.3,0,126.7,0,190c0,1.7,0.2,3.1,1.7,4.3
		c1,0.8,1.6,2.1,2.5,2.9c1.4,1.2,3,2.2,4.6,3.4c0.2-0.2,0.3-0.3,0.5-0.5c0,0.8,0,1.7,0,2.6c-3.2-0.1-5.8-1.2-7.7-3.8
		c-0.8-1.1-1.7-2.1-2.6-3.1c-2.6-2.9-6.4-2.9-9.1-0.1c-0.7,0.7-1.3,1.5-1.9,2.4c-4.5,6.4-12.2,6.4-16.6,0c-1.6-2.3-3.3-4.5-6.6-4.5
		c-2.9,0-4.7,1.9-6.2,4c-1.7,2.4-3.7,4.3-6.7,4.9c-4,0.7-7.2-0.4-9.7-3.6c-0.9-1.1-1.7-2.3-2.7-3.3c-2.4-2.6-6.1-2.7-8.6-0.2
		c-1,1-1.8,2-2.6,3.1c-4.3,5.6-11.8,5.6-16.1,0c-0.7-1-1.5-1.9-2.3-2.8c-2.5-2.7-6.2-2.8-8.8-0.2c-0.9,1-1.8,2-2.6,3.1
		c-4.2,5.5-11.5,5.5-15.7,0c-0.9-1.2-1.8-2.3-2.9-3.4c-2.4-2.2-5.8-2.2-8.2,0c-1,1-1.9,2.1-2.8,3.2c-4.3,5.6-11.6,5.7-15.8,0
		c-0.8-1-1.6-2-2.4-3c-2.5-2.7-5.9-2.9-8.6-0.4c-1,1-1.9,2.1-2.8,3.2c-4.3,5.6-11.5,5.6-15.8,0C94.6,541.9,92.9,539.5,89.6,539.2z
		 M181.7,529.7c0-3.6,0-7.1,0-10.8c2.8,0,5.4,0,8.1,0c0-2.7,0-5.2,0-8c2.8,0,5.5,0,8.2,0c0-51,0-101.7,0-152.6
		c-3.9,0-7.7-0.1-11.4,0c-1.4,0-2.2-0.5-2.9-1.7c-3.8-6.4-7.6-12.8-11.4-19.2c-0.5-0.9-0.8-2.1-0.9-3.2c-0.1-2.3,0-4.7,0-7
		c-4.7,0-9.1,0-13.6,0c0,2-0.1,3.8,0,5.6c0.1,2.1-0.4,3.9-1.5,5.7c-3.5,5.6-6.9,11.2-10.1,16.9c-1.2,2.2-2.5,2.9-4.9,2.7
		c-3.3-0.2-6.6-0.1-9.8-0.1c0,57.4,0,114.4,0,171.4c6.7,0,13.2,0,19.9,0c0-10.8,0-21.5,0-32.1c8.6,0,16.9,0,25.5,0
		c0,10.8,0,21.4,0,32.2C178.6,529.7,180,529.7,181.7,529.7z M270.1,510.9c0-48.9,0-97.6,0-146.4c-23,0-45.9,0-68.8,0
		c0,48.9,0,97.7,0,146.4C224.3,510.9,247.1,510.9,270.1,510.9z M270.1,514.2c-25.9,0-51.6,0-77.5,0c0,2.6,0,5.1,0,7.9
		c-2.7,0-5.2,0-8,0c0,3.7,0,7.2,0,10.8c-17.9,0-35.5,0-53.3,0c0,3.9-0.1,7.6,0.1,11.3c0,0.5,0.8,1.4,1.4,1.5
		c1.9,0.4,3.8,0.1,5.3-1.4c1.1-1.2,2.2-2.4,3.2-3.7c3.9-5.4,11.8-5.4,15.5,0.1c4.4,6.5,9.4,7.2,14.1,0.2c0.2-0.2,0.3-0.5,0.5-0.6
		c1-0.9,2-1.9,3.2-2.5c4.2-2.1,8.9-1,11.8,2.7c1.1,1.4,2.3,2.9,3.6,4.1c1.8,1.6,3.9,1.5,6.1,0.6c2-0.9,2.3-2.5,2.3-4.5
		c-0.1-4.4,0-8.8,0-13.2c0-1.5,0-2.9,0-4.5c1,0,1.8,0,2.9,0c0,5.4,0,10.8,0,16.3c5.4-4.6,11.5-3.7,15.5,1.8c0.5,0.7,1,1.3,1.5,1.9
		c3.1,3.6,6.7,3.6,9.8,0c1-1.1,1.7-2.5,2.7-3.5c4.4-4.7,11.9-3.9,15.4,1.5c1.5,2.4,3.3,4.5,6.5,4.6c2.8,0.1,4.6-1.5,6-3.6
		c2.8-4.2,6.6-6.2,11.8-5.4C270.1,529.2,270.1,521.8,270.1,514.2z M201.2,361.2c23.1,0,46,0,68.8,0c0-5.1,0-10.1,0-15.3
		c-2.5,0-4.9,0-7.5,0c0-8.5,0-16.8,0-25.2c-1.7,0-3.2,0-5,0c0,8.5,0,16.8,0,25.3c-4,0-7.8-0.1-11.6,0c-1.3,0-1.9-0.4-2.5-1.5
		c-2.6-4.6-5.2-9.1-8-13.9c-0.5,0.7-0.8,1.3-1.2,1.8c-2.2,3.8-4.5,7.6-6.6,11.4c-0.8,1.5-1.7,2.2-3.6,2.2
		c-6.9-0.1-13.8-0.1-20.7-0.1c-0.7,0-1.4,0-2.2,0C201.2,351.2,201.2,356.2,201.2,361.2z M173.8,529.7c0-10,0-19.7,0-29.3
		c-2.8,0-5.5,0-8.1,0c0,9.9,0,19.6,0,29.3C168.5,529.7,171.1,529.7,173.8,529.7z M154.5,529.7c2.8,0,5.4,0,8.1,0
		c0-9.8,0-19.5,0-29.3c-2.8,0-5.4,0-8.1,0C154.5,510.2,154.5,519.9,154.5,529.7z M254.6,338.2c-4.3-0.7-8.4-1.4-12.5-2
		c1.1,2,2.3,4.2,3.6,6.3c0.2,0.3,0.6,0.6,0.9,0.6c2.7,0.1,5.3,0,8,0C254.6,341.3,254.6,339.7,254.6,338.2z M244.1,333.8
		c3.4,0.4,6.3,0.8,9.3,1c0.4,0,1.2-0.6,1.2-0.9c0.1-2,0.1-4,0.1-5.7C251.2,330,248,331.8,244.1,333.8z"/>
	<path d="M312,561.4c0,1,0,1.8,0,2.7c-3.2-0.1-5.7-1.2-7.6-3.7c-1-1.3-2-2.6-3.1-3.7c-2.3-2.3-5.7-2.4-8-0.2c-1,1-1.9,2.1-2.7,3.3
		c-4.1,5.9-12.1,5.9-16.2,0c-0.7-1-1.4-2-2.3-2.8c-2.7-2.7-6.3-2.7-9,0c-1.6,1.6-2.8,3.5-4.4,5c-4.1,3.5-10.3,2.7-13.6-1.7
		c-0.9-1.2-1.8-2.4-2.9-3.4c-2.5-2.5-5.9-2.6-8.5-0.1c-1,0.9-1.8,2-2.6,3.1c-4.3,5.7-11.9,5.7-16.2,0c-0.8-1.1-1.7-2.2-2.6-3.1
		c-2.4-2.4-5.9-2.5-8.3-0.1c-1,0.9-1.8,2-2.6,3.1c-4.1,5.8-12,5.9-16.1,0c-0.3-0.5-0.7-1-1.1-1.5c-3.8-4.7-7.8-4.7-11.6,0
		c-0.9,1.1-1.8,2.4-2.9,3.4c-4.4,3.7-10.4,3-13.9-1.6c-0.9-1.2-1.8-2.4-2.9-3.4c-2.5-2.4-6-2.4-8.5,0c-1,0.9-1.8,2-2.6,3.1
		c-4.2,5.7-11.6,5.7-15.8,0.1c-1.7-2.2-3.2-4.5-6.3-5.1c-0.4-0.1-0.6-1.5-1-2.6c3.5-0.1,5.8,1.3,7.8,3.5c1.1,1.2,2,2.6,3.1,3.7
		c2.6,2.5,5.9,2.5,8.5,0c1.1-1.1,2.1-2.3,3-3.6c3.9-5,11.2-5,15.1-0.1c1,1.2,1.9,2.5,3,3.6c2.6,2.6,6,2.7,8.6,0.1
		c0.9-0.9,1.7-1.9,2.5-3c4.2-5.9,12.1-5.9,16.3,0c0,0.1,0.1,0.1,0.1,0.2c4.3,6.2,8.5,6.3,13.1,0.3c2.5-3.4,5.6-5.2,9.9-4.6
		c2.5,0.3,4.5,1.6,6.1,3.6c0.9,1.2,1.8,2.4,2.8,3.5c2.6,2.7,5.9,2.7,8.6,0c1-1,1.9-2.1,2.7-3.3c4.2-5.4,11.7-5.3,15.8,0.1
		c0.8,1.1,1.6,2.2,2.6,3.1c2.6,2.7,5.9,2.7,8.6,0.1c0.9-0.9,1.6-1.8,2.3-2.8c4.2-6,12.2-6,16.4,0c0.3,0.4,0.5,0.8,0.8,1.2
		c3.8,4.8,7.7,4.9,11.5,0.2c2.1-2.6,4.1-5.1,7.6-5.6c3.9-0.6,7,0.8,9.4,3.8C306.8,558.5,308.5,561,312,561.4z"/>
	<path class="st1" d="M181.7,529.7c-1.7,0-3.1,0-4.8,0c0-10.7,0-21.4,0-32.2c-8.6,0-16.9,0-25.5,0c0,10.6,0,21.3,0,32.1
		c-6.7,0-13.3,0-19.9,0c0-57,0-114.1,0-171.4c3.3,0,6.6-0.2,9.8,0.1c2.4,0.2,3.7-0.6,4.9-2.7c3.2-5.7,6.6-11.3,10.1-16.9
		c1.1-1.8,1.7-3.6,1.5-5.7c-0.1-1.8,0-3.6,0-5.6c4.5,0,8.9,0,13.6,0c0,2.3-0.1,4.6,0,7c0.1,1.1,0.3,2.3,0.9,3.2
		c3.7,6.4,7.6,12.8,11.4,19.2c0.7,1.2,1.5,1.7,2.9,1.7c3.8-0.1,7.5,0,11.4,0c0,50.9,0,101.7,0,152.6c-2.8,0-5.4,0-8.2,0
		c0,2.7,0,5.2,0,8c-2.7,0-5.3,0-8.1,0C181.7,522.7,181.7,526.1,181.7,529.7z M164.4,493.2c11.4,0,20.1-8.3,20.1-19.2
		c0.1-10.9-8.7-19.5-19.9-19.5c-11.7-0.1-20.4,8.2-20.4,19.3C144.2,484.8,152.9,493.1,164.4,493.2z M191.7,415.7
		c0-6.5,0-12.9,0-19.2c-4.3,0-8.6,0-12.8,0c0,6.5,0,12.8,0,19.2C183.3,415.7,187.4,415.7,191.7,415.7z M178.9,426
		c0,6.5,0,12.8,0,19.1c4.4,0,8.6,0,12.8,0c0-6.5,0-12.8,0-19.1C187.4,426,183.2,426,178.9,426z M191.7,385.8c0-6.4,0-12.8,0-19.1
		c-4.3,0-8.6,0-12.8,0c0,6.4,0,12.7,0,19.1C183.3,385.8,187.5,385.8,191.7,385.8z M150,415.7c0-6.5,0-12.8,0-19.3
		c-4.2,0-8.3,0-12.4,0c0,6.5,0,12.8,0,19.3C141.8,415.7,145.8,415.7,150,415.7z M150,445.1c0-6.4,0-12.7,0-19.1c-4.2,0-8.3,0-12.4,0
		c0,6.4,0,12.7,0,19.1C141.7,445.1,145.8,445.1,150,445.1z M137.6,366.7c0,6.5,0,12.8,0,19.2c4.2,0,8.3,0,12.4,0
		c0-6.4,0-12.7,0-19.2C145.8,366.7,141.8,366.7,137.6,366.7z M159,390.6c3.9,0,7.6,0,11.3,0c0-8,0-15.9,0-23.8c-3.8,0-7.5,0-11.3,0
		C159,374.7,159,382.6,159,390.6z M170.3,449.8c0-8,0-15.9,0-23.8c-3.8,0-7.5,0-11.3,0c0,8,0,15.8,0,23.8
		C162.8,449.8,166.5,449.8,170.3,449.8z M159,396.4c0,8.1,0,15.9,0,23.8c3.9,0,7.6,0,11.2,0c0-8,0-15.9,0-23.8
		C166.4,396.4,162.8,396.4,159,396.4z M160.5,343.2c0,5.3,0,10.4,0,15.5c2.8,0,5.5,0,8.1,0c0-5.3,0-10.3,0-15.5
		C165.8,343.2,163.2,343.2,160.5,343.2z"/>
	<path class="st1" d="M270.1,510.9c-22.9,0-45.8,0-68.8,0c0-48.8,0-97.5,0-146.4c22.9,0,45.8,0,68.8,0
		C270.1,413.3,270.1,462,270.1,510.9z M250,467.9c0,13,0,25.8,0,38.7c5.2,0,10.3,0,15.4,0c0-13,0-25.8,0-38.7
		C260.3,467.9,255.3,467.9,250,467.9z M221.2,506.6c0-13,0-25.8,0-38.6c-5.3,0-10.3,0-15.4,0c0,13,0,25.8,0,38.6
		C211,506.6,216.1,506.6,221.2,506.6z M243.3,506.6c0-13,0-25.8,0-38.7c-5.2,0-10.2,0-15.3,0c0,12.9,0,25.8,0,38.7
		C233.1,506.6,238.2,506.6,243.3,506.6z M250.1,429.3c0,10.1,0,20,0,29.9c5.2,0,10.2,0,15.4,0c0-10,0-19.9,0-29.9
		C260.3,429.3,255.3,429.3,250.1,429.3z M265.4,420.7c0-10.1,0-19.9,0-29.8c-5.2,0-10.3,0-15.4,0c0,10,0,19.9,0,29.8
		C255.2,420.7,260.2,420.7,265.4,420.7z M221.2,459.2c0-10.1,0-20,0-29.9c-5.2,0-10.3,0-15.4,0c0,10,0,19.9,0,29.9
		C211,459.2,216,459.2,221.2,459.2z M205.8,420.6c5.2,0,10.3,0,15.4,0c0-10,0-19.8,0-29.8c-5.2,0-10.3,0-15.4,0
		C205.8,400.8,205.8,410.7,205.8,420.6z M243.4,429.3c-5.3,0-10.3,0-15.4,0c0,10,0,19.9,0,29.9c5.2,0,10.3,0,15.4,0
		C243.4,449.2,243.4,439.3,243.4,429.3z M243.3,420.7c0-10.1,0-19.9,0-29.8c-5.2,0-10.3,0-15.4,0c0,10,0,19.8,0,29.8
		C233.1,420.7,238.2,420.7,243.3,420.7z M265.4,369.3c-5.2,0-10.3,0-15.4,0c0,4.6,0,9.1,0,13.6c5.2,0,10.3,0,15.4,0
		C265.4,378.3,265.4,373.9,265.4,369.3z M221.2,383c0-4.7,0-9.2,0-13.7c-5.2,0-10.3,0-15.4,0c0,4.6,0,9.1,0,13.7
		C211,383,216,383,221.2,383z M243.3,369.4c-5.2,0-10.3,0-15.3,0c0,4.7,0,9.1,0,13.6c5.2,0,10.2,0,15.4,0c0-4.2,0-8.4,0-12.5
		C243.4,370.1,243.4,369.8,243.3,369.4z"/>
	<path class="st1" d="M270.1,514.2c0,7.6,0,15,0,22.6c-5.2-0.8-9,1.2-11.8,5.4c-1.4,2.1-3.2,3.7-6,3.6c-3.2-0.1-4.9-2.3-6.5-4.6
		c-3.5-5.4-11-6.2-15.4-1.5c-1,1.1-1.7,2.4-2.7,3.5c-3.1,3.6-6.7,3.5-9.8,0c-0.5-0.6-1-1.3-1.5-1.9c-3.9-5.5-10.1-6.4-15.5-1.8
		c0-5.6,0-10.9,0-16.3c-1,0-1.8,0-2.9,0c0,1.5,0,3,0,4.5c0,4.4-0.1,8.8,0,13.2c0.1,2-0.2,3.6-2.3,4.5c-2.1,0.9-4.3,1-6.1-0.6
		c-1.3-1.2-2.5-2.7-3.6-4.1c-2.9-3.7-7.6-4.9-11.8-2.7c-1.2,0.6-2.1,1.6-3.2,2.5c-0.2,0.2-0.3,0.4-0.5,0.6
		c-4.7,6.9-9.7,6.3-14.1-0.2c-3.7-5.5-11.6-5.5-15.5-0.1c-1,1.3-2,2.5-3.2,3.7c-1.4,1.5-3.3,1.8-5.3,1.4c-0.6-0.1-1.3-1-1.4-1.5
		c-0.1-3.7-0.1-7.4-0.1-11.3c17.8,0,35.4,0,53.3,0c0-3.6,0-7.1,0-10.8c2.8,0,5.4,0,8,0c0-2.7,0-5.2,0-7.9
		C218.5,514.2,244.2,514.2,270.1,514.2z"/>
	<path class="st1" d="M201.2,361.2c0-5.1,0-10,0-15.3c0.8,0,1.5,0,2.2,0c6.9,0,13.8-0.1,20.7,0.1c1.9,0,2.7-0.6,3.6-2.2
		c2.1-3.9,4.4-7.6,6.6-11.4c0.3-0.6,0.7-1.1,1.2-1.8c2.7,4.8,5.4,9.3,8,13.9c0.6,1.1,1.3,1.5,2.5,1.5c3.8-0.1,7.6,0,11.6,0
		c0-8.5,0-16.8,0-25.3c1.8,0,3.3,0,5,0c0,8.4,0,16.7,0,25.2c2.6,0,5,0,7.5,0c0,5.2,0,10.2,0,15.3
		C247.2,361.2,224.3,361.2,201.2,361.2z M219.4,353.5c-3.7,0-7.1,0-10.7,0c0,0.9,0,1.8,0,2.7c3.6,0,7.1,0,10.7,0
		C219.4,355.3,219.4,354.5,219.4,353.5z M240.5,353.5c-3.7,0-7.2,0-10.6,0c0,1,0,1.8,0,2.7c3.6,0,7.1,0,10.6,0
		C240.5,355.3,240.5,354.5,240.5,353.5z M251,356.2c3.6,0,7,0,10.6,0c0-1,0-1.8,0-2.7c-3.6,0-7,0-10.6,0
		C251,354.5,251,355.3,251,356.2z"/>
	<path class="st1" d="M173.8,529.7c-2.7,0-5.3,0-8.1,0c0-9.7,0-19.4,0-29.3c2.6,0,5.3,0,8.1,0C173.8,510.1,173.8,519.8,173.8,529.7z
		"/>
	<path class="st1" d="M154.5,529.7c0-9.8,0-19.5,0-29.3c2.7,0,5.3,0,8.1,0c0,9.7,0,19.4,0,29.3C160,529.7,157.4,529.7,154.5,529.7z"
		/>
	<path class="st1" d="M254.6,338.2c0,1.4,0,3,0,4.9c-2.7,0-5.4,0-8,0c-0.3,0-0.7-0.3-0.9-0.6c-1.2-2.1-2.4-4.3-3.6-6.3
		C246.2,336.9,250.3,337.5,254.6,338.2z"/>
	<path class="st1" d="M244.1,333.8c3.8-2.1,7.1-3.8,10.5-5.6c0,1.7,0.1,3.7-0.1,5.7c0,0.4-0.8,1-1.2,0.9
		C250.4,334.6,247.5,334.2,244.1,333.8z"/>
	<path d="M164.4,493.2c-11.5,0-20.2-8.4-20.2-19.4c0-11.1,8.8-19.4,20.4-19.3c11.2,0.1,20,8.6,19.9,19.5
		C184.4,484.9,175.7,493.2,164.4,493.2z M147.2,473.7c0,9.2,7.4,16.5,16.7,16.4c9.4,0,16.8-7.2,16.9-16.3c0.1-9.2-7.5-16.4-17-16.4
		C154.4,457.5,147.2,464.5,147.2,473.7z"/>
	<path d="M191.7,415.7c-4.3,0-8.5,0-12.8,0c0-6.4,0-12.8,0-19.2c4.2,0,8.5,0,12.8,0C191.7,402.8,191.7,409.1,191.7,415.7z
		 M181.8,399.2c0,4.6,0,8.9,0,13.3c0.7,0,1.2,0,1.8,0c0-4.5,0-8.9,0-13.3C183,399.2,182.4,399.2,181.8,399.2z M187,399.2
		c0,4.6,0,8.9,0,13.3c0.7,0,1.3,0,1.9,0c0-4.5,0-8.9,0-13.3C188.2,399.2,187.6,399.2,187,399.2z"/>
	<path d="M178.9,426c4.3,0,8.5,0,12.8,0c0,6.3,0,12.7,0,19.1c-4.2,0-8.4,0-12.8,0C178.9,438.8,178.9,432.5,178.9,426z M181.8,428.8
		c0,4.6,0,8.9,0,13.4c0.7-0.1,1.3-0.1,1.8-0.2c0-4.5,0-8.9,0-13.3C183,428.8,182.5,428.8,181.8,428.8z M188.9,428.8
		c-0.8,0.1-1.4,0.1-1.9,0.2c0,4.5,0,8.8,0,13.3c0.7-0.1,1.3-0.1,1.9-0.2C188.9,437.6,188.9,433.3,188.9,428.8z"/>
	<path d="M191.7,385.8c-4.2,0-8.5,0-12.8,0c0-6.4,0-12.7,0-19.1c4.3,0,8.5,0,12.8,0C191.7,373.1,191.7,379.4,191.7,385.8z
		 M183.7,382.8c0-4.5,0-8.9,0-13.4c-0.7,0-1.3,0.1-1.9,0.1c0,4.5,0,8.9,0,13.3C182.5,382.8,183,382.8,183.7,382.8z M188.9,382.8
		c0-4.5,0-8.9,0-13.3c-0.7,0-1.3,0.1-1.9,0.1c0,4.5,0,8.8,0,13.2C187.6,382.8,188.2,382.8,188.9,382.8z"/>
	<path d="M150,415.7c-4.2,0-8.2,0-12.4,0c0-6.4,0-12.8,0-19.3c4.1,0,8.2,0,12.4,0C150,402.9,150,409.2,150,415.7z M142.2,399.3
		c-1.3-0.4-1.9-0.1-1.9,1.3c0.1,3.5,0.1,7,0,10.5c0,1.5,0.6,1.7,1.9,1.3C142.2,408,142.2,403.7,142.2,399.3z M147.1,399.3
		c-1.5-0.5-1.9,0-1.9,1.4c0.1,3.4,0,6.9,0,10.3c0,1.7,0,1.7,1.9,1.3C147.1,408,147.1,403.7,147.1,399.3z"/>
	<path d="M150,445.1c-4.2,0-8.3,0-12.4,0c0-6.4,0-12.7,0-19.1c4.2,0,8.2,0,12.4,0C150,432.4,150,438.7,150,445.1z M142.2,442.1
		c0-4.5,0-8.8,0-13.9c-0.9,0.8-1.8,1.2-1.8,1.6c-0.1,4.1-0.1,8.2-0.1,12.3C141.1,442.1,141.7,442.1,142.2,442.1z M147.1,442.1
		c0-4.5,0-8.8,0-13.1c-1.3-0.3-1.9-0.1-1.9,1.3c0.1,3.5,0.1,7,0,10.5C145.2,442.1,145.8,442.4,147.1,442.1z"/>
	<path d="M137.6,366.7c4.2,0,8.3,0,12.4,0c0,6.4,0,12.7,0,19.2c-4.2,0-8.2,0-12.4,0C137.6,379.4,137.6,373.2,137.6,366.7z
		 M142.2,382.8c0-4.5,0-8.8,0-13.1c-0.1-0.1-0.3-0.3-0.4-0.4c-0.5,0.4-1.3,0.9-1.4,1.3c-0.1,4-0.1,8.1-0.1,12.2
		C141.1,382.8,141.6,382.8,142.2,382.8z M147.1,382.8c0-4.5,0-8.8,0-13.2c-1.3-0.3-1.9-0.1-1.9,1.3c0.1,3.5,0.1,7,0,10.5
		C145.2,382.9,145.8,383.1,147.1,382.8z"/>
	<path d="M159,390.6c0-8,0-15.9,0-23.8c3.8,0,7.5,0,11.3,0c0,8,0,15.8,0,23.8C166.6,390.6,162.9,390.6,159,390.6z M167.4,369.7
		c-2,0-3.8,0-5.5,0c0,6.1,0,12.1,0,18c2,0,3.7,0,5.5,0C167.4,381.6,167.4,375.7,167.4,369.7z"/>
	<path d="M170.3,449.8c-3.8,0-7.5,0-11.3,0c0-8,0-15.8,0-23.8c3.8,0,7.4,0,11.3,0C170.3,433.9,170.3,441.8,170.3,449.8z
		 M167.4,428.9c-2,0-3.8,0-5.6,0c0,6.1,0,12,0,18c1.9,0,3.7,0,5.6,0C167.4,440.9,167.4,435,167.4,428.9z"/>
	<path d="M159,396.4c3.8,0,7.4,0,11.2,0c0,7.9,0,15.8,0,23.8c-3.6,0-7.4,0-11.2,0C159,412.3,159,404.5,159,396.4z M167.4,417.4
		c0-6.2,0-12.1,0-18.1c-2,0-3.7,0-5.5,0c0,6.1,0,12.1,0,18.1C163.8,417.4,165.5,417.4,167.4,417.4z"/>
	<path d="M160.5,343.2c2.8,0,5.3,0,8.1,0c0,5.1,0,10.2,0,15.5c-2.6,0-5.3,0-8.1,0C160.5,353.6,160.5,348.5,160.5,343.2z
		 M163.5,346.1c0,3.2,0,6.4,0,9.5c0.8,0,1.5,0,2.2,0c0-3.3,0-6.4,0-9.5C164.9,346.1,164.2,346.1,163.5,346.1z"/>
	<path d="M250,467.9c5.2,0,10.3,0,15.4,0c0,12.9,0,25.7,0,38.7c-5.2,0-10.2,0-15.4,0C250,493.7,250,480.9,250,467.9z M252.9,485.6
		c1.2,0,2.2,0,3.3,0c0-5,0-9.9,0-14.8c-1.1,0-2.2,0-3.3,0C252.9,475.7,252.9,480.6,252.9,485.6z M262.5,485.6c0-5.1,0-10,0-14.8
		c-1.1,0-2.1,0-3.1,0c0,5,0,9.9,0,14.8C260.4,485.6,261.4,485.6,262.5,485.6z M253,488.6c0,5.1,0,10,0,14.9c1.2,0,2.1,0,3,0
		c0-5.1,0-9.9,0-14.9C254.9,488.6,254,488.6,253,488.6z M262.4,503.6c0-5.1,0-10,0-14.9c-1.1,0-2.1,0-3.1,0c0,5,0,9.9,0,14.9
		C260.4,503.6,261.3,503.6,262.4,503.6z"/>
	<path d="M221.2,506.6c-5.2,0-10.2,0-15.4,0c0-12.9,0-25.7,0-38.6c5,0,10.1,0,15.4,0C221.2,480.8,221.2,493.6,221.2,506.6z
		 M211.9,470.8c-1.2,0-2.1,0-3.1,0c0,5,0,9.8,0,14.7c1.1,0,2.1,0,3.1,0C211.9,480.6,211.9,475.7,211.9,470.8z M211.8,488.7
		c-1.2,0-2.2,0-3.2,0c0,4.3,0,8.4,0,12.5c0,2.8,0.1,2.9,3.2,2.3C211.8,498.6,211.8,493.7,211.8,488.7z M215.1,470.7
		c0,5.1,0,10,0,14.8c1.1,0,2.1,0,3.1,0c0-5,0-9.9,0-14.8C217.1,470.7,216.2,470.7,215.1,470.7z M218.1,503.6c0-5.1,0-10,0-14.9
		c-1.1,0-2,0-3.1,0c0,5,0,9.9,0,14.9C216.1,503.6,217.1,503.6,218.1,503.6z"/>
	<path d="M243.3,506.6c-5.1,0-10.2,0-15.3,0c0-12.9,0-25.7,0-38.7c5.1,0,10.1,0,15.3,0C243.3,480.8,243.3,493.6,243.3,506.6z
		 M240.4,485.6c0-5,0-9.8,0-14.8c-1.1,0-2.1,0-3.2,0c0,5,0,9.9,0,14.8C238.4,485.6,239.3,485.6,240.4,485.6z M230.9,470.7
		c0,5.1,0,10,0,14.9c1.2,0,2.1,0,3.2,0c0-5,0-9.9,0-14.9C233.1,470.7,232.1,470.7,230.9,470.7z M234.1,503.6c0-5,0-10,0-14.9
		c-1.2,0-2.3,0-3.3,0c0,5.1,0,9.9,0,14.9C232,503.6,233,503.6,234.1,503.6z M240.4,503.5c0-5,0-9.9,0-14.9c-1.1,0-2.1,0-3.3,0
		c0,0.8-0.1,1.5-0.1,2.2c0,3.3,0,6.6,0,9.9C237.1,503.9,237.1,503.9,240.4,503.5z"/>
	<path d="M250.1,429.3c5.2,0,10.3,0,15.4,0c0,10,0,19.9,0,29.9c-5.2,0-10.2,0-15.4,0C250.1,449.3,250.1,439.4,250.1,429.3z
		 M259.3,442.5c1.1,0,2.1,0,3.1,0c0-3.5,0-6.9,0-10.4c-1.1,0-2.1,0-3.1,0C259.3,435.6,259.3,439,259.3,442.5z M252.9,432.2
		c0,3.5,0,6.9,0,10.4c1.1,0,2.1,0,3,0c0-3.6,0-7,0-10.4C254.9,432.2,254,432.2,252.9,432.2z M262.4,456.3c0-3.6,0-7.1,0-10.5
		c-1.1,0-2.1,0-3.1,0c0,3.6,0,7,0,10.5C260.3,456.3,261.3,456.3,262.4,456.3z M252.9,445.7c0,3.7,0,7.1,0,10.6c1.1,0,2.1,0,3.1,0
		c0-3.6,0-7,0-10.6C254.9,445.7,253.9,445.7,252.9,445.7z"/>
	<path d="M265.4,420.7c-5.2,0-10.3,0-15.4,0c0-9.9,0-19.8,0-29.8c5.1,0,10.2,0,15.4,0C265.4,400.8,265.4,410.6,265.4,420.7z
		 M252.9,404.3c1.2,0,2.2,0,3.3,0c0-3.6,0-7.1,0-10.7c-1.1,0-2.2,0-3.3,0C252.9,397.2,252.9,400.7,252.9,404.3z M262.5,393.6
		c-1.1,0-2.1,0-3.1,0c0,3.6,0,7.2,0,10.7c1.1,0,2.1,0,3.1,0C262.5,400.7,262.5,397.2,262.5,393.6z M256,417.7c0-3.6,0-6.9,0-10.2
		c-1.2,0-2.1,0-3,0c0,3.5,0,6.9,0,10.2C254,417.7,254.9,417.7,256,417.7z M259.3,407.6c0,3.5,0,6.8,0,10.1c1.1,0,2.1,0,3.1,0
		c0-3.4,0-6.7,0-10.1C261.4,407.6,260.4,407.6,259.3,407.6z"/>
	<path d="M221.2,459.2c-5.2,0-10.2,0-15.4,0c0-10,0-19.9,0-29.9c5.1,0,10.2,0,15.4,0C221.2,439.2,221.2,449.1,221.2,459.2z
		 M208.8,442.5c1.1,0,2,0,3.1,0c0-3.5,0-6.9,0-10.4c-1.1,0-2,0-3.1,0C208.8,435.6,208.8,439,208.8,442.5z M208.7,445.8
		c0,3.6,0,7,0,10.6c1.1,0,2.1,0,3.1,0c0-3.6,0-7,0-10.6C210.7,445.8,209.7,445.8,208.7,445.8z M215,445.8c0,3.7,0,7.1,0,10.5
		c1.1,0,2.1,0,3.1,0c0-3.6,0-7,0-10.5C217,445.8,216.1,445.8,215,445.8z M215.1,432.2c0,3.6,0,7,0,10.4c1.1,0,2,0,3.1,0
		c0-3.5,0-6.9,0-10.4C217.2,432.2,216.2,432.2,215.1,432.2z"/>
	<path d="M205.8,420.6c0-9.9,0-19.8,0-29.8c5.1,0,10.2,0,15.4,0c0,9.9,0,19.8,0,29.8C216.1,420.6,211,420.6,205.8,420.6z
		 M208.8,393.6c0,3.7,0,7.3,0,10.8c1.1,0,2,0,3,0c0-3.6,0-7.2,0-10.8C210.8,393.6,209.9,393.6,208.8,393.6z M211.8,417.8
		c0-3.6,0-6.9,0-10.2c-1.2,0-2.2,0-3.1,0c0,3.5,0,6.8,0,10.2C209.8,417.8,210.7,417.8,211.8,417.8z M215.1,393.6c0,3.7,0,7.2,0,10.8
		c1.1,0,2,0,3.1,0c0-3.6,0-7.2,0-10.8C217.2,393.6,216.2,393.6,215.1,393.6z M218.1,417.8c0-3.5,0-6.8,0-10.2c-1.1,0-2,0-3.1,0
		c0,3.4,0,6.8,0,10.2C216.1,417.8,217,417.8,218.1,417.8z"/>
	<path d="M243.4,429.3c0,10,0,19.8,0,29.9c-5.1,0-10.2,0-15.4,0c0-10,0-19.8,0-29.9C233.1,429.3,238.1,429.3,243.4,429.3z
		 M234.2,442.6c0-3.6,0-7,0-10.4c-1.2,0-2.2,0-3.3,0c0,3.5,0,6.9,0,10.4C232,442.6,233,442.6,234.2,442.6z M237.2,432.1
		c0,3.6,0,7,0,10.4c1.1,0,2.1,0,3.2,0c0-3.5,0-6.9,0-10.4C239.3,432.1,238.3,432.1,237.2,432.1z M237.3,445.8c0,3.7,0,7.1,0,10.5
		c1.2,0,2.1,0,3.1,0c0-3.6,0-7,0-10.5C239.3,445.8,238.4,445.8,237.3,445.8z M230.9,445.8c0,3.6,0,7.1,0,10.6c1.2,0,2.2,0,3.3,0
		c0-3.5,0-7,0-10.6C233,445.8,232,445.8,230.9,445.8z"/>
	<path d="M243.3,420.7c-5.2,0-10.2,0-15.4,0c0-9.9,0-19.8,0-29.8c5.1,0,10.2,0,15.4,0C243.3,400.7,243.3,410.6,243.3,420.7z
		 M237.2,393.6c0,3.7,0,7.2,0,10.8c1.1,0,2.1,0,3.2,0c0-3.6,0-7.1,0-10.8C239.3,393.6,238.4,393.6,237.2,393.6z M230.9,393.6
		c0,3.6,0,7.2,0,10.7c1.2,0,2.2,0,3.2,0c0-3.7,0-7.2,0-10.7C233,393.6,232,393.6,230.9,393.6z M234.1,417.7c0-3.5,0-6.9,0-10.2
		c-1.2,0-2.3,0-3.3,0c0,3.5,0,6.8,0,10.2C232,417.7,233,417.7,234.1,417.7z M237.2,417.8c1.2,0,2.2,0,3.2,0c0-3.4,0-6.8,0-10.1
		c-1.1,0-2.1,0-3.2,0C237.2,411.1,237.2,414.3,237.2,417.8z"/>
	<path d="M265.4,369.3c0,4.5,0,9,0,13.6c-5.2,0-10.3,0-15.4,0c0-4.6,0-9,0-13.6C255.1,369.3,260.2,369.3,265.4,369.3z M256,372.3
		c-1.2,0-2.2,0-3.1,0c0,2.7,0,5.2,0,7.8c1.1,0,2,0,3.1,0C256,377.5,256,375,256,372.3z M259.4,372.3c0,2.7,0,5.3,0,7.8
		c1.1,0,2.1,0,3.1,0c0-2.7,0-5.2,0-7.8C261.4,372.3,260.5,372.3,259.4,372.3z"/>
	<path d="M221.2,383c-5.2,0-10.2,0-15.4,0c0-4.6,0-9,0-13.7c5.1,0,10.1,0,15.4,0C221.2,373.8,221.2,378.3,221.2,383z M211.8,372.5
		c-1.1,0-2.1,0-3,0c0,2.7,0,5.2,0,7.9c1.1,0,2,0,3,0C211.8,377.7,211.8,375.1,211.8,372.5z M215.1,380.2c1.2,0,2.2,0,3.1,0
		c0-2.7,0-5.3,0-7.9c-1.1,0-2.1,0-3.1,0C215.1,375,215.1,377.6,215.1,380.2z"/>
	<path d="M243.3,369.4c0,0.4,0.1,0.8,0.1,1.2c0,4.1,0,8.2,0,12.5c-5.2,0-10.2,0-15.4,0c0-4.5,0-9,0-13.6
		C233.1,369.4,238.1,369.4,243.3,369.4z M230.9,380.3c1.2,0,2.2,0,3.2,0c0-2.7,0-5.3,0-7.9c-1.2,0-2.1,0-3.2,0
		C230.9,375,230.9,377.5,230.9,380.3z M240.4,380.3c0-2.8,0-5.4,0-8.1c-1.1,0-2.1,0-3.1,0c0,2.7,0,5.4,0,8.1
		C238.4,380.3,239.3,380.3,240.4,380.3z"/>
	<path d="M219.4,353.5c0,1,0,1.8,0,2.7c-3.6,0-7.1,0-10.7,0c0-0.9,0-1.8,0-2.7C212.2,353.5,215.7,353.5,219.4,353.5z"/>
	<path d="M240.5,353.5c0,0.9,0,1.7,0,2.7c-3.5,0-7,0-10.6,0c0-0.9,0-1.7,0-2.7C233.3,353.5,236.8,353.5,240.5,353.5z"/>
	<path d="M251,356.2c0-0.9,0-1.8,0-2.7c3.5,0,7,0,10.6,0c0,0.9,0,1.8,0,2.7C258.1,356.2,254.6,356.2,251,356.2z"/>
	<path class="st1" d="M147.2,473.7c0-9.2,7.2-16.3,16.6-16.3c9.6,0,17.1,7.2,17,16.4c-0.1,9.1-7.5,16.3-16.9,16.3
		C154.5,490.2,147.1,483,147.2,473.7z M165.9,488.9c4.3,0,9.3-2.2,12.4-7.8c2.9-5.4,2.6-10.8-0.8-15.9c-3.6-5.3-8.9-6.9-15-6.5
		c-5.4,0.3-9.6,2.6-12.4,7.2c-3.1,5.1-3.1,10.4-0.2,15.6C153,486.8,158,488.9,165.9,488.9z"/>
	<path class="st1" d="M181.8,399.2c0.6,0,1.2,0,1.8,0c0,4.4,0,8.8,0,13.3c-0.6,0-1.2,0-1.8,0C181.8,408.1,181.8,403.8,181.8,399.2z"
		/>
	<path class="st1" d="M187,399.2c0.7,0,1.2,0,1.9,0c0,4.4,0,8.8,0,13.3c-0.6,0-1.2,0-1.9,0C187,408.1,187,403.8,187,399.2z"/>
	<path class="st1" d="M181.8,428.8c0.6,0,1.2,0,1.8,0c0,4.4,0,8.7,0,13.3c-0.5,0-1.1,0.1-1.8,0.2
		C181.8,437.8,181.8,433.4,181.8,428.8z"/>
	<path class="st1" d="M188.9,428.8c0,4.6,0,8.8,0,13.3c-0.6,0.1-1.2,0.1-1.9,0.2c0-4.5,0-8.8,0-13.3
		C187.5,428.9,188.1,428.8,188.9,428.8z"/>
	<path class="st1" d="M183.7,382.8c-0.7,0-1.2,0-1.9,0c0-4.4,0-8.8,0-13.3c0.6,0,1.2-0.1,1.9-0.1C183.7,374,183.7,378.3,183.7,382.8
		z"/>
	<path class="st1" d="M188.9,382.8c-0.7,0-1.2,0-1.9,0c0-4.4,0-8.7,0-13.2c0.6,0,1.2-0.1,1.9-0.1C188.9,374,188.9,378.3,188.9,382.8
		z"/>
	<path class="st1" d="M142.2,399.3c0,4.4,0,8.7,0,13.1c-1.3,0.4-1.9,0.2-1.9-1.3c0.1-3.5,0.1-7,0-10.5
		C140.3,399.2,140.9,398.9,142.2,399.3z"/>
	<path class="st1" d="M147.1,399.3c0,4.4,0,8.7,0,13c-1.8,0.3-1.9,0.3-1.9-1.3c0-3.4,0-6.9,0-10.3
		C145.2,399.3,145.6,398.8,147.1,399.3z"/>
	<path class="st1" d="M142.2,442.1c-0.6,0-1.1,0-1.8,0c0-4.1,0-8.2,0.1-12.3c0-0.4,0.9-0.8,1.8-1.6
		C142.2,433.2,142.2,437.6,142.2,442.1z"/>
	<path class="st1" d="M147.1,442.1c-1.3,0.3-1.9,0.1-1.9-1.3c0.1-3.5,0.1-7,0-10.5c0-1.4,0.6-1.6,1.9-1.3
		C147.1,433.2,147.1,437.6,147.1,442.1z"/>
	<path class="st1" d="M142.2,382.8c-0.6,0-1.2,0-1.9,0c0-4.1,0-8.2,0.1-12.2c0-0.5,0.9-0.9,1.4-1.3c0.1,0.1,0.3,0.3,0.4,0.4
		C142.2,374,142.2,378.3,142.2,382.8z"/>
	<path class="st1" d="M147.1,382.8c-1.3,0.3-1.9,0.1-1.9-1.3c0.1-3.5,0.1-7,0-10.5c0-1.4,0.6-1.6,1.9-1.3
		C147.1,374,147.1,378.3,147.1,382.8z"/>
	<path class="st1" d="M167.4,369.7c0,6,0,11.9,0,18c-1.8,0-3.6,0-5.5,0c0-5.9,0-11.9,0-18C163.6,369.7,165.4,369.7,167.4,369.7z"/>
	<path class="st1" d="M167.4,428.9c0,6.1,0,12,0,18c-1.8,0-3.6,0-5.6,0c0-6,0-11.9,0-18C163.6,428.9,165.4,428.9,167.4,428.9z"/>
	<path class="st1" d="M167.4,417.4c-1.9,0-3.6,0-5.5,0c0-6,0-12,0-18.1c1.8,0,3.5,0,5.5,0C167.4,405.2,167.4,411.2,167.4,417.4z"/>
	<path class="st1" d="M163.5,346.1c0.8,0,1.4,0,2.2,0c0,3.1,0,6.2,0,9.5c-0.7,0-1.4,0-2.2,0C163.5,352.4,163.5,349.3,163.5,346.1z"
		/>
	<path class="st1" d="M252.9,485.6c0-5,0-9.8,0-14.8c1.1,0,2.1,0,3.3,0c0,4.9,0,9.8,0,14.8C255.1,485.6,254.1,485.6,252.9,485.6z"/>
	<path class="st1" d="M262.5,485.6c-1.1,0-2,0-3.1,0c0-4.9,0-9.8,0-14.8c1,0,1.9,0,3.1,0C262.5,475.6,262.5,480.5,262.5,485.6z"/>
	<path class="st1" d="M253,488.6c0.9,0,1.9,0,3,0c0,5,0,9.8,0,14.9c-0.9,0-1.8,0-3,0C253,498.7,253,493.8,253,488.6z"/>
	<path class="st1" d="M262.4,503.6c-1.1,0-2,0-3.1,0c0-5,0-9.9,0-14.9c1,0,2,0,3.1,0C262.4,493.6,262.4,498.5,262.4,503.6z"/>
	<path class="st1" d="M211.9,470.8c0,4.9,0,9.8,0,14.7c-1.1,0-2,0-3.1,0c0-4.9,0-9.7,0-14.7C209.7,470.8,210.7,470.8,211.9,470.8z"
		/>
	<path class="st1" d="M211.8,488.7c0,5,0,9.9,0,14.7c-3.1,0.6-3.2,0.5-3.2-2.3c0-4.1,0-8.2,0-12.5
		C209.6,488.7,210.6,488.7,211.8,488.7z"/>
	<path class="st1" d="M215.1,470.7c1.1,0,2,0,3.1,0c0,4.9,0,9.8,0,14.8c-1,0-2,0-3.1,0C215.1,480.7,215.1,475.8,215.1,470.7z"/>
	<path class="st1" d="M218.1,503.6c-1,0-2,0-3.1,0c0-5,0-9.9,0-14.9c1,0,2,0,3.1,0C218.1,493.6,218.1,498.5,218.1,503.6z"/>
	<path class="st1" d="M240.4,485.6c-1.1,0-2.1,0-3.2,0c0-4.9,0-9.8,0-14.8c1.1,0,2.1,0,3.2,0C240.4,475.7,240.4,480.6,240.4,485.6z"
		/>
	<path class="st1" d="M230.9,470.7c1.1,0,2.1,0,3.2,0c0,5,0,9.9,0,14.9c-1.1,0-2.1,0-3.2,0C230.9,480.7,230.9,475.8,230.9,470.7z"/>
	<path class="st1" d="M234.1,503.6c-1.1,0-2.1,0-3.3,0c0-4.9,0-9.8,0-14.9c1,0,2.1,0,3.3,0C234.1,493.6,234.1,498.6,234.1,503.6z"/>
	<path class="st1" d="M240.4,503.5c-3.3,0.4-3.3,0.4-3.3-2.7c0-3.3,0-6.6,0-9.9c0-0.7,0.1-1.4,0.1-2.2c1.2,0,2.2,0,3.3,0
		C240.4,493.7,240.4,498.6,240.4,503.5z"/>
	<path class="st1" d="M259.3,442.5c0-3.5,0-6.9,0-10.4c1.1,0,2,0,3.1,0c0,3.4,0,6.8,0,10.4C261.4,442.5,260.4,442.5,259.3,442.5z"/>
	<path class="st1" d="M252.9,432.2c1,0,1.9,0,3,0c0,3.4,0,6.8,0,10.4c-1,0-1.9,0-3,0C252.9,439.1,252.9,435.7,252.9,432.2z"/>
	<path class="st1" d="M262.4,456.3c-1.1,0-2,0-3.1,0c0-3.5,0-6.9,0-10.5c1,0,2,0,3.1,0C262.4,449.3,262.4,452.7,262.4,456.3z"/>
	<path class="st1" d="M252.9,445.7c1,0,2,0,3.1,0c0,3.5,0,7,0,10.6c-1,0-2,0-3.1,0C252.9,452.8,252.9,449.4,252.9,445.7z"/>
	<path class="st1" d="M252.9,404.3c0-3.6,0-7.1,0-10.7c1.1,0,2.2,0,3.3,0c0,3.6,0,7,0,10.7C255.2,404.3,254.1,404.3,252.9,404.3z"/>
	<path class="st1" d="M262.5,393.6c0,3.6,0,7.1,0,10.7c-1.1,0-2,0-3.1,0c0-3.6,0-7.1,0-10.7C260.4,393.6,261.3,393.6,262.5,393.6z"
		/>
	<path class="st1" d="M256,417.7c-1,0-1.9,0-3,0c0-3.4,0-6.7,0-10.2c0.9,0,1.9,0,3,0C256,410.8,256,414.2,256,417.7z"/>
	<path class="st1" d="M259.3,407.6c1.1,0,2.1,0,3.1,0c0,3.4,0,6.7,0,10.1c-1,0-1.9,0-3.1,0C259.3,414.4,259.3,411.1,259.3,407.6z"/>
	<path class="st1" d="M208.8,442.5c0-3.5,0-6.9,0-10.4c1.1,0,2,0,3.1,0c0,3.5,0,6.9,0,10.4C210.8,442.5,209.8,442.5,208.8,442.5z"/>
	<path class="st1" d="M208.7,445.8c1,0,2,0,3.1,0c0,3.5,0,7,0,10.6c-1,0-2,0-3.1,0C208.7,452.8,208.7,449.4,208.7,445.8z"/>
	<path class="st1" d="M215,445.8c1.1,0,2,0,3.1,0c0,3.5,0,6.9,0,10.5c-1,0-2,0-3.1,0C215,452.9,215,449.4,215,445.8z"/>
	<path class="st1" d="M215.1,432.2c1.1,0,2.1,0,3.1,0c0,3.5,0,6.9,0,10.4c-1.1,0-2,0-3.1,0C215.1,439.2,215.1,435.8,215.1,432.2z"/>
	<path class="st1" d="M208.8,393.6c1.1,0,2,0,3,0c0,3.6,0,7.2,0,10.8c-1,0-1.9,0-3,0C208.8,400.8,208.8,397.3,208.8,393.6z"/>
	<path class="st1" d="M211.8,417.8c-1.1,0-2,0-3.1,0c0-3.4,0-6.7,0-10.2c0.9,0,2,0,3.1,0C211.8,410.9,211.8,414.2,211.8,417.8z"/>
	<path class="st1" d="M215.1,393.6c1.1,0,2.1,0,3.1,0c0,3.6,0,7.1,0,10.8c-1.1,0-2.1,0-3.1,0C215.1,400.7,215.1,397.2,215.1,393.6z"
		/>
	<path class="st1" d="M218.1,417.8c-1.1,0-2,0-3.1,0c0-3.4,0-6.7,0-10.2c1,0,2,0,3.1,0C218.1,411,218.1,414.3,218.1,417.8z"/>
	<path class="st1" d="M234.2,442.6c-1.2,0-2.1,0-3.3,0c0-3.5,0-6.9,0-10.4c1,0,2.1,0,3.3,0C234.2,435.6,234.2,439,234.2,442.6z"/>
	<path class="st1" d="M237.2,432.1c1.1,0,2.1,0,3.2,0c0,3.5,0,6.9,0,10.4c-1.1,0-2,0-3.2,0C237.2,439.1,237.2,435.7,237.2,432.1z"/>
	<path class="st1" d="M237.3,445.8c1.1,0,2.1,0,3.1,0c0,3.5,0,7,0,10.5c-1,0-2,0-3.1,0C237.3,452.9,237.3,449.4,237.3,445.8z"/>
	<path class="st1" d="M230.9,445.8c1.2,0,2.1,0,3.3,0c0,3.6,0,7,0,10.6c-1.1,0-2.1,0-3.3,0C230.9,452.9,230.9,449.4,230.9,445.8z"/>
	<path class="st1" d="M237.2,393.6c1.1,0,2.1,0,3.2,0c0,3.6,0,7.1,0,10.8c-1.1,0-2.1,0-3.2,0C237.2,400.8,237.2,397.3,237.2,393.6z"
		/>
	<path class="st1" d="M230.9,393.6c1.1,0,2.1,0,3.2,0c0,3.5,0,7.1,0,10.7c-1,0-2.1,0-3.2,0C230.9,400.7,230.9,397.2,230.9,393.6z"/>
	<path class="st1" d="M234.1,417.7c-1.1,0-2.1,0-3.3,0c0-3.4,0-6.7,0-10.2c1,0,2.1,0,3.3,0C234.1,410.8,234.1,414.2,234.1,417.7z"/>
	<path class="st1" d="M237.2,417.8c0-3.4,0-6.7,0-10.1c1.1,0,2.1,0,3.2,0c0,3.3,0,6.7,0,10.1C239.4,417.8,238.4,417.8,237.2,417.8z"
		/>
	<path class="st1" d="M256,372.3c0,2.6,0,5.2,0,7.8c-1,0-2,0-3.1,0c0-2.6,0-5.1,0-7.8C253.8,372.3,254.8,372.3,256,372.3z"/>
	<path class="st1" d="M259.4,372.3c1.1,0,2,0,3.1,0c0,2.6,0,5.2,0,7.8c-1,0-2,0-3.1,0C259.4,377.5,259.4,375,259.4,372.3z"/>
	<path class="st1" d="M211.8,372.5c0,2.6,0,5.2,0,7.9c-1.1,0-2,0-3,0c0-2.6,0-5.2,0-7.9C209.8,372.5,210.7,372.5,211.8,372.5z"/>
	<path class="st1" d="M215.1,380.2c0-2.6,0-5.2,0-7.9c1,0,2,0,3.1,0c0,2.6,0,5.2,0,7.9C217.3,380.2,216.3,380.2,215.1,380.2z"/>
	<path class="st1" d="M230.9,380.3c0-2.7,0-5.2,0-7.9c1.1,0,2.1,0,3.2,0c0,2.6,0,5.2,0,7.9C233.1,380.3,232.1,380.3,230.9,380.3z"/>
	<path class="st1" d="M240.4,380.3c-1.1,0-2,0-3.1,0c0-2.7,0-5.3,0-8.1c1.1,0,2,0,3.1,0C240.4,374.9,240.4,377.5,240.4,380.3z"/>
	<path d="M165.9,488.9c-8,0-13-2.1-16-7.5c-3-5.2-2.9-10.5,0.2-15.6c2.8-4.6,7-6.9,12.4-7.2c6.2-0.4,11.4,1.3,15,6.5
		c3.4,5.1,3.7,10.5,0.8,15.9C175.3,486.7,170.2,488.9,165.9,488.9z M162.5,472.2c0-3.6,0-7,0-10.4c-5.6,0.1-11.1,5.5-10.7,10.4
		C155.3,472.2,158.8,472.2,162.5,472.2z M176.4,472.2c-0.7-5.8-5.1-9.9-10.7-10.3c0,3.4,0,6.8,0,10.3
		C169.3,472.2,172.8,472.2,176.4,472.2z M162.5,475.5c-3.8,0-7.3,0-10.8,0c0.3,5.4,5.5,10.3,10.8,10.2
		C162.5,482.3,162.5,479,162.5,475.5z M176.3,475.3c-3.3,0-6.6,0-9.8,0c-0.3,0-0.9,0.6-0.9,1c-0.1,3.1,0,6.2,0,9.2
		C170.8,485.8,175.8,480.9,176.3,475.3z"/>
	<path class="st1" d="M162.5,472.2c-3.7,0-7.2,0-10.7,0c-0.4-4.9,5.1-10.3,10.7-10.4C162.5,465.2,162.5,468.6,162.5,472.2z"/>
	<path class="st1" d="M176.4,472.2c-3.6,0-7.1,0-10.7,0c0-3.5,0-6.9,0-10.3C171.3,462.3,175.7,466.5,176.4,472.2z"/>
	<path class="st1" d="M162.5,475.5c0,3.5,0,6.8,0,10.2c-5.3,0.1-10.6-4.8-10.8-10.2C155.2,475.5,158.7,475.5,162.5,475.5z"/>
	<path class="st1" d="M176.3,475.3c-0.5,5.6-5.5,10.4-10.8,10.3c0-3.1,0-6.1,0-9.2c0-0.4,0.6-1,0.9-1
		C169.8,475.3,173,475.3,176.3,475.3z"/>
</g>
</svg>
