<?xml version="1.0" encoding="utf-8"?>
<!-- Generator: Adobe Illustrator 21.0.0, SVG Export Plug-In . SVG Version: 6.00 Build 0)  -->
<svg version="1.1" id="Calque_1" xmlns="http://www.w3.org/2000/svg" xmlns:xlink="http://www.w3.org/1999/xlink" x="0px" y="0px"
	 viewBox="0 0 692 940" style="enable-background:new 0 0 692 940;" xml:space="preserve">
<style type="text/css">
	.st0{fill:#FFFFFF;stroke:#000000;stroke-width:6;stroke-miterlimit:10;}
	.st1{fill:#CF00DD;}
	.st2{fill:#F9F9F9;}
</style>
<path class="st0" d="M524,758h52c56.7,0,103-46.3,103-103V125c0-56.7-46.3-103-103-103H112C55.3,22,9,68.3,9,125v530
	c0,56.7,46.3,103,103,103h238l162,160l-8-160H524z"/>
<g>
	<path class="st1" d="M48.9,328.3c0.2-45.8,14-86.9,44-121.7c27-31.4,60.9-51.6,102.2-58.2c47.6-7.7,89,5.8,125.1,37.1
		c7.6,6.6,14.5,14,20.8,21.8c2.2,2.8,3.5,3.1,5.9,0.1c24.4-30.7,55.5-51.2,94.2-58.6c36.7-7.1,71.6-0.5,104.2,17.5
		c50.1,27.7,80.1,70.4,90.5,126.4c8.9,47.5-0.3,92.3-23.3,134.5c-20,36.8-47.2,67.7-77.6,96.1c-33.7,31.4-70.9,58.3-107,86.6
		c-25.2,19.8-51.3,38.7-74,61.5c-6.2,6.2-13,6.4-19.2,0.5c-28.8-27.6-61.6-50.3-92.6-75.3c-40.8-32.9-82.5-64.7-118.4-103.2
		C97,465,74.6,433.8,61,396.9C52.3,373.3,49,353.8,48.9,328.3z"/>
	<path class="st2" d="M345.2,281.6c3.1,0,6.3-0.1,9.4,0c4.4,0.2,7,2.6,7.1,7.1c0.1,5.4,0.2,10.7,0,16.1c-0.1,3,0.4,4.3,3.8,4.7
		c11.3,1.3,22.2,4.1,32.4,9.3c5,2.5,5.8,4.6,3.7,9.9c-1.9,4.7-3.8,9.3-5.8,13.9c-3,7.1-6.3,8.5-13.3,5c-11.2-5.5-23.1-8.1-35.5-8
		c-5.5,0-10.9,0.9-15.9,3.5c-12.1,6.3-13.3,20.3-2.4,28.4c7.8,5.7,16.8,9.1,25.8,12.4c13.9,5.1,27.4,10.9,38.9,20.6
		c23.2,19.6,22.5,58.6-5.2,77.8c-7.5,5.2-15.5,9-24.3,11c-3.3,0.8-4.2,2.2-4.1,5.4c0.3,6,0.1,12,0.1,18c-0.1,5.6-2.5,8-8.1,8
		c-6,0.1-12,0.1-18,0c-5.6-0.1-7.9-2.4-7.9-8.1c-0.1-5.5-0.2-11,0-16.5c0.1-2.7-0.5-3.8-3.4-4.1c-12.1-1.2-23.8-4-34.9-9.1
		c-1.8-0.9-3.7-1.8-5.4-2.8c-4-2.3-5.4-5.3-3.4-9.8c2.2-4.8,4.1-9.9,6.1-14.8c2.6-6.5,6-7.9,12.1-4.6c13.7,7.3,28.3,11.1,43.9,10.3
		c6.5-0.3,12.8-1.5,18.3-5.2c11.8-7.9,12.6-22.8,1.6-31.9c-6.9-5.7-15-9.2-23.3-12.1c-12.6-4.4-24.9-9.5-36-17.1
		c-31-21.1-26.6-62.1,3.9-79.4c5.7-3.3,11.7-6.2,18.2-7.4c3.3-0.6,4.5-2.2,4.3-5.7c-0.3-5.8-0.1-11.6-0.1-17.5
		c0.1-4.6,2.4-7,6.9-7.2C338.3,281.5,341.8,281.6,345.2,281.6z"/>
</g>
</svg>
