<?xml version="1.0" encoding="utf-8"?>
<!-- Generator: Adobe Illustrator 21.0.0, SVG Export Plug-In . SVG Version: 6.00 Build 0)  -->
<svg version="1.1" id="Calque_1" xmlns="http://www.w3.org/2000/svg" xmlns:xlink="http://www.w3.org/1999/xlink" x="0px" y="0px"
	 viewBox="0 0 768 670" style="enable-background:new 0 0 768 670;" xml:space="preserve">
<style type="text/css">
	.st0{fill:#FFFFFF;}
</style>
<g>
	<g>
		<path class="st0" d="M1,671C1,447.7,1,224.3,1,1c256,0,512,0,768,0c0,223.3,0,446.7,0,670C513,671,257,671,1,671z M315.7,567.6
			c-8.8,5-17.1,9.7-25.5,14.5c1.6,1.5,2.8,2.6,4.2,4.1c-6.2,5.8-12.1,11.4-18.2,17.1c1.2,0.6,2,1,3.2,1.6
			c-5.6,6.3-11,12.2-16.4,18.2c1.1,1,2,1.8,3.1,2.8c-5.1,5.8-10,11.3-14.8,16.8c0.2,0.2,0.3,0.3,0.5,0.5c5.9-3.6,11.8-7.2,17.9-11
			c0.7,1.6,1.2,2.9,1.8,4.3c7-4.3,13.9-8.5,20.9-12.8c0.5,1.4,0.8,2.2,1.2,3.3c7-5.1,13.8-10.1,20.8-15.2c0.9,2,1.5,3.4,2.3,5.1
			c6.4-7.7,12.6-15,18.8-22.5c1.2,1.8,1.9,2.9,2.8,4.3c4.4-6.5,8.3-12.6,12.6-18.6c1-1.4,3.1-1.9,4.8-2.8c0.3,0.3,0.6,0.7,0.8,1
			c4.3-8.3,8.7-16.7,13-25c0.4,0.2,0.8,0.4,1.3,0.6c-1.5,30.1-3.1,60.1-4.6,90.4c5,0,9.7,0,14.8,0c-1.6-30.4-3.2-60.5-4.7-90.5
			c0.5-0.1,1-0.2,1.5-0.3c4.6,8.4,9.3,16.8,14,25.2c1.3-0.6,2.4-1.1,3.5-1.6c5,7.4,9.8,14.5,14.7,21.8c1-1.7,1.7-2.9,2.7-4.6
			c6.4,7.7,12.5,15,18.7,22.5c0.8-1.8,1.5-3.2,2.3-5.1c7.1,5.1,13.8,10.1,19.5,14.2c2.1-0.7,3.3-1.6,4-1.3c2,0.8,3.7,2.1,5.6,3.3
			c4.5,2.8,9,5.5,13.6,8.3c0.9-1.3,1.6-2.5,2.5-3.9c5.9,3.6,11.4,7,17,10.3c0.1-0.2,0.3-0.4,0.4-0.7c-5.1-5.4-10.2-10.9-15.6-16.7
			c1.6-0.8,2.7-1.4,3.8-1.9c-6.1-6.9-11.4-12.8-16.8-18.9c1.3-0.6,2.1-0.9,3.2-1.4c-6.2-5.9-12.2-11.6-18.5-17.7
			c1.9-1.4,3.2-2.3,4.9-3.6c-9-5-17.2-9.6-25.8-14.4c1.5-1.3,2.5-2.2,3.8-3.3c-7.9-3.8-15.6-7.6-23.3-11.4c0.3-0.8,0.6-1.5,0.9-2.3
			c13.4,4.6,26.7,9.3,40.4,14c-0.1-2.3-0.2-4-0.4-6.3c16.4,3.8,32.3,7.6,48.7,11.4c-1.5-3.6-2.7-6.6-4.2-10.3
			c18.7,2.5,36.4,5,54.6,7.4c-1.1-3.6-2.1-6.8-3.2-10.4c16.2-1.6,31.8-3.2,48.4-4.9c-3-2.2-5.1-3.7-8-5.8
			c16.7-3.1,32.1-5.9,47.5-8.8c-0.6-3-1-5.2-1.5-7.8c14.4-2.9,28.5-5.7,42.5-8.5c0-0.2-0.1-0.5-0.1-0.7c-14.4-1.6-28.9-3.2-43.5-4.9
			c1-3.1,1.7-5.4,2.5-7.8c-15.9-1.6-31.4-3.1-47.9-4.7c2.4-2.3,3.9-3.7,5.4-5c-0.1-0.4-0.2-0.9-0.3-1.3c-15.9,0-31.7,0-48,0
			c0.9-4.4,1.6-7.7,2.5-11.9c-18.2,4.2-35.7,8.2-53.9,12.4c0.9-3.9,1.6-6.7,2.4-10.2c-8.1,3.1-15.5,5.9-22.8,8.9
			c-3.4,1.4-5.3,0.7-6.3-3.3c18.6-8.5,37.2-17,56.1-25.7c-4.1-2.7-7.8-5.2-12.1-8c20.2-11.7,39.8-23,59.8-34.6
			c-4.4-3.2-8.2-5.8-12.8-9.1c14.9-14.7,29.3-28.9,44.6-43.9c-4.6,0.3-7.8,0.5-12.3,0.8c13.3-15.9,25.9-31.1,38.7-46.5
			c-3.2-1.8-6.1-3.4-9.3-5.2c11.8-14.4,23.2-28.4,34.6-42.3c-0.2-0.2-0.4-0.5-0.6-0.7c-15.3,9.8-30.6,19.6-46.3,29.7
			c-1.5-3.7-2.8-6.7-4.3-10.2c-16.7,10.8-33,21.4-50.2,32.6c0.5-4.5,0.9-7.6,1.4-12c-16.8,13.2-32.6,25.5-48.8,38.2
			c-2.4-4.6-4.6-8.7-6.9-13.2c-13.9,18.8-27.5,37.1-41.7,56.2c-1.8-5.3-3.2-9.3-4.9-14.3c-11.2,18.4-21.8,35.8-32.5,53.3
			c-0.6-0.2-1.2-0.3-1.8-0.5c0.1-1.4-0.1-3,0.4-4.3c1.9-4.8,4.1-9.5,6.1-14.2c2.9-6.6,5.7-13.3,8.8-20.5c-4.5,0-8.1,0-12.4,0
			c8-26.4,15.9-52.4,24.1-79.1c-6.5,2.3-11.9,4.2-18.3,6.5c6.2-30.3,12.2-59.8,18.3-90c-6.8,1.9-12.7,3.6-19.1,5.4
			c-1.7-27.3-3.3-54-4.9-81.6c-3.4,4.3-6.1,7.7-9.6,12c-4-27.2-7.8-53.1-11.7-79.3c-4.8,1.9-8.8,3.6-13.5,5.5
			c-4.3-24.6-8.5-48.6-12.7-72.6c-0.5,0-0.9,0.1-1.4,0.1c-3.9,24-7.7,48.1-11.7,72.6c-4.9-2-8.9-3.7-13.5-5.7
			c-3.9,26.5-7.7,52.3-11.7,79.2c-3.7-4.5-6.4-7.8-9.7-11.8c-1.6,27.9-3.2,54.6-4.8,81.7c-6.6-1.9-12.5-3.6-19.2-5.6
			c6.2,30.5,12.2,59.9,18.3,90c-6.4-2.3-11.8-4.2-18.2-6.5c8.1,26.8,16,52.7,24,79.2c-4.6,0-8.2,0-12.3,0c0.6,1.7,1.1,2.9,1.6,4
			c4.3,9.9,8.7,19.8,13,29.7c0.6,1.5,0.6,3.3,0.9,4.9c-0.6,0.2-1.3,0.5-1.9,0.7c-11.1-17.6-22.1-35.3-33.5-53.4c-2,4.4-3.8,8.2-6,13
			c-13.8-18.7-27.1-36.7-40.6-54.9c-2.4,4.6-4.6,8.7-7,13.1c-16.3-12.8-32.2-25.3-48.7-38.2c0.4,4.2,0.7,7.4,1.2,11.9
			c-17.2-11.2-33.5-21.8-50.1-32.6c-1.4,3.5-2.7,6.7-4.2,10.3c-15.7-10.1-30.8-19.8-46-29.6c-0.2,0.2-0.4,0.4-0.6,0.7
			c11.7,14.3,23.4,28.6,35.3,43.2c-3.5,1.9-6.3,3.4-9.3,5c12.9,15.6,25.5,30.8,38.8,46.8c-4.7-0.4-7.9-0.6-11.1-0.9
			c-0.3,0.5-0.7,1-1,1.6c14.4,14.2,28.8,28.4,43.5,42.8c-4,2.8-7.7,5.5-11.9,8.5c20.2,11.8,39.7,23.1,59.8,34.9
			c-4.2,2.7-7.9,5.1-12.1,7.8c18.9,8.7,37.4,17.2,56.6,25.9c-5.6,5.8-10.1,0.9-14.5-0.1c-5-1.1-9.8-3.1-15.2-4.9
			c0.9,3.9,1.6,6.9,2.4,10.5c-18.3-4.5-35.7-8.9-53.8-13.3c0.9,4.1,1.5,7.5,2.5,12c-16.5,0-32.3,0-49.4,0c2.8,2.5,4.3,3.9,6.6,5.9
			c-16.6,1.7-32.2,3.4-48,5c0.9,2.9,1.5,5,2.3,7.6c-14.6,1.7-28.7,3.3-42.8,4.9c0,0.2,0,0.4,0,0.7c13.6,2.5,27.2,5,41,7.5
			c-1.2,3-2.2,5.2-3.3,7.8c15.7,2.9,30.9,5.7,47.2,8.7c-3.2,2.3-5.2,3.8-8,5.8c16.8,1.7,32.4,3.3,48.4,4.9c-0.9,3.8-1.6,7-2.4,10.4
			c18.5-2.5,36.2-4.9,54.8-7.5c-1.5,3.8-2.7,6.8-4.1,10.2c16.4-3.8,32.2-7.5,48.2-11.2c0.1,2.5,0.2,4.1,0.3,6.1
			c2.1-0.6,3.8-1.1,5.5-1.7c10.2-3.6,20.4-7.3,30.6-10.8c1.4-0.5,2.9-0.3,4.4-0.5c0.1,0.6,0.3,1.1,0.4,1.7
			c-7.9,3.4-15.9,6.7-24.2,10.3C312,565,313.5,566.1,315.7,567.6z"/>
		<path d="M315.7,567.6c-2.1-1.5-3.7-2.6-5.8-4.1c8.3-3.5,16.2-6.9,24.2-10.3c-0.1-0.6-0.3-1.1-0.4-1.7c-1.5,0.1-3.1,0-4.4,0.5
			c-10.2,3.5-20.4,7.2-30.6,10.8c-1.7,0.6-3.5,1.1-5.5,1.7c-0.1-2-0.2-3.6-0.3-6.1c-16,3.7-31.8,7.4-48.2,11.2
			c1.4-3.4,2.6-6.4,4.1-10.2c-18.6,2.5-36.4,5-54.8,7.5c0.8-3.4,1.5-6.5,2.4-10.4c-15.9-1.6-31.6-3.2-48.4-4.9c2.8-2,4.8-3.5,8-5.8
			c-16.3-3-31.5-5.8-47.2-8.7c1.1-2.6,2-4.8,3.3-7.8c-13.8-2.5-27.4-5-41-7.5c0-0.2,0-0.4,0-0.7c14.1-1.6,28.3-3.2,42.8-4.9
			c-0.8-2.6-1.4-4.8-2.3-7.6c15.8-1.7,31.4-3.3,48-5c-2.2-2-3.8-3.4-6.6-5.9c17.1,0,32.8,0,49.4,0c-1-4.6-1.6-7.9-2.5-12
			c18.1,4.5,35.5,8.8,53.8,13.3c-0.8-3.6-1.5-6.6-2.4-10.5c5.3,1.8,10.1,3.8,15.2,4.9c4.4,1,9,5.9,14.5,0.1
			c-19.1-8.8-37.6-17.3-56.6-25.9c4.2-2.7,7.9-5.1,12.1-7.8c-20.1-11.7-39.7-23.1-59.8-34.9c4.2-3,7.9-5.6,11.9-8.5
			c-14.7-14.5-29.1-28.7-43.5-42.8c0.3-0.5,0.7-1,1-1.6c3.2,0.3,6.4,0.5,11.1,0.9c-13.3-16-25.8-31.2-38.8-46.8c3-1.6,5.8-3.1,9.3-5
			c-11.9-14.6-23.6-28.9-35.3-43.2c0.2-0.2,0.4-0.4,0.6-0.7c15.2,9.8,30.3,19.5,46,29.6c1.5-3.6,2.7-6.8,4.2-10.3
			c16.6,10.8,32.9,21.4,50.1,32.6c-0.5-4.5-0.8-7.8-1.2-11.9c16.5,12.9,32.4,25.4,48.7,38.2c2.4-4.5,4.5-8.5,7-13.1
			c13.5,18.2,26.8,36.2,40.6,54.9c2.2-4.8,4-8.7,6-13c11.4,18.1,22.4,35.8,33.5,53.4c0.6-0.2,1.3-0.5,1.9-0.7
			c-0.3-1.7-0.3-3.4-0.9-4.9c-4.3-9.9-8.7-19.8-13-29.7c-0.5-1.2-0.9-2.4-1.6-4c4.1,0,7.7,0,12.3,0c-8-26.5-15.9-52.4-24-79.2
			c6.4,2.3,11.8,4.2,18.2,6.5c-6.1-30.1-12.1-59.5-18.3-90c6.7,1.9,12.6,3.6,19.2,5.6c1.6-27.1,3.2-53.8,4.8-81.7
			c3.3,4,6,7.3,9.7,11.8c4-27,7.8-52.7,11.7-79.2c4.6,1.9,8.7,3.6,13.5,5.7c3.9-24.5,7.8-48.5,11.7-72.6c0.5,0,0.9-0.1,1.4-0.1
			c4.2,24,8.4,48,12.7,72.6c4.7-1.9,8.8-3.6,13.5-5.5c3.9,26.2,7.7,52.1,11.7,79.3c3.5-4.4,6.2-7.8,9.6-12
			c1.7,27.7,3.3,54.3,4.9,81.6c6.4-1.8,12.4-3.5,19.1-5.4c-6.1,30.2-12.2,59.7-18.3,90c6.4-2.3,11.8-4.2,18.3-6.5
			c-8.1,26.7-16,52.7-24.1,79.1c4.3,0,7.9,0,12.4,0c-3.1,7.2-5.9,13.9-8.8,20.5c-2,4.7-4.2,9.4-6.1,14.2c-0.5,1.3-0.3,2.9-0.4,4.3
			c0.6,0.2,1.2,0.3,1.8,0.5c10.6-17.5,21.3-35,32.5-53.3c1.7,5,3.1,9,4.9,14.3c14.2-19.1,27.7-37.4,41.7-56.2
			c2.3,4.5,4.5,8.6,6.9,13.2c16.2-12.7,32-25.1,48.8-38.2c-0.5,4.4-0.9,7.5-1.4,12c17.2-11.2,33.6-21.8,50.2-32.6
			c1.5,3.5,2.7,6.5,4.3,10.2c15.7-10.1,31-19.9,46.3-29.7c0.2,0.2,0.4,0.5,0.6,0.7c-11.4,13.9-22.8,27.9-34.6,42.3
			c3.2,1.8,6.1,3.4,9.3,5.2c-12.8,15.4-25.4,30.5-38.7,46.5c4.5-0.3,7.7-0.5,12.3-0.8c-15.3,15.1-29.7,29.2-44.6,43.9
			c4.6,3.3,8.4,6,12.8,9.1c-20,11.6-39.6,22.9-59.8,34.6c4.3,2.8,8,5.3,12.1,8c-19,8.7-37.5,17.2-56.1,25.7c1,4,2.9,4.7,6.3,3.3
			c7.3-3.1,14.8-5.8,22.8-8.9c-0.8,3.5-1.5,6.3-2.4,10.2c18.2-4.2,35.7-8.2,53.9-12.4c-0.9,4.1-1.6,7.5-2.5,11.9c16.3,0,32.1,0,48,0
			c0.1,0.4,0.2,0.9,0.3,1.3c-1.5,1.4-2.9,2.8-5.4,5c16.5,1.6,31.9,3.2,47.9,4.7c-0.8,2.4-1.5,4.7-2.5,7.8
			c14.6,1.6,29.1,3.2,43.5,4.9c0,0.2,0.1,0.5,0.1,0.7c-14.1,2.8-28.1,5.6-42.5,8.5c0.5,2.6,1,4.8,1.5,7.8
			c-15.4,2.8-30.8,5.7-47.5,8.8c3,2.1,5,3.6,8,5.8c-16.6,1.7-32.2,3.3-48.4,4.9c1.1,3.5,2.1,6.7,3.2,10.4
			c-18.2-2.5-35.9-4.9-54.6-7.4c1.5,3.7,2.7,6.7,4.2,10.3c-16.4-3.9-32.3-7.6-48.7-11.4c0.1,2.3,0.2,4.1,0.4,6.3
			c-13.7-4.7-27.1-9.4-40.4-14c-0.3,0.8-0.6,1.5-0.9,2.3c7.7,3.8,15.4,7.5,23.3,11.4c-1.2,1.1-2.3,2-3.8,3.3
			c8.6,4.8,16.9,9.4,25.8,14.4c-1.8,1.3-3.1,2.3-4.9,3.6c6.3,6,12.3,11.7,18.5,17.7c-1.1,0.5-1.9,0.9-3.2,1.4
			c5.4,6.1,10.7,12,16.8,18.9c-1.1,0.5-2.2,1.1-3.8,1.9c5.4,5.8,10.5,11.2,15.6,16.7c-0.1,0.2-0.3,0.4-0.4,0.7
			c-5.6-3.4-11.1-6.8-17-10.3c-0.9,1.4-1.7,2.6-2.5,3.9c-4.5-2.8-9.1-5.6-13.6-8.3c-1.8-1.1-3.6-2.4-5.6-3.3c-0.7-0.3-1.9,0.6-4,1.3
			c-5.7-4.1-12.4-9.1-19.5-14.2c-0.9,1.9-1.5,3.4-2.3,5.1c-6.2-7.5-12.3-14.7-18.7-22.5c-1,1.6-1.7,2.8-2.7,4.6
			c-4.9-7.3-9.7-14.4-14.7-21.8c-1.1,0.5-2.2,1-3.5,1.6c-4.7-8.5-9.4-16.9-14-25.2c-0.5,0.1-1,0.2-1.5,0.3
			c1.6,30.1,3.1,60.1,4.7,90.5c-5.1,0-9.8,0-14.8,0c1.5-30.3,3.1-60.3,4.6-90.4c-0.4-0.2-0.8-0.4-1.3-0.6c-4.3,8.3-8.7,16.7-13,25
			c-0.3-0.3-0.6-0.7-0.8-1c-1.6,0.9-3.8,1.4-4.8,2.8c-4.3,5.9-8.3,12.1-12.6,18.6c-0.9-1.4-1.6-2.5-2.8-4.3
			c-6.3,7.5-12.4,14.8-18.8,22.5c-0.8-1.8-1.4-3.2-2.3-5.1c-7,5.1-13.8,10.1-20.8,15.2c-0.4-1.1-0.7-1.9-1.2-3.3
			c-7,4.3-13.9,8.5-20.9,12.8c-0.6-1.4-1.1-2.7-1.8-4.3c-6.1,3.8-12,7.4-17.9,11c-0.2-0.2-0.3-0.3-0.5-0.5c4.9-5.5,9.7-11,14.8-16.8
			c-1.1-1-2-1.8-3.1-2.8c5.4-6,10.7-12,16.4-18.2c-1.2-0.6-2-1-3.2-1.6c6.1-5.8,12.1-11.3,18.2-17.1c-1.5-1.4-2.6-2.5-4.2-4.1
			C298.5,577.3,306.8,572.6,315.7,567.6z"/>
	</g>
</g>
</svg>
