<?xml version="1.0" encoding="utf-8"?>
<!-- Generator: Adobe Illustrator 21.0.0, SVG Export Plug-In . SVG Version: 6.00 Build 0)  -->
<svg version="1.1" id="Calque_1" xmlns="http://www.w3.org/2000/svg" xmlns:xlink="http://www.w3.org/1999/xlink" x="0px" y="0px"
	 viewBox="0 0 768 670" style="enable-background:new 0 0 768 670;" xml:space="preserve">
<style type="text/css">
	.st0{fill:#FFFFFF;}
</style>
<g>
	<g>
		<path class="st0" d="M1,1c255.9,0,511.9,0,767.9,0c0,223.2,0,446.4,0,669.8c-255.9,0-511.9,0-767.9,0C1,447.6,1,224.3,1,1z
			 M433.2,283.9c0,2.6,0,4.4,0,6.2c0,20.3-0.1,40.7,0,61c0.2,38.2,27.3,66.7,65.5,67.9c24.6,0.7,49.3,0.4,74-0.3
			c8-0.2,16.3-1.9,23.9-4.5c40.3-13.4,66-49.3,66.3-92.1c0.2-40.5,0.2-81-0.1-121.5c-0.1-8.8-0.9-17.7-2.4-26.3
			c-6.4-34.9-23.4-63.9-50.7-86.5C584.3,67,554.9,55.6,522,55c-38.1-0.7-76.3-0.3-114.5-0.2c-7,0-14,0.5-20.9,1.4
			c-48.3,6.5-89.9,47.8-95.4,96.3c-2.2,18.9-2.1,38.3-1.4,57.4c1.6,44,33.7,74.1,77.9,74.1c19.8,0,39.7,0,59.5,0
			C428.9,283.9,430.7,283.9,433.2,283.9z M265.8,153.6c7.6-9.3,10.9-15,10.9-22.5c0.1-20.6-1.9-41-10.4-60.1
			c-8.4-18.9-22.8-20.3-35.3-3.6c-9.4,12.6-14.5,27.2-19.2,42c-4.3,13.5-5.8,26.7,3.6,39.1c-5.8,5.2-7.8,11.7-8.3,18.9
			c-1.7,24.1-3.6,48.2-5.5,72.3c-3.9,50.7-7.8,101.3-11.7,152c-3.2,41-6.4,82.1-9.6,123.1c-2.1,27.7-4.4,55.5-6.3,83.2
			c-0.8,12.7,8.5,23.2,20.4,24c12.6,0.9,22.8-7.7,24.4-20.7c3.3-27.6,6.6-55.2,9.9-82.9c6.5-55.1,13.1-110.2,19.6-165.3
			c7.2-60.2,14.3-120.4,21.5-180.6C270.8,165.9,270.1,159.4,265.8,153.6z M104.1,150.1c-5.3,5.4-6.6,11.9-6.5,19
			c2.9,142.4,5.8,284.9,8.7,427.3c0.1,2.8,0.2,5.7,0.8,8.4c2,10.1,10.6,17.4,20.7,17.9c10.4,0.5,19.6-5.5,22.4-15.5
			c1.3-4.6,1.5-9.5,1.6-14.3c2.9-140.4,5.7-280.9,8.6-421.3c0.2-7.8-0.2-15.3-6.3-21.4c7.4-8.4,9.8-18,8.7-28.6
			c-1.5-14.8-4.3-29.4-10.3-43.1c-2.9-6.6-6.8-13-11.5-18.5c-6.1-7.2-15.4-7.4-22.1-0.8c-4,3.9-7.9,8.6-9.8,13.6
			c-4.7,12.9-8.7,26.1-12.1,39.5C93.6,125.7,94,138.9,104.1,150.1z M493.5,623.8c52.3,0,104.6,0,156.9,0c9.5,0,12.5-3,12.5-12.6
			c0-12.5,0-25,0-37.5c0-9.3-2.9-12.2-12.2-12.2c-104.5,0-208.9,0-313.4,0.1c-3.1,0-6.4,0.5-9.2,1.7c-16.3,6.6-32.6,13.6-48.9,20.4
			c-4.1,1.7-7.3,4-7.4,9c-0.1,5.1,3,7.3,7.2,9c16,6.6,31.9,13.5,48,19.9c3.4,1.4,7.4,2.2,11.1,2.2
			C389.8,623.9,441.7,623.8,493.5,623.8z M396.1,428c0-19.8,0-39.6,0-59.5c0-8.4-3.1-11.6-11.3-11.6c-28-0.1-56-0.1-83.9,0
			c-8.1,0-11.2,3.2-11.2,11.2c0,39.8,0,79.6,0,119.4c0,8.6,3,11.6,11.8,11.6c27.6,0,55.3,0,82.9,0c8.7,0,11.7-3.1,11.7-11.7
			C396.1,467.6,396.1,447.8,396.1,428z M533.5,517c16,0,32,0,48,0c6.3,0,10.2-3.3,10.3-9.1c0.2-14.7,0.2-29.3,0-44
			c-0.1-5.3-3.7-9-8.8-9c-26.3-0.1-52.6-0.3-78.9,0.3c-14.4,0.3-25.7,11.5-27.3,25.8c-0.9,8.1-0.5,16.3-0.6,24.4
			c-0.1,8.4,3,11.5,11.4,11.5C502.8,517,518.2,517,533.5,517z"/>
		<path d="M433.2,283.9c-2.5,0-4.3,0-6.1,0c-19.8,0-39.7,0-59.5,0c-44.2,0-76.3-30.1-77.9-74.1c-0.7-19.1-0.8-38.4,1.4-57.4
			c5.5-48.5,47.1-89.8,95.4-96.3c6.9-0.9,13.9-1.4,20.9-1.4c38.2-0.1,76.3-0.5,114.5,0.2c32.9,0.6,62.3,12,87.7,32.9
			c27.4,22.6,44.3,51.6,50.7,86.5c1.6,8.6,2.4,17.5,2.4,26.3c0.3,40.5,0.3,81,0.1,121.5c-0.2,42.8-26,78.7-66.3,92.1
			c-7.7,2.5-15.9,4.3-23.9,4.5c-24.6,0.6-49.3,1-74,0.3c-38.2-1.1-65.2-29.6-65.5-67.9c-0.1-20.3,0-40.7,0-61
			C433.2,288.3,433.2,286.5,433.2,283.9z M644.9,259.8c0.1,0,0.1,0,0.2,0c0-19.2,0-38.3,0-57.5c0-31.9-9.8-60.4-30.4-84.6
			c-26.5-31.1-60.8-45.4-101.4-45.3c-35,0-70-0.1-105,0.1c-6.6,0-13.3,0.5-19.9,1.4c-39.4,5.6-74.3,39.2-79.1,78.7
			c-2.5,20.7-2,41.9-1.3,62.8c0.5,16.2,9.4,28.8,21.9,38.8c10.8,8.6,23.3,11.9,36.8,11.9c24.7,0,49.3,0,74,0c7.6,0,10.6,3,10.8,10.5
			c0.1,3,0,6,0,9c0.1,23.3-0.6,46.7,0.4,70c1.1,25.9,21.5,45.1,47.3,45.5c23.6,0.4,47.3,0.5,71-0.1c40.2-1,73.4-34,74.7-74.2
			C645.4,304.5,644.9,282.2,644.9,259.8z"/>
		<path d="M265.8,153.6c4.4,5.8,5,12.3,4.2,19.1c-7.2,60.2-14.4,120.4-21.5,180.6c-6.5,55.1-13.1,110.2-19.6,165.3
			c-3.3,27.6-6.6,55.3-9.9,82.9c-1.6,12.9-11.8,21.6-24.4,20.7c-11.9-0.8-21.3-11.3-20.4-24c1.8-27.8,4.1-55.5,6.3-83.2
			c3.2-41,6.4-82.1,9.6-123.1c3.9-50.7,7.8-101.3,11.7-152c1.9-24.1,3.7-48.2,5.5-72.3c0.5-7.2,2.5-13.7,8.3-18.9
			c-9.4-12.4-7.9-25.6-3.6-39.1c4.7-14.8,9.8-29.4,19.2-42c12.5-16.7,26.9-15.4,35.3,3.6c8.5,19.1,10.5,39.5,10.4,60.1
			C276.7,138.6,273.3,144.3,265.8,153.6z M219.4,240.8c-0.3,3.9-0.6,7.4-0.8,10.9c-3.8,49.3-7.7,98.7-11.5,148
			c-4,51.3-7.9,102.7-11.8,154c-1.1,14.6-2.3,29.2-3.4,43.9c-0.3,4.7,1.6,7.5,4.8,7.1c3.5-0.4,4.3-3.1,4.7-6.1
			c2.1-17.9,4.3-35.7,6.4-53.6c11-92.6,22-185.3,33-277.9c0.9-7.9,1.8-15.7,2.8-24C235.3,242.3,227.6,241.6,219.4,240.8z M248.1,74
			c-1.3,1.4-2,2-2.5,2.6c-10,14.5-16.1,30.6-19.2,47.8c-1.8,10.2,6.1,19.7,15.5,20.1c9.6,0.4,17.2-7.5,17.2-18.1
			c-0.1-15.3-2.8-30.2-7.5-44.7C250.8,79.4,249.5,77.1,248.1,74z M223.4,187.4c9.1,0.8,17.6,1.6,26.5,2.4c0.8-7.3,1.6-14,2.3-20.8
			c0.4-4-1.8-5.8-5.6-6.1c-5.1-0.5-10.3-0.9-15.4-1.6c-4.1-0.5-5.9,1.6-6.2,5.3C224.3,173.3,223.9,179.9,223.4,187.4z M247.8,207.7
			c-8.9-0.9-17.2-1.7-25.9-2.5c-0.5,6.2-0.9,11.8-1.3,17.7c8.6,0.8,16.6,1.6,24.9,2.4C246.4,219.3,247,213.9,247.8,207.7z"/>
		<path d="M104.1,150.1C94,138.9,93.6,125.7,97,112.4c3.4-13.3,7.4-26.6,12.1-39.5c1.9-5.1,5.8-9.8,9.8-13.6
			c6.7-6.6,16-6.4,22.1,0.8c4.7,5.5,8.6,11.9,11.5,18.5c6,13.7,8.8,28.3,10.3,43.1c1.1,10.6-1.3,20.2-8.7,28.6
			c6.2,6.1,6.5,13.6,6.3,21.4c-2.9,140.4-5.7,280.9-8.6,421.3c-0.1,4.8-0.3,9.7-1.6,14.3c-2.8,10-12,16-22.4,15.5
			c-10.1-0.5-18.7-7.8-20.7-17.9c-0.5-2.8-0.7-5.6-0.8-8.4c-2.9-142.4-5.8-284.9-8.7-427.3C97.5,162,98.8,155.6,104.1,150.1z
			 M117.4,241.7c0,1.6,0,2.8,0,3.9c2.4,117.4,4.9,234.9,7.3,352.3c0,1-0.3,2.3,0.2,2.9c1.4,1.8,3.1,3.3,4.7,5c1.6-1.6,3.4-3,4.7-4.8
			c0.6-0.8,0.2-2.3,0.2-3.4c2.2-106.3,4.4-212.6,6.6-318.8c0.2-12.3,0-24.5,0-37.1C133.5,241.7,125.8,241.7,117.4,241.7z
			 M130.1,73.4c-0.9,0.5-1.5,0.7-1.7,1.1c-9.4,16.3-14.5,34-15.1,52.7c-0.3,9.5,8.7,16.1,18.1,15.1c9.1-1,15.4-8.8,14.4-18.3
			c-1.7-15.2-5.6-29.7-11.8-43.7C132.9,77.9,131.4,75.7,130.1,73.4z M143.1,187.8c0-7.4,0.3-14.4-0.2-21.3c-0.2-1.8-3-4.7-4.9-4.9
			c-5.6-0.7-11.3-0.6-16.9,0c-1.9,0.2-4.9,2.7-5,4.3c-0.5,7.2-0.2,14.5-0.2,22C125.2,187.8,133.7,187.8,143.1,187.8z M142.1,206.2
			c-8.4,0-16.6,0-24.8,0c0,5.9,0,11.4,0,17.1c8.4,0,16.4,0,24.8,0C142.1,217.5,142.1,212,142.1,206.2z"/>
		<path d="M493.5,623.8c-51.8,0-103.6,0-155.4-0.1c-3.7,0-7.6-0.8-11.1-2.2c-16.1-6.5-31.9-13.3-48-19.9c-4.2-1.7-7.3-3.9-7.2-9
			c0.1-5,3.3-7.3,7.4-9c16.3-6.8,32.5-13.7,48.9-20.4c2.8-1.2,6.1-1.7,9.2-1.7c104.5-0.1,208.9-0.1,313.4-0.1
			c9.4,0,12.2,2.9,12.2,12.2c0,12.5,0,25,0,37.5c0,9.6-2.9,12.6-12.5,12.6C598.1,623.8,545.8,623.8,493.5,623.8z M582.5,579.6
			c-80,0-159.6,0-239.3,0c0,8.9,0,17.5,0,26.1c79.9,0,159.4,0,239.3,0C582.5,597,582.5,588.5,582.5,579.6z M644.8,579.6
			c-5.9,0-11.6,0-17.2,0c0,9,0,17.5,0,25.9c6,0,11.6,0,17.2,0C644.8,596.7,644.8,588.2,644.8,579.6z M609.1,605.8c0-9,0-17.5,0-26.3
			c-2.9,0-5.4,0-8,0c0,9,0,17.6,0,26.3C604,605.8,606.3,605.8,609.1,605.8z M303.7,592.7c7.7,3.2,14.2,5.9,20.9,8.7
			c0-6.2,0-11.5,0-17.3C317.8,586.9,311.4,589.5,303.7,592.7z"/>
		<path d="M396.1,428c0,19.8,0,39.6,0,59.5c0,8.6-3,11.7-11.7,11.7c-27.6,0-55.3,0-82.9,0c-8.8,0-11.8-3-11.8-11.6
			c0-39.8,0-79.6,0-119.4c0-8,3.1-11.2,11.2-11.2c28-0.1,56-0.1,83.9,0c8.3,0,11.3,3.2,11.3,11.6C396.1,388.3,396.1,408.2,396.1,428
			z M307.5,481.1c23.6,0,47,0,70.5,0c0-23.7,0-47,0-70.4c-23.7,0-47.1,0-70.5,0C307.5,434.3,307.5,457.5,307.5,481.1z M378.1,375.2
			c-23.8,0-47.1,0-70.5,0c0,5.8,0,11.4,0,17c23.7,0,47,0,70.5,0C378.1,386.3,378.1,380.9,378.1,375.2z"/>
		<path d="M533.5,517c-15.3,0-30.6,0-46,0c-8.3,0-11.4-3.1-11.4-11.5c0.1-8.2-0.3-16.4,0.6-24.4c1.5-14.4,12.8-25.5,27.3-25.8
			c26.3-0.6,52.6-0.3,78.9-0.3c5.1,0,8.7,3.7,8.8,9c0.2,14.7,0.2,29.3,0,44c-0.1,5.8-3.9,9.1-10.3,9.1
			C565.5,517,549.5,517,533.5,517z M529.9,498.7c14.8,0,29.3,0,43.8,0c0-8.9,0-17.3,0-25.9c-14.7,0-29.1,0-43.8,0
			C529.9,481.6,529.9,490.1,529.9,498.7z M511.4,473.2c-8.4-1.7-15,0.9-16.5,7.8c-1.3,5.8-0.8,12-1.1,18c6.5,0,11.9,0,17.7,0
			C511.4,490.2,511.4,481.7,511.4,473.2z"/>
		<path class="st0" d="M644.9,259.8c0,22.3,0.6,44.7-0.1,67c-1.3,40.3-34.5,73.2-74.7,74.2c-23.6,0.6-47.3,0.5-71,0.1
			c-25.8-0.4-46.2-19.7-47.3-45.5c-1-23.3-0.3-46.6-0.4-70c0-3,0-6,0-9c-0.2-7.5-3.2-10.5-10.8-10.5c-24.7,0-49.3,0-74,0
			c-13.6,0-26.1-3.3-36.8-11.9c-12.5-10-21.4-22.7-21.9-38.8c-0.7-20.9-1.2-42.1,1.3-62.8c4.8-39.5,39.7-73.2,79.1-78.7
			c6.6-0.9,13.3-1.4,19.9-1.4c35-0.1,70,0,105-0.1c40.6-0.1,74.9,14.2,101.4,45.3c20.7,24.3,30.5,52.8,30.4,84.6
			c0,19.2,0,38.3,0,57.5C645,259.8,644.9,259.8,644.9,259.8z M383.6,207.9c23.3-0.1,42.6-19.5,42.5-42.8
			c-0.1-23.7-19.4-43-42.9-42.8c-23.6,0.1-42.7,19.6-42.5,43.3C340.9,188.8,360.2,207.9,383.6,207.9z M535.1,215.8
			c0.3,23.4,19.4,43,41.9,42.9c24.1-0.1,43.9-19.6,43.6-42.9c-0.3-24.1-19.7-43.1-43.5-42.7C553.8,173.5,534.9,192.8,535.1,215.8z
			 M612,325.9c0.4-22.9-18.8-42.6-41.8-42.9c-23.8-0.3-43.3,18.5-43.7,42c-0.3,23.6,18.5,43,42.3,43.5
			C592.3,368.9,611.7,349.8,612,325.9z M493.6,182.4c22.5,0.6,41.8-18.7,42.3-42.3c0.5-22.9-18.5-42.6-41.6-43
			c-23.6-0.5-43.1,17.9-43.8,41.3C449.8,162.7,468.4,181.8,493.6,182.4z"/>
		<path class="st0" d="M219.4,240.8c8.1,0.7,15.9,1.5,24.2,2.2c-0.9,8.2-1.8,16.1-2.8,24c-11,92.6-22,185.3-33,277.9
			c-2.1,17.9-4.3,35.7-6.4,53.6c-0.4,3-1.1,5.7-4.7,6.1c-3.2,0.4-5.2-2.4-4.8-7.1c1.1-14.6,2.2-29.2,3.4-43.9
			c3.9-51.3,7.9-102.7,11.8-154c3.8-49.3,7.6-98.7,11.5-148C218.9,248.2,219.1,244.7,219.4,240.8z"/>
		<path class="st0" d="M248.1,74c1.4,3.1,2.8,5.4,3.6,7.8c4.7,14.5,7.4,29.4,7.5,44.7c0.1,10.6-7.6,18.5-17.2,18.1
			c-9.4-0.4-17.3-9.9-15.5-20.1c3-17.2,9.2-33.3,19.2-47.8C246.1,76,246.7,75.5,248.1,74z"/>
		<path class="st0" d="M223.4,187.4c0.6-7.5,1-14.1,1.5-20.7c0.3-3.7,2.1-5.8,6.2-5.3c5.1,0.6,10.3,1.1,15.4,1.6
			c3.7,0.4,6,2.1,5.6,6.1c-0.7,6.8-1.5,13.5-2.3,20.8C241,189,232.4,188.2,223.4,187.4z"/>
		<path class="st0" d="M247.8,207.7c-0.8,6.2-1.5,11.6-2.2,17.6c-8.4-0.8-16.4-1.6-24.9-2.4c0.4-6,0.8-11.5,1.3-17.7
			C230.7,206,239,206.9,247.8,207.7z"/>
		<path class="st0" d="M117.4,241.7c8.4,0,16.2,0,23.7,0c0,12.6,0.2,24.9,0,37.1c-2.2,106.3-4.4,212.6-6.6,318.8
			c0,1.2,0.4,2.7-0.2,3.4c-1.3,1.8-3.1,3.2-4.7,4.8c-1.6-1.6-3.3-3.2-4.7-5c-0.5-0.6-0.1-1.9-0.2-2.9
			c-2.4-117.4-4.9-234.9-7.3-352.3C117.3,244.5,117.4,243.3,117.4,241.7z"/>
		<path class="st0" d="M130.1,73.4c1.4,2.3,2.9,4.5,3.9,6.9c6.2,13.9,10.1,28.5,11.8,43.7c1,9.4-5.3,17.3-14.4,18.3
			c-9.4,1-18.4-5.6-18.1-15.1c0.6-18.7,5.7-36.4,15.1-52.7C128.6,74.1,129.2,73.9,130.1,73.4z"/>
		<path class="st0" d="M143.1,187.8c-9.5,0-17.9,0-27.3,0c0-7.5-0.3-14.8,0.2-22c0.1-1.6,3.1-4.1,5-4.3c5.6-0.6,11.4-0.6,16.9,0
			c1.9,0.2,4.7,3.1,4.9,4.9C143.5,173.3,143.1,180.3,143.1,187.8z"/>
		<path class="st0" d="M142.1,206.2c0,5.8,0,11.3,0,17.1c-8.4,0-16.4,0-24.8,0c0-5.7,0-11.3,0-17.1
			C125.5,206.2,133.7,206.2,142.1,206.2z"/>
		<path class="st0" d="M582.5,579.6c0,9,0,17.4,0,26.1c-79.8,0-159.3,0-239.3,0c0-8.6,0-17.2,0-26.1
			C422.9,579.6,502.6,579.6,582.5,579.6z"/>
		<path class="st0" d="M644.8,579.6c0,8.6,0,17.1,0,25.9c-5.6,0-11.2,0-17.2,0c0-8.4,0-16.9,0-25.9
			C633.2,579.6,638.8,579.6,644.8,579.6z"/>
		<path class="st0" d="M609.1,605.8c-2.9,0-5.2,0-8,0c0-8.7,0-17.3,0-26.3c2.6,0,5.1,0,8,0C609.1,588.3,609.1,596.9,609.1,605.8z"/>
		<path class="st0" d="M303.7,592.7c7.6-3.2,14-5.8,20.9-8.7c0,5.8,0,11.1,0,17.3C317.9,598.6,311.4,595.9,303.7,592.7z"/>
		<path class="st0" d="M307.5,481.1c0-23.5,0-46.8,0-70.4c23.4,0,46.8,0,70.5,0c0,23.4,0,46.8,0,70.4
			C354.4,481.1,331.1,481.1,307.5,481.1z M351.4,463.4c0-6.1,0-11.7,0-17.2c-5.9,0-11.5,0-17.2,0c0,5.9,0,11.4,0,17.2
			C340,463.4,345.6,463.4,351.4,463.4z"/>
		<path class="st0" d="M378.1,375.2c0,5.8,0,11.2,0,17c-23.5,0-46.8,0-70.5,0c0-5.7,0-11.2,0-17C331,375.2,354.2,375.2,378.1,375.2z
			"/>
		<path class="st0" d="M529.9,498.7c0-8.6,0-17.2,0-25.9c14.7,0,29.1,0,43.8,0c0,8.7,0,17.1,0,25.9
			C559.2,498.7,544.7,498.7,529.9,498.7z"/>
		<path class="st0" d="M511.4,473.2c0,8.5,0,17,0,25.8c-5.7,0-11.2,0-17.7,0c0.3-6-0.2-12.2,1.1-18
			C496.4,474.1,503,471.5,511.4,473.2z"/>
		<path d="M383.6,207.9c-23.4,0.1-42.7-19-42.9-42.3c-0.2-23.6,18.9-43.1,42.5-43.3c23.5-0.1,42.9,19.2,42.9,42.8
			C426.2,188.4,406.9,207.8,383.6,207.9z M408.2,165c0.1-13.8-10.7-24.8-24.5-24.9c-13.9-0.1-25.2,11-25.2,24.8
			c0,13.7,10.9,24.9,24.5,24.9C397,189.9,408.1,178.9,408.2,165z"/>
		<path d="M535.1,215.8c-0.3-23,18.7-42.4,41.9-42.7c23.8-0.3,43.2,18.7,43.5,42.7c0.3,23.3-19.5,42.8-43.6,42.9
			C554.5,258.8,535.4,239.2,535.1,215.8z M552.9,215.5c0,14,11.2,25.4,24.8,25.4c13.5-0.1,24.9-11.3,25-24.7
			c0.1-13.9-11-25.1-24.9-25.2C564.1,190.8,552.9,201.9,552.9,215.5z"/>
		<path d="M612,325.9c-0.4,23.9-19.8,43-43.1,42.6c-23.7-0.4-42.6-19.9-42.3-43.5c0.3-23.5,19.9-42.4,43.7-42
			C593.3,283.3,612.4,303,612,325.9z M569.4,300.8c-14,0-25,11-25,25c0,13.5,11.3,24.9,24.8,24.8c14-0.1,25-11.1,25-25.1
			C594.1,311.8,583.1,300.8,569.4,300.8z"/>
		<path d="M493.6,182.4c-25.2-0.6-43.8-19.7-43.1-44c0.7-23.4,20.2-41.8,43.8-41.3c23.1,0.5,42.1,20.1,41.6,43
			C535.4,163.7,516.1,183,493.6,182.4z M518.1,139.8c0.2-13.7-10.8-24.9-24.4-25.1c-13.9-0.2-25.2,10.9-25.4,24.8
			c-0.2,13.6,11,25.1,24.5,25.2C506.5,164.8,517.9,153.6,518.1,139.8z"/>
		<path d="M351.4,463.4c-5.8,0-11.4,0-17.2,0c0-5.8,0-11.4,0-17.2c5.7,0,11.3,0,17.2,0C351.4,451.8,351.4,457.3,351.4,463.4z"/>
		<path class="st0" d="M408.2,165c-0.1,13.9-11.2,24.9-25.2,24.8c-13.6,0-24.6-11.2-24.5-24.9c0.1-13.9,11.3-25,25.2-24.8
			C397.4,140.2,408.3,151.2,408.2,165z"/>
		<path class="st0" d="M552.9,215.5c0-13.6,11.3-24.7,24.9-24.6c14,0.1,25,11.3,24.9,25.2c-0.1,13.4-11.5,24.7-25,24.7
			C564.1,241,552.9,229.5,552.9,215.5z"/>
		<path class="st0" d="M569.4,300.8c13.7,0,24.7,11,24.8,24.7c0,14-10.9,25-25,25.1c-13.5,0.1-24.8-11.2-24.8-24.8
			C544.4,311.8,555.4,300.8,569.4,300.8z"/>
		<path class="st0" d="M518.1,139.8c-0.2,13.8-11.6,25-25.3,24.9c-13.5-0.1-24.6-11.6-24.5-25.2c0.2-13.9,11.5-25,25.4-24.8
			C507.3,114.9,518.3,126.1,518.1,139.8z"/>
	</g>
</g>
</svg>
