<?xml version="1.0" encoding="utf-8"?>
<!-- Generator: Adobe Illustrator 21.0.0, SVG Export Plug-In . SVG Version: 6.00 Build 0)  -->
<svg version="1.1" id="Calque_1" xmlns="http://www.w3.org/2000/svg" xmlns:xlink="http://www.w3.org/1999/xlink" x="0px" y="0px"
	 viewBox="0 0 692 940" style="enable-background:new 0 0 692 940;" xml:space="preserve">
<style type="text/css">
	.st0{fill:#FFFFFF;stroke:#000000;stroke-width:6;stroke-miterlimit:10;}
	.st1{fill:#020202;}
	.st2{fill:#BEBEBE;}
	.st3{fill:#B87747;}
	.st4{fill:#BDBDBD;}
	.st5{fill:#E2F0C2;}
	.st6{fill:#010102;}
	.st7{fill:#010101;}
	.st8{fill:#4864AC;}
	.st9{fill:#8BA7EE;}
	.st10{fill:#293C6D;}
</style>
<path class="st0" d="M524,758h52c56.7,0,103-46.3,103-103V125c0-56.7-46.3-103-103-103H112C55.3,22,9,68.3,9,125v530
	c0,56.7,46.3,103,103,103h238l162,160l-8-160H524z"/>
<g>
	<path class="st1" d="M207.5,621.2c-3.6,12.3-7,24.3-10.7,36.2c-2.2,7.1-9.4,10.2-15.5,7c-2.1-1.1-3.5-2.8-4.3-5.2
		c-8.3-26-15.2-52.4-19.6-79.4c-0.3-1.8-1.2-2.9-2.3-4.2c-38.3-41.8-61.8-90.9-71-146.8c-4.1-24.6-4.7-49.3-1.7-74.1
		c1.5-12.4,8.4-21.9,18.9-28.7c13-8.5,27.7-11.5,42.8-13.4c7.3-0.9,5.7,0.5,6.8-6.7c1.6-10.5,3-21,4.6-31.5c0.3-1.9,0.6-3.5-1.5-4.9
		c-17-11.3-22.3-33.5-12.4-51.7c12-22.2,17.7-46.3,22.4-70.7c2.2-11.3,3.9-22.8,5-34.3c0.4-4.3,4.2-8.6,8-9.3c5.8-1.1,10.2,0.8,13,6
		c11.2,21.2,22.6,42.4,32.2,64.4c4.7,10.7,9.2,21.4,12.3,32.7c5.8,20.9-0.3,38.6-14.6,54c-2.3,2.5-2.9,4.6-2.3,7.9
		c2.2,11.6,4,23.3,5.9,35c0.2,1.3-0.1,2.8,2.2,2.4c12.1-1.9,24.1-3.8,35.6-8.2c18.8-7.2,29.6-21.3,35.1-40.1
		c4.4-15.1,5.6-30.7,6.5-46.3c0.9-16.6,0.4-33.2,2.4-49.7c1.4-11.5,3.5-22.8,8.6-33.4c7.8-15.8,20.5-24.1,37.9-24.6
		c77-2.1,144.3,22.5,200.7,75.1c41.3,38.4,68.6,85.3,81.5,140.3c8,34.3,8.8,69,4,103.8c-8.4,60.3-33.6,112.6-75.7,156.5
		c-36.7,38.2-81.1,64.2-132.4,77.2c-71.4,18.1-139.9,9.6-205.1-24.9c-2.9-1.5-5.6-3.3-8.4-4.9C213.4,624.9,210.7,623.2,207.5,621.2z
		 M230.2,423.2c0.2,34.4-1.1,64-4.1,93.6c-2.6,25.7-6.3,51.1-11.4,76.4c-0.5,2.6,0.2,4.1,2.5,5.6c37.5,25.1,78.9,39.4,123.8,42.9
		c26.3,2.1,52.4-0.1,78.1-6c46.5-10.7,86.7-32.9,120.7-66.3c45.3-44.4,71.5-98,77.7-161.3c2.9-29.1,1.2-57.9-6.3-86.1
		c-20.7-77.4-67.1-134.2-138.9-169.7c-35.9-17.8-74.4-25.6-114.4-25.8c-14.2-0.1-21.8,5.1-26.2,17.5c-0.8,2.3-1.5,4.7-1.9,7
		c-4,19.7-4,39.7-4.9,59.6c-0.6,15.1-1.8,30.1-5,44.9c-6.9,32-23.6,55.5-56.5,65c-10.6,3-21.3,5.2-32.1,6.9c-6.7,1.1-5.3,0-5,6.4
		c0.2,4.9,1,9.7,1.3,14.6C229.1,374.9,230.6,401.4,230.2,423.2z M185.7,610.5c0.3,0,0.6,0,0.9,0c0.3-1.2,0.7-2.3,1-3.5
		c5.3-26.3,10-52.6,13.3-79.2c2.9-23.3,4.9-46.7,6.2-70.1c1.4-25.8,1.2-51.7,0-77.5c-0.3-5.6-0.4-11.1-0.8-16.7
		c-1.4-16.2-2.4-32.5-4.7-48.6c-1.7-12.2-3.4-24.4-5.1-36.6c-0.3-1.8-0.9-3-3.2-2c-3,1.3-6.4,1.2-9.6,1.2c-5.9,0-5.9,0-6.6,5.7
		c-2.5,20.6-5,41.2-6.8,61.8c-2.1,23.7-3.3,47.4-3.8,71.2c-0.5,25.4,0.4,50.8,2.2,76.2c1,13.5,2.1,27.1,3.7,40.5
		c2,17.1,4.6,34.1,7.9,50.9C181.9,592.8,183.8,601.7,185.7,610.5z M148.7,531.1c0.1-0.7,0.2-1.1,0.2-1.4c-2.2-19-3.6-38.1-4.5-57.3
		c-0.7-14.9-1.1-29.9-1.3-44.9c-0.2-21.6,0.1-43.2,1.8-64.8c0.6-8,1.2-16,1.8-24c0.2-2.3,0.1-4-3-3.4c-4.6,1-9.4,1.3-13.9,2.6
		c-17.1,4.7-25.6,8.9-26.3,27.6c-0.8,21.2-0.4,42.3,3.2,63.3c5.9,34.7,18.2,67,37.5,96.5C145.4,527.3,146.2,529.7,148.7,531.1z
		 M187.3,152.2c-3.9,18.6-7.8,35.7-13.6,52.3c-3.2,9.2-8.2,17.6-11.9,26.6c-4.9,11.9,5,22.5,14.9,23.4c26,2.3,42.7-22,36.5-42
		c-5.5-18.2-13.8-35.2-21.8-52.3C190.3,157.9,189.1,155.6,187.3,152.2z"/>
	<path class="st2" d="M230.2,423.2c0.4-21.8-1.1-48.3-2.7-74.8c-0.3-4.9-1.1-9.7-1.3-14.6c-0.3-6.4-1.6-5.3,5-6.4
		c10.8-1.8,21.6-3.9,32.1-6.9c32.9-9.5,49.6-33,56.5-65c3.2-14.8,4.3-29.8,5-44.9c0.9-19.9,0.9-40,4.9-59.6c0.5-2.4,1.1-4.7,1.9-7
		c4.4-12.4,12-17.5,26.2-17.5c40,0.2,78.4,8.1,114.4,25.8C544,187.8,590.4,244.6,611.1,322c7.5,28.1,9.2,57,6.3,86.1
		c-6.2,63.3-32.5,116.9-77.7,161.3c-34,33.4-74.2,55.6-120.7,66.3c-25.7,5.9-51.8,8.1-78.1,6c-44.9-3.6-86.2-17.9-123.8-42.9
		c-2.3-1.5-3-3-2.5-5.6c5.2-25.3,8.9-50.7,11.4-76.4C229.1,487.2,230.4,457.6,230.2,423.2z M512.7,469.7c34.7,0.4,64-27.8,64.5-62.1
		c0.5-36.3-27.2-66.3-66.7-66.5c-34.1-0.2-60.4,31.7-61.6,60.7C447.3,438,475.2,470.2,512.7,469.7z M491.5,245.5
		c0.1-35.4-28-64.5-62.6-64.4c-38.4,0.1-66.2,28.6-66.1,64.7c0.1,36.5,26.7,63.5,65.8,63.4C466.1,309,491.6,278.6,491.5,245.5z
		 M389,477.4c-34.8-0.2-63.6,27.8-64.3,61.7c-0.7,34.8,24.7,66.5,64.1,66.5c37.2,0,64.1-29,64.2-64
		C453.2,506.1,424.8,477.6,389,477.4z"/>
	<path class="st3" d="M185.7,610.5c-1.8-8.8-3.7-17.7-5.5-26.5c-3.3-16.9-5.9-33.9-7.9-50.9c-1.6-13.5-2.7-27-3.7-40.5
		c-1.8-25.4-2.7-50.8-2.2-76.2c0.5-23.8,1.7-47.5,3.8-71.2c1.8-20.7,4.3-41.2,6.8-61.8c0.7-5.7,0.7-5.8,6.6-5.7
		c3.3,0,6.6,0.1,9.6-1.2c2.4-1,3,0.2,3.2,2c1.7,12.2,3.4,24.4,5.1,36.6c2.2,16.1,3.3,32.4,4.7,48.6c0.5,5.5,0.6,11.1,0.8,16.7
		c1.2,25.8,1.4,51.7,0,77.5c-1.3,23.4-3.2,46.8-6.2,70.1c-3.3,26.6-8,53-13.3,79.2c-0.2,1.2-0.7,2.3-1,3.5
		C186.3,610.5,186,610.5,185.7,610.5z"/>
	<path class="st4" d="M148.7,531.1c-2.4-1.4-3.3-3.8-4.6-5.7c-19.3-29.5-31.6-61.7-37.5-96.5c-3.6-21-4-42.1-3.2-63.3
		c0.7-18.6,9.2-22.9,26.3-27.6c4.5-1.2,9.3-1.6,13.9-2.6c3.2-0.7,3.2,1,3,3.4c-0.7,8-1.2,16-1.8,24c-1.7,21.6-2,43.2-1.8,64.8
		c0.1,15,0.5,29.9,1.3,44.9c0.9,19.1,2.4,38.2,4.5,57.3C148.9,530,148.8,530.4,148.7,531.1z"/>
	<path class="st5" d="M187.3,152.2c1.7,3.4,3,5.6,4.1,8c8,17.1,16.3,34.1,21.8,52.3c6.1,20.1-10.6,44.3-36.5,42
		c-9.9-0.9-19.8-11.4-14.9-23.4c3.7-9,8.6-17.4,11.9-26.6C179.5,187.9,183.5,170.8,187.3,152.2z"/>
	<path class="st6" d="M512.7,469.7c-37.5,0.4-65.4-31.7-63.9-67.9c1.2-29,27.5-60.9,61.6-60.7c39.5,0.2,67.3,30.2,66.7,66.5
		C576.7,441.9,547.4,470.1,512.7,469.7z M555.3,406.2c-0.3-24.5-17.6-41.7-41.2-41.7c-25.9,0-40.9,18.8-41.1,40.8
		c-0.3,24,16.4,40.4,39.6,41.3C540.1,447.6,554.9,426.6,555.3,406.2z"/>
	<path class="st1" d="M491.5,245.5c0.1,33-25.5,63.5-62.9,63.6c-39.1,0.2-65.7-26.9-65.8-63.4c-0.1-36,27.7-64.5,66.1-64.7
		C463.5,181,491.6,210.1,491.5,245.5z M427,203c-24-0.5-41.6,19.5-41.4,42.2c0.2,21.6,18,41.3,45.2,39.7c24.1-1.4,38-21.3,37.8-41.6
		C468.4,220,450.4,202.6,427,203z"/>
	<path class="st7" d="M389,477.4c35.8,0.2,64.2,28.7,64.1,64.2c-0.1,35-27.1,63.9-64.2,64c-39.4,0-64.8-31.7-64.1-66.5
		C325.4,505.2,354.2,477.2,389,477.4z M347.7,542.7c0.1,24.2,17,40.7,41.2,40.9c25.1,0.2,41.6-19.8,41.5-39.2
		c-0.1-28.4-21.3-42.5-40.5-43.1C364.1,500.5,347.5,521.3,347.7,542.7z"/>
	<path class="st8" d="M555.3,406.2c-0.4,20.4-15.2,41.3-42.7,40.3c-23.2-0.8-39.9-17.2-39.6-41.3c0.3-22,15.2-40.8,41.1-40.8
		C537.7,364.5,555,381.8,555.3,406.2z"/>
	<path class="st9" d="M427,203c23.4-0.4,41.5,17,41.6,40.3c0.2,20.2-13.7,40.2-37.8,41.6c-27.2,1.6-45.1-18.2-45.2-39.7
		C385.4,222.4,403,202.5,427,203z"/>
	<path class="st10" d="M347.7,542.7c-0.1-21.4,16.4-42.2,42.2-41.4c19.2,0.6,40.4,14.6,40.5,43.1c0.1,19.4-16.4,39.4-41.5,39.2
		C364.7,583.4,347.7,566.9,347.7,542.7z"/>
</g>
</svg>
