<?xml version="1.0" encoding="utf-8"?>
<!-- Generator: Adobe Illustrator 21.0.0, SVG Export Plug-In . SVG Version: 6.00 Build 0)  -->
<svg version="1.1" id="Calque_1" xmlns="http://www.w3.org/2000/svg" xmlns:xlink="http://www.w3.org/1999/xlink" x="0px" y="0px"
	 viewBox="0 0 367 459" style="enable-background:new 0 0 367 459;" xml:space="preserve">
<style type="text/css">
	.st0{fill:#FFFFFF;}
	.st1{fill:#FC0316;}
</style>
<path class="st0" d="M301.5,454.5h-235c-36.5,0-66-29.5-66-66v-318c0-36.5,29.5-66,66-66h235c36.5,0,66,29.5,66,66v318
	C367.5,425,338,454.5,301.5,454.5z"/>
<circle class="st1" cx="177.5" cy="174.5" r="150.5"/>
<g>
	<path d="M79.7,152.6c5.3,0.2,6.6-1.2,7.4-5.5c1.2-7,3.7-13.5,9.1-18.4c3.2-2.8,6.9-4.4,11.2-3.1c1.2,0.4,2.7,1.5,3,2.5
		c0.3,1.3-0.3,3.6-1.1,4c-2,0.9-2.4-0.9-2.5-2.6c0-0.3-0.3-0.6-0.7-1.4c-1,0.8-2.3,1.2-2.9,2.2c-4.4,6.5-7.9,13.5-7.7,21.7
		c0,1,0.2,2.1,0.5,3.1c0.8,2.6,3.2,3.2,5.1,1.2c1.2-1.3,2.3-2.8,2.9-4.3c3.1-8.5,6.1-17,9.2-25.4c0.3-0.9,2-2.1,2.7-1.9
		c1.7,0.5,4.3,1.4,4.6,2.7c0.7,2.4,0.6,5.4-0.2,7.8c-1.6,5.1-4,9.9-5.9,14.9c-0.7,1.8-1.1,3.7-1.7,5.5c0.3,0.3,0.7,0.6,1,0.9
		c1-0.7,2.5-1.3,3.1-2.3c2.8-5.1,5.6-10.2,7.9-15.4c1.7-3.7,2.7-7.7,3.8-11.6c0.9-3.1,4.3-4.3,6.7-2.1c0.8,0.7,1.3,1.6,1.6,2.1
		c3.5-1.5,6.8-4,10.1-4c4.6,0.1,4,5.1,5.1,9.1c1-1.3,1.6-2.2,2.2-3c1.5-1.9,2.8-4.1,4.7-5.5c1.6-1.2,4.4-2.4,5.8-1.7
		c1.7,0.7,3.2,3.3,3.6,5.4c1.1,6.3-1.8,12.1-3.8,17.9c-0.9,2.5-1.5,5.1-2.2,7.7c0.5,0.3,1,0.6,1.5,0.9c1.2-1.1,2.6-2,3.4-3.3
		c2.9-4.9,5.6-9.9,8.3-14.9c0.5-0.8,1-1.6,1.4-2.4c0.3,0.1,0.6,0.2,0.9,0.2c0.1,0.7,0.4,1.6,0.1,2.1c-3.1,5.7-6.2,11.4-9.5,17
		c-0.8,1.3-2.3,2.3-3.7,3.1c-3.4,2.1-6.4,0.9-7.7-2.9c-1.7-4.9-0.3-9.7,1.3-14.3c1.1-3.3,2.6-6.5,3.6-9.8c0.3-1.1-0.3-2.5-0.5-3.8
		c-1.1,0.6-2.5,0.9-3.1,1.7c-6.1,8.8-11.6,17.9-13.4,28.8c-0.2,0.9-1.3,2.5-1.8,2.4c-1.8-0.3-4.2-0.7-5.1-2c-1-1.5-1.4-4.1-0.9-5.9
		c1.9-6.2,4.4-12.2,6.5-18.4c0.6-1.6,0.7-3.4,1.1-5.1c-0.3-0.2-0.7-0.4-1-0.6c-1,0.7-2.1,1.2-2.9,2.1c-6.9,8.3-10.7,18.1-13,28.5
		c-0.2,1-1.1,2.5-1.7,2.5c-1.2,0.1-2.7-0.4-3.7-1.2c-1-0.8-1.5-2.3-2.1-3.4c-2.6,1.9-4.9,4.2-7.7,5.7c-2.6,1.3-4.7-0.7-6.2-4.8
		c-3.4,2.1-6.7,5.2-10.5,6c-4.5,1-7.7-2.4-9.3-7c-2.4,0.7-4.7,1.1-6.7,2.1c-1,0.5-1.9,2-2.2,3.2c-5.2,18.8-17.5,30.8-35.6,37.2
		c-5.3,1.9-10.6,2.8-16.1,1.6c-7-1.6-9.7-8-6.1-14.3c3.2-5.6,8.2-9.3,13.8-12c10-4.7,20.2-8.9,30.3-13.4c1.1-0.5,2.3-1.9,2.5-3.1
		c1.7-9,2.3-18-0.7-26.9c-2.3-6.8-6.5-12.1-13.6-13.8c-7-1.7-13.6,0.2-18.7,5.3c-7.7,7.7-11.6,17.4-12.3,28.2
		c-0.1,2.3,0.7,4.8,1.7,6.9c1.1,2.1,0.4,3-1.4,3.7c-3.7,1.5-7.5-0.7-8.8-5.1c-1.7-5.8-0.5-11.3,1.7-16.7
		c6.7-16.8,25.6-28.3,43.6-26.4c10.8,1.1,18.3,7.5,20.1,18.2c1.2,6.9,1,14.1,1.3,21.2C79.7,150.8,79.7,151.6,79.7,152.6z
		 M65.1,162.5c-1.7,0.3-2.8,0.2-3.7,0.6c-8.9,3.9-18,7.6-26.6,12c-4.1,2.1-7.9,5.4-11.1,8.8c-3.7,4-3,9.4,1.3,11.3
		c2.5,1.1,6.1,1.1,8.7,0.2c8.4-2.9,15.6-7.9,21.5-14.4C59.7,175.8,63.5,170.1,65.1,162.5z"/>
	<path d="M313.2,140.9c1.2-1.2,2.5-2.4,3.5-3.7c5-6.7,8-14.4,10.5-22.3c2.9-9.1,5.5-18.2,8.5-27.3c0.3-1.1,2.4-2.2,3.6-2.2
		c2.5,0,4.5,1.7,4.2,4.2c-0.4,4.1-1.3,8.2-2.5,12.2c-1.5,5-3.4,9.8-5.1,14.6c0.3,0.2,0.6,0.4,0.9,0.6c1.8-1.7,3.6-3.3,5.3-5
		c2.5-2.6,4.9-5.3,7.3-8c0.9-1,1.4-3.4,3.3-1.8c1.4,1.2,2.8,3.4,2.7,5c-0.2,1.8-1.8,3.8-3.4,5c-3,2.4-6.3,4.3-9.6,6.3
		c-1.5,0.9-2.6,1.7-1.3,3.5c5.3,7.5,10.5,15.1,16.2,22.2c2.4,3,6.2,4.9,9.8,7.6c-0.7,4.6-7.2,6.7-12,2.7c-2.8-2.4-5.3-5.6-7.1-8.9
		c-3.5-6.4-6.3-13.2-9.5-19.8c-0.6-1.3-2.1-2.1-3.2-3.2c-1,1.2-2.6,2.2-3,3.5c-1.7,5-3,10.2-4.5,15.3c-0.2,0.8-0.8,2.1-1.2,2.1
		c-1.3,0.1-3.1,0.2-3.8-0.6c-1.2-1.3-1.8-3.3-2.9-5.4c-1.3,1.4-2.5,3.2-4.1,4.2c-1.8,1.2-4.2,2.5-6.1,2.3c-2.9-0.3-4.3-3.3-3.9-5.8
		c1.1-6.5,2.8-12.9,4.2-19.3c0.3-1.4,0.9-2.8,1.3-4.2c-4.9-1.4-6.2-0.7-7.9,3.4c-3,7-6,14.1-9.4,20.9c-1.1,2.3-3.2,4.3-5.2,6
		c-3.6,3-6.8,1.9-8.4-2.5c-0.2-0.5-0.3-1-0.5-1.6c-0.4-0.3-0.9-0.6-1.3-0.9c-0.6,1.2-0.9,2.7-1.8,3.7c-2.4,2.9-5.3,4.9-9.4,3.9
		c-4.3-1.1-6.7-3.9-7-8.1c-0.7-10.3,2.6-19,10.8-25.6c2.7-2.1,6.1-3.2,9.5-1.9c1.3,0.5,2.7,1.6,3.1,2.8c0.3,1.1-0.3,3.3-1.2,3.7
		c-2,0.9-2.4-0.9-2.5-2.5c0-0.3-0.3-0.6-0.7-1.4c-1.1,0.7-2.3,1.2-2.9,2.1c-4.4,6.5-7.9,13.4-7.7,21.6c0,0.6-0.1,1.3,0.2,1.7
		c0.8,1.3,1.5,3.1,2.6,3.5c0.9,0.3,2.8-0.9,3.5-2c1.8-2.7,3.5-5.6,4.6-8.6c2.4-6.7,4.4-13.6,6.8-20.4c0.3-0.8,2.2-1.9,3-1.6
		c1.7,0.6,4.1,1.6,4.4,2.9c0.6,2.3,0.5,5.2-0.2,7.5c-1.7,5.1-4,9.9-5.9,14.9c-0.7,1.9-1.1,3.8-1.6,5.8c0.4,0.2,0.7,0.5,1.1,0.7
		c1-0.7,2.3-1.3,3-2.2c3.9-5.3,7.8-10.7,9-17.5c0.2-1.1,0.7-2.2,1.1-3.3c1.2-3.2,2.8-6.2-1.1-9.1c-1.1-0.8-1.3-3.9-0.8-5.7
		c0.3-1.2,2.7-2.8,3.8-2.6c1.4,0.3,2.8,2.1,3.6,3.5c0.9,1.6,1.1,3.5,1.5,5.3c1.8-0.6,3.7-1.5,5.5-1.7c1.9-0.2,4.8-0.6,5.7,0.5
		c1.3,1.6,2.1,4.6,1.7,6.6c-1,4.4-2.9,8.6-4.5,12.8c-0.8,2.2-1.9,4.3-2.6,6.5c-0.4,1.3-0.4,2.8-0.6,4.3
		C312.4,140.5,312.8,140.7,313.2,140.9z"/>
	<path d="M224.3,147.8c5.9-1.4,10.8-4.2,14.9-8.6c8-8.7,8.8-24,1.6-31.8c-7.9-8.5-19.4-8.5-28.2,0.1c-5.2,5.1-8.4,11.3-8.8,18.5
		c-0.2,3.2,0.8,6.6,1.7,9.8c0.4,1.5,2.5,2.9,0.2,4.5c-2.1,1.4-4.3,1.8-6.4-0.1c-3.6-3.3-4.6-7.5-4.2-12.1c1.6-17,23-35.7,44.1-28.7
		c19,6.3,24.6,25.7,8.9,41.8c-5.4,5.6-12.1,9.1-20.2,8.7c-1.2-0.1-2.4-0.6-3.6-0.8C224.3,148.6,224.3,148.2,224.3,147.8z"/>
	<path d="M228.5,115.4c-1.8,7.2-3.6,14.3-5.5,21.5c-2.7,10.3-5.4,20.6-8.3,30.9c-0.3,1-1.5,2.4-2.4,2.5c-1.5,0.1-3.7-0.4-4.3-1.4
		c-1.1-1.7-1.9-4.2-1.5-6.1c3-13.1,6.4-26.1,9.6-39.2c0.7-2.9,1.4-5.9,1.9-8.8c0.6-4.1,1.6-5.2,5-5
		C226.2,109.9,227.6,111.6,228.5,115.4z"/>
	<path d="M49.2,129c-2.2,5.8-4.3,11.7-6.5,17.5c-1.8,5-3.8,10-5.4,15c-0.7,2.1-0.7,4.6-3.8,4.5c-2.4-0.1-4.8-3-4.4-5.8
		c0.6-3.5,1.4-7.1,2.6-10.5c2-6.1,4.4-12,6.6-18c0.4-1.2,0.9-2.5,0.9-3.7c0-3.4,1.8-4.6,4.9-4.5c3.1,0.2,4,2.4,4.1,5.1
		C48.6,128.8,48.9,128.9,49.2,129z"/>
</g>
<circle class="st0" cx="184.5" cy="339.5" r="114.5"/>
<g>
	<g>
		<path d="M107.6,176.5c52-14.3,106.2-19.7,160-15.9c1.9,0.1,1.9-2.9,0-3c-54.1-3.8-108.5,1.6-160.8,16
			C105,174.1,105.7,177,107.6,176.5L107.6,176.5z"/>
	</g>
</g>
<g>
	<path d="M72.6,411.2c0-1.1,0-1.8,0-2.7c3.4,0.3,6.1,1.5,7.9,4.4c0.1,0.2,0.2,0.3,0.3,0.5c4.2,5.8,8.5,5.9,12.8,0.2
		c1.7-2.3,3.5-4.3,6.4-4.8c4-0.8,7.3,0.3,9.8,3.7c0.3,0.4,0.7,0.9,1,1.3c0.1,0.1,0.2,0.1,0.6,0.2c0-62.2,0-124.4,0-186.7
		c4.4,0,8.6,0,12.8,0c1.2,0,1.9-0.3,2.6-1.4c3.5-5.9,7-11.7,10.5-17.6c0.4-0.7,0.6-1.6,0.6-2.5c0.1-3.1,0-6.2,0-9.5
		c6.5,0,12.9,0,19.4,0c0,3.2-0.1,6.3,0,9.4c0,0.9,0.3,1.9,0.7,2.6c3.5,5.9,7,11.7,10.5,17.6c0.3,0.6,1,1.3,1.6,1.3
		c3.6,0.1,7.2,0.1,11,0.1c0-4,0-7.9,0-12.1c0.9,0,1.6-0.1,2.3-0.1c7.5,0,15,0,22.5,0c1.3,0,2.1-0.4,2.7-1.5c3.1-5.6,6.3-11.1,9.7-17
		c0.9,1.6,1.8,2.8,2.4,4.2c0.6,1.4,1.5,1.8,3,1.7c3.5-0.2,6.8-1.2,9.6-3.3c2.7-2,4.9-4.2,4.3-8c-0.1-0.4,0.1-0.9,0.1-1.5
		c3.6,0,7,0,10.7,0c0,8.5,0,16.8,0,25.4c2.5,0,4.9,0,7.5,0c0,1.1,0,1.9,0,2.8c0,63.3,0,126.7,0,190c0,1.7,0.2,3.1,1.7,4.3
		c1,0.8,1.6,2.1,2.5,2.9c1.4,1.2,3,2.2,4.6,3.4c0.2-0.2,0.3-0.3,0.5-0.5c0,0.8,0,1.7,0,2.6c-3.2-0.1-5.8-1.2-7.7-3.8
		c-0.8-1.1-1.7-2.1-2.6-3.1c-2.6-2.9-6.4-2.9-9.1-0.1c-0.7,0.7-1.3,1.5-1.9,2.4c-4.5,6.4-12.2,6.4-16.6,0c-1.6-2.3-3.3-4.5-6.6-4.5
		c-2.9,0-4.7,1.9-6.2,4c-1.7,2.4-3.7,4.3-6.7,4.9c-4,0.7-7.2-0.4-9.7-3.6c-0.9-1.1-1.7-2.3-2.7-3.3c-2.4-2.6-6.1-2.7-8.6-0.2
		c-1,1-1.8,2-2.6,3.1c-4.3,5.6-11.8,5.6-16.1,0c-0.7-1-1.5-1.9-2.3-2.8c-2.5-2.7-6.2-2.8-8.8-0.2c-0.9,1-1.8,2-2.6,3.1
		c-4.2,5.5-11.5,5.5-15.7,0c-0.9-1.2-1.8-2.3-2.9-3.4c-2.4-2.2-5.8-2.2-8.2,0c-1,1-1.9,2.1-2.8,3.2c-4.3,5.6-11.6,5.7-15.8,0
		c-0.8-1-1.6-2-2.4-3c-2.5-2.7-5.9-2.9-8.6-0.4c-1,1-1.9,2.1-2.8,3.2c-4.3,5.6-11.5,5.6-15.8,0C77.6,413.9,75.9,411.5,72.6,411.2z
		 M164.7,401.7c0-3.6,0-7.1,0-10.8c2.8,0,5.4,0,8.1,0c0-2.7,0-5.2,0-8c2.8,0,5.5,0,8.2,0c0-51,0-101.7,0-152.6
		c-3.9,0-7.7-0.1-11.4,0c-1.4,0-2.2-0.5-2.9-1.7c-3.8-6.4-7.6-12.8-11.4-19.2c-0.5-0.9-0.8-2.1-0.9-3.2c-0.1-2.3,0-4.7,0-7
		c-4.7,0-9.1,0-13.6,0c0,2-0.1,3.8,0,5.6c0.1,2.1-0.4,3.9-1.5,5.7c-3.5,5.6-6.9,11.2-10.1,16.9c-1.2,2.2-2.5,2.9-4.9,2.7
		c-3.3-0.2-6.6-0.1-9.8-0.1c0,57.4,0,114.4,0,171.4c6.7,0,13.2,0,19.9,0c0-10.8,0-21.5,0-32.1c8.6,0,16.9,0,25.5,0
		c0,10.8,0,21.4,0,32.2C161.6,401.7,163,401.7,164.7,401.7z M253.1,382.9c0-48.9,0-97.6,0-146.4c-23,0-45.9,0-68.8,0
		c0,48.9,0,97.7,0,146.4C207.3,382.9,230.1,382.9,253.1,382.9z M253.1,386.2c-25.9,0-51.6,0-77.5,0c0,2.6,0,5.1,0,7.9
		c-2.7,0-5.2,0-8,0c0,3.7,0,7.2,0,10.8c-17.9,0-35.5,0-53.3,0c0,3.9-0.1,7.6,0.1,11.3c0,0.5,0.8,1.4,1.4,1.5
		c1.9,0.4,3.8,0.1,5.3-1.4c1.1-1.2,2.2-2.4,3.2-3.7c3.9-5.4,11.8-5.4,15.5,0.1c4.4,6.5,9.4,7.2,14.1,0.2c0.2-0.2,0.3-0.5,0.5-0.6
		c1-0.9,2-1.9,3.2-2.5c4.2-2.1,8.9-1,11.8,2.7c1.1,1.4,2.3,2.9,3.6,4.1c1.8,1.6,3.9,1.5,6.1,0.6c2-0.9,2.3-2.5,2.3-4.5
		c-0.1-4.4,0-8.8,0-13.2c0-1.5,0-2.9,0-4.5c1,0,1.8,0,2.9,0c0,5.4,0,10.8,0,16.3c5.4-4.6,11.5-3.7,15.5,1.8c0.5,0.7,1,1.3,1.5,1.9
		c3.1,3.6,6.7,3.6,9.8,0c1-1.1,1.7-2.5,2.7-3.5c4.4-4.7,11.9-3.9,15.4,1.5c1.5,2.4,3.3,4.5,6.5,4.6c2.8,0.1,4.6-1.5,6-3.6
		c2.8-4.2,6.6-6.2,11.8-5.4C253.1,401.2,253.1,393.8,253.1,386.2z M184.2,233.2c23.1,0,46,0,68.8,0c0-5.1,0-10.1,0-15.3
		c-2.5,0-4.9,0-7.5,0c0-8.5,0-16.8,0-25.2c-1.7,0-3.2,0-5,0c0,8.5,0,16.8,0,25.3c-4,0-7.8-0.1-11.6,0c-1.3,0-1.9-0.4-2.5-1.5
		c-2.6-4.6-5.2-9.1-8-13.9c-0.5,0.7-0.8,1.3-1.2,1.8c-2.2,3.8-4.5,7.6-6.6,11.4c-0.8,1.5-1.7,2.2-3.6,2.2
		c-6.9-0.1-13.8-0.1-20.7-0.1c-0.7,0-1.4,0-2.2,0C184.2,223.2,184.2,228.2,184.2,233.2z M156.8,401.7c0-10,0-19.7,0-29.3
		c-2.8,0-5.5,0-8.1,0c0,9.9,0,19.6,0,29.3C151.5,401.7,154.1,401.7,156.8,401.7z M137.5,401.7c2.8,0,5.4,0,8.1,0
		c0-9.8,0-19.5,0-29.3c-2.8,0-5.4,0-8.1,0C137.5,382.2,137.5,391.9,137.5,401.7z M237.6,210.2c-4.3-0.7-8.4-1.4-12.5-2
		c1.1,2,2.3,4.2,3.6,6.3c0.2,0.3,0.6,0.6,0.9,0.6c2.7,0.1,5.3,0,8,0C237.6,213.3,237.6,211.7,237.6,210.2z M227.1,205.8
		c3.4,0.4,6.3,0.8,9.3,1c0.4,0,1.2-0.6,1.2-0.9c0.1-2,0.1-4,0.1-5.7C234.2,202,231,203.8,227.1,205.8z"/>
	<path d="M295,433.4c0,1,0,1.8,0,2.7c-3.2-0.1-5.7-1.2-7.6-3.7c-1-1.3-2-2.6-3.1-3.7c-2.3-2.3-5.7-2.4-8-0.2c-1,1-1.9,2.1-2.7,3.3
		c-4.1,5.9-12.1,5.9-16.2,0c-0.7-1-1.4-2-2.3-2.8c-2.7-2.7-6.3-2.7-9,0c-1.6,1.6-2.8,3.5-4.4,5c-4.1,3.5-10.3,2.7-13.6-1.7
		c-0.9-1.2-1.8-2.4-2.9-3.4c-2.5-2.5-5.9-2.6-8.5-0.1c-1,0.9-1.8,2-2.6,3.1c-4.3,5.7-11.9,5.7-16.2,0c-0.8-1.1-1.7-2.2-2.6-3.1
		c-2.4-2.4-5.9-2.5-8.3-0.1c-1,0.9-1.8,2-2.6,3.1c-4.1,5.8-12,5.9-16.1,0c-0.3-0.5-0.7-1-1.1-1.5c-3.8-4.7-7.8-4.7-11.6,0
		c-0.9,1.1-1.8,2.4-2.9,3.4c-4.4,3.7-10.4,3-13.9-1.6c-0.9-1.2-1.8-2.4-2.9-3.4c-2.5-2.4-6-2.4-8.5,0c-1,0.9-1.8,2-2.6,3.1
		c-4.2,5.7-11.6,5.7-15.8,0.1c-1.7-2.2-3.2-4.5-6.3-5.1c-0.4-0.1-0.6-1.5-1-2.6c3.5-0.1,5.8,1.3,7.8,3.5c1.1,1.2,2,2.6,3.1,3.7
		c2.6,2.5,5.9,2.5,8.5,0c1.1-1.1,2.1-2.3,3-3.6c3.9-5,11.2-5,15.1-0.1c1,1.2,1.9,2.5,3,3.6c2.6,2.6,6,2.7,8.6,0.1
		c0.9-0.9,1.7-1.9,2.5-3c4.2-5.9,12.1-5.9,16.3,0c0,0.1,0.1,0.1,0.1,0.2c4.3,6.2,8.5,6.3,13.1,0.3c2.5-3.4,5.6-5.2,9.9-4.6
		c2.5,0.3,4.5,1.6,6.1,3.6c0.9,1.2,1.8,2.4,2.8,3.5c2.6,2.7,5.9,2.7,8.6,0c1-1,1.9-2.1,2.7-3.3c4.2-5.4,11.7-5.3,15.8,0.1
		c0.8,1.1,1.6,2.2,2.6,3.1c2.6,2.7,5.9,2.7,8.6,0.1c0.9-0.9,1.6-1.8,2.3-2.8c4.2-6,12.2-6,16.4,0c0.3,0.4,0.5,0.8,0.8,1.2
		c3.8,4.8,7.7,4.9,11.5,0.2c2.1-2.6,4.1-5.1,7.6-5.6c3.9-0.6,7,0.8,9.4,3.8C289.8,430.5,291.5,433,295,433.4z"/>
	<path class="st0" d="M164.7,401.7c-1.7,0-3.1,0-4.8,0c0-10.7,0-21.4,0-32.2c-8.6,0-16.9,0-25.5,0c0,10.6,0,21.3,0,32.1
		c-6.7,0-13.3,0-19.9,0c0-57,0-114.1,0-171.4c3.3,0,6.6-0.2,9.8,0.1c2.4,0.2,3.7-0.6,4.9-2.7c3.2-5.7,6.6-11.3,10.1-16.9
		c1.1-1.8,1.7-3.6,1.5-5.7c-0.1-1.8,0-3.6,0-5.6c4.5,0,8.9,0,13.6,0c0,2.3-0.1,4.6,0,7c0.1,1.1,0.3,2.3,0.9,3.2
		c3.7,6.4,7.6,12.8,11.4,19.2c0.7,1.2,1.5,1.7,2.9,1.7c3.8-0.1,7.5,0,11.4,0c0,50.9,0,101.7,0,152.6c-2.8,0-5.4,0-8.2,0
		c0,2.7,0,5.2,0,8c-2.7,0-5.3,0-8.1,0C164.7,394.7,164.7,398.1,164.7,401.7z M147.4,365.2c11.4,0,20.1-8.3,20.1-19.2
		c0.1-10.9-8.7-19.5-19.9-19.5c-11.7-0.1-20.4,8.2-20.4,19.3C127.2,356.8,135.9,365.1,147.4,365.2z M174.7,287.7
		c0-6.5,0-12.9,0-19.2c-4.3,0-8.6,0-12.8,0c0,6.5,0,12.8,0,19.2C166.3,287.7,170.4,287.7,174.7,287.7z M161.9,298
		c0,6.5,0,12.8,0,19.1c4.4,0,8.6,0,12.8,0c0-6.5,0-12.8,0-19.1C170.4,298,166.2,298,161.9,298z M174.7,257.8c0-6.4,0-12.8,0-19.1
		c-4.3,0-8.6,0-12.8,0c0,6.4,0,12.7,0,19.1C166.3,257.8,170.5,257.8,174.7,257.8z M133,287.7c0-6.5,0-12.8,0-19.3
		c-4.2,0-8.3,0-12.4,0c0,6.5,0,12.8,0,19.3C124.8,287.7,128.8,287.7,133,287.7z M133,317.1c0-6.4,0-12.7,0-19.1c-4.2,0-8.3,0-12.4,0
		c0,6.4,0,12.7,0,19.1C124.7,317.1,128.8,317.1,133,317.1z M120.6,238.7c0,6.5,0,12.8,0,19.2c4.2,0,8.3,0,12.4,0
		c0-6.4,0-12.7,0-19.2C128.8,238.7,124.8,238.7,120.6,238.7z M142,262.6c3.9,0,7.6,0,11.3,0c0-8,0-15.9,0-23.8c-3.8,0-7.5,0-11.3,0
		C142,246.7,142,254.6,142,262.6z M153.3,321.8c0-8,0-15.9,0-23.8c-3.8,0-7.5,0-11.3,0c0,8,0,15.8,0,23.8
		C145.8,321.8,149.5,321.8,153.3,321.8z M142,268.4c0,8.1,0,15.9,0,23.8c3.9,0,7.6,0,11.2,0c0-8,0-15.9,0-23.8
		C149.4,268.4,145.8,268.4,142,268.4z M143.5,215.2c0,5.3,0,10.4,0,15.5c2.8,0,5.5,0,8.1,0c0-5.3,0-10.3,0-15.5
		C148.8,215.2,146.2,215.2,143.5,215.2z"/>
	<path class="st0" d="M253.1,382.9c-22.9,0-45.8,0-68.8,0c0-48.8,0-97.5,0-146.4c22.9,0,45.8,0,68.8,0
		C253.1,285.3,253.1,334,253.1,382.9z M233,339.9c0,13,0,25.8,0,38.7c5.2,0,10.3,0,15.4,0c0-13,0-25.8,0-38.7
		C243.3,339.9,238.3,339.9,233,339.9z M204.2,378.6c0-13,0-25.8,0-38.6c-5.3,0-10.3,0-15.4,0c0,13,0,25.8,0,38.6
		C194,378.6,199.1,378.6,204.2,378.6z M226.3,378.6c0-13,0-25.8,0-38.7c-5.2,0-10.2,0-15.3,0c0,12.9,0,25.8,0,38.7
		C216.1,378.6,221.2,378.6,226.3,378.6z M233.1,301.3c0,10.1,0,20,0,29.9c5.2,0,10.2,0,15.4,0c0-10,0-19.9,0-29.9
		C243.3,301.3,238.3,301.3,233.1,301.3z M248.4,292.7c0-10.1,0-19.9,0-29.8c-5.2,0-10.3,0-15.4,0c0,10,0,19.9,0,29.8
		C238.2,292.7,243.2,292.7,248.4,292.7z M204.2,331.2c0-10.1,0-20,0-29.9c-5.2,0-10.3,0-15.4,0c0,10,0,19.9,0,29.9
		C194,331.2,199,331.2,204.2,331.2z M188.8,292.6c5.2,0,10.3,0,15.4,0c0-10,0-19.8,0-29.8c-5.2,0-10.3,0-15.4,0
		C188.8,272.8,188.8,282.7,188.8,292.6z M226.4,301.3c-5.3,0-10.3,0-15.4,0c0,10,0,19.9,0,29.9c5.2,0,10.3,0,15.4,0
		C226.4,321.2,226.4,311.3,226.4,301.3z M226.3,292.7c0-10.1,0-19.9,0-29.8c-5.2,0-10.3,0-15.4,0c0,10,0,19.8,0,29.8
		C216.1,292.7,221.2,292.7,226.3,292.7z M248.4,241.3c-5.2,0-10.3,0-15.4,0c0,4.6,0,9.1,0,13.6c5.2,0,10.3,0,15.4,0
		C248.4,250.3,248.4,245.9,248.4,241.3z M204.2,255c0-4.7,0-9.2,0-13.7c-5.2,0-10.3,0-15.4,0c0,4.6,0,9.1,0,13.7
		C194,255,199,255,204.2,255z M226.3,241.4c-5.2,0-10.3,0-15.3,0c0,4.7,0,9.1,0,13.6c5.2,0,10.2,0,15.4,0c0-4.2,0-8.4,0-12.5
		C226.4,242.1,226.4,241.8,226.3,241.4z"/>
	<path class="st0" d="M253.1,386.2c0,7.6,0,15,0,22.6c-5.2-0.8-9,1.2-11.8,5.4c-1.4,2.1-3.2,3.7-6,3.6c-3.2-0.1-4.9-2.3-6.5-4.6
		c-3.5-5.4-11-6.2-15.4-1.5c-1,1.1-1.7,2.4-2.7,3.5c-3.1,3.6-6.7,3.5-9.8,0c-0.5-0.6-1-1.3-1.5-1.9c-3.9-5.5-10.1-6.4-15.5-1.8
		c0-5.6,0-10.9,0-16.3c-1,0-1.8,0-2.9,0c0,1.5,0,3,0,4.5c0,4.4-0.1,8.8,0,13.2c0.1,2-0.2,3.6-2.3,4.5c-2.1,0.9-4.3,1-6.1-0.6
		c-1.3-1.2-2.5-2.7-3.6-4.1c-2.9-3.7-7.6-4.9-11.8-2.7c-1.2,0.6-2.1,1.6-3.2,2.5c-0.2,0.2-0.3,0.4-0.5,0.6
		c-4.7,6.9-9.7,6.3-14.1-0.2c-3.7-5.5-11.6-5.5-15.5-0.1c-1,1.3-2,2.5-3.2,3.7c-1.4,1.5-3.3,1.8-5.3,1.4c-0.6-0.1-1.3-1-1.4-1.5
		c-0.1-3.7-0.1-7.4-0.1-11.3c17.8,0,35.4,0,53.3,0c0-3.6,0-7.1,0-10.8c2.8,0,5.4,0,8,0c0-2.7,0-5.2,0-7.9
		C201.5,386.2,227.2,386.2,253.1,386.2z"/>
	<path class="st0" d="M184.2,233.2c0-5.1,0-10,0-15.3c0.8,0,1.5,0,2.2,0c6.9,0,13.8-0.1,20.7,0.1c1.9,0,2.7-0.6,3.6-2.2
		c2.1-3.9,4.4-7.6,6.6-11.4c0.3-0.6,0.7-1.1,1.2-1.8c2.7,4.8,5.4,9.3,8,13.9c0.6,1.1,1.3,1.5,2.5,1.5c3.8-0.1,7.6,0,11.6,0
		c0-8.5,0-16.8,0-25.3c1.8,0,3.3,0,5,0c0,8.4,0,16.7,0,25.2c2.6,0,5,0,7.5,0c0,5.2,0,10.2,0,15.3
		C230.2,233.2,207.3,233.2,184.2,233.2z M202.4,225.5c-3.7,0-7.1,0-10.7,0c0,0.9,0,1.8,0,2.7c3.6,0,7.1,0,10.7,0
		C202.4,227.3,202.4,226.5,202.4,225.5z M223.5,225.5c-3.7,0-7.2,0-10.6,0c0,1,0,1.8,0,2.7c3.6,0,7.1,0,10.6,0
		C223.5,227.3,223.5,226.5,223.5,225.5z M234,228.2c3.6,0,7,0,10.6,0c0-1,0-1.8,0-2.7c-3.6,0-7,0-10.6,0
		C234,226.5,234,227.3,234,228.2z"/>
	<path class="st0" d="M156.8,401.7c-2.7,0-5.3,0-8.1,0c0-9.7,0-19.4,0-29.3c2.6,0,5.3,0,8.1,0C156.8,382.1,156.8,391.8,156.8,401.7z
		"/>
	<path class="st0" d="M137.5,401.7c0-9.8,0-19.5,0-29.3c2.7,0,5.3,0,8.1,0c0,9.7,0,19.4,0,29.3C143,401.7,140.4,401.7,137.5,401.7z"
		/>
	<path class="st0" d="M237.6,210.2c0,1.4,0,3,0,4.9c-2.7,0-5.4,0-8,0c-0.3,0-0.7-0.3-0.9-0.6c-1.2-2.1-2.4-4.3-3.6-6.3
		C229.2,208.9,233.3,209.5,237.6,210.2z"/>
	<path class="st0" d="M227.1,205.8c3.8-2.1,7.1-3.8,10.5-5.6c0,1.7,0.1,3.7-0.1,5.7c0,0.4-0.8,1-1.2,0.9
		C233.4,206.6,230.5,206.2,227.1,205.8z"/>
	<path d="M147.4,365.2c-11.5,0-20.2-8.4-20.2-19.4c0-11.1,8.8-19.4,20.4-19.3c11.2,0.1,20,8.6,19.9,19.5
		C167.4,356.9,158.7,365.2,147.4,365.2z M130.2,345.7c0,9.2,7.4,16.5,16.7,16.4c9.4,0,16.8-7.2,16.9-16.3c0.1-9.2-7.5-16.4-17-16.4
		C137.4,329.5,130.2,336.5,130.2,345.7z"/>
	<path d="M174.7,287.7c-4.3,0-8.5,0-12.8,0c0-6.4,0-12.8,0-19.2c4.2,0,8.5,0,12.8,0C174.7,274.8,174.7,281.1,174.7,287.7z
		 M164.8,271.2c0,4.6,0,8.9,0,13.3c0.7,0,1.2,0,1.8,0c0-4.5,0-8.9,0-13.3C166,271.2,165.4,271.2,164.8,271.2z M170,271.2
		c0,4.6,0,8.9,0,13.3c0.7,0,1.3,0,1.9,0c0-4.5,0-8.9,0-13.3C171.2,271.2,170.6,271.2,170,271.2z"/>
	<path d="M161.9,298c4.3,0,8.5,0,12.8,0c0,6.3,0,12.7,0,19.1c-4.2,0-8.4,0-12.8,0C161.9,310.8,161.9,304.5,161.9,298z M164.8,300.8
		c0,4.6,0,8.9,0,13.4c0.7-0.1,1.3-0.1,1.8-0.2c0-4.5,0-8.9,0-13.3C166,300.8,165.5,300.8,164.8,300.8z M171.9,300.8
		c-0.8,0.1-1.4,0.1-1.9,0.2c0,4.5,0,8.8,0,13.3c0.7-0.1,1.3-0.1,1.9-0.2C171.9,309.6,171.9,305.3,171.9,300.8z"/>
	<path d="M174.7,257.8c-4.2,0-8.5,0-12.8,0c0-6.4,0-12.7,0-19.1c4.3,0,8.5,0,12.8,0C174.7,245.1,174.7,251.4,174.7,257.8z
		 M166.7,254.8c0-4.5,0-8.9,0-13.4c-0.7,0-1.3,0.1-1.9,0.1c0,4.5,0,8.9,0,13.3C165.5,254.8,166,254.8,166.7,254.8z M171.9,254.8
		c0-4.5,0-8.9,0-13.3c-0.7,0-1.3,0.1-1.9,0.1c0,4.5,0,8.8,0,13.2C170.6,254.8,171.2,254.8,171.9,254.8z"/>
	<path d="M133,287.7c-4.2,0-8.2,0-12.4,0c0-6.4,0-12.8,0-19.3c4.1,0,8.2,0,12.4,0C133,274.9,133,281.2,133,287.7z M125.2,271.3
		c-1.3-0.4-1.9-0.1-1.9,1.3c0.1,3.5,0.1,7,0,10.5c0,1.5,0.6,1.7,1.9,1.3C125.2,280,125.2,275.7,125.2,271.3z M130.1,271.3
		c-1.5-0.5-1.9,0-1.9,1.4c0.1,3.4,0,6.9,0,10.3c0,1.7,0,1.7,1.9,1.3C130.1,280,130.1,275.7,130.1,271.3z"/>
	<path d="M133,317.1c-4.2,0-8.3,0-12.4,0c0-6.4,0-12.7,0-19.1c4.2,0,8.2,0,12.4,0C133,304.4,133,310.7,133,317.1z M125.2,314.1
		c0-4.5,0-8.8,0-13.9c-0.9,0.8-1.8,1.2-1.8,1.6c-0.1,4.1-0.1,8.2-0.1,12.3C124.1,314.1,124.7,314.1,125.2,314.1z M130.1,314.1
		c0-4.5,0-8.8,0-13.1c-1.3-0.3-1.9-0.1-1.9,1.3c0.1,3.5,0.1,7,0,10.5C128.2,314.1,128.8,314.4,130.1,314.1z"/>
	<path d="M120.6,238.7c4.2,0,8.3,0,12.4,0c0,6.4,0,12.7,0,19.2c-4.2,0-8.2,0-12.4,0C120.6,251.4,120.6,245.2,120.6,238.7z
		 M125.2,254.8c0-4.5,0-8.8,0-13.1c-0.1-0.1-0.3-0.3-0.4-0.4c-0.5,0.4-1.3,0.9-1.4,1.3c-0.1,4-0.1,8.1-0.1,12.2
		C124.1,254.8,124.6,254.8,125.2,254.8z M130.1,254.8c0-4.5,0-8.8,0-13.2c-1.3-0.3-1.9-0.1-1.9,1.3c0.1,3.5,0.1,7,0,10.5
		C128.2,254.9,128.8,255.1,130.1,254.8z"/>
	<path d="M142,262.6c0-8,0-15.9,0-23.8c3.8,0,7.5,0,11.3,0c0,8,0,15.8,0,23.8C149.6,262.6,145.9,262.6,142,262.6z M150.4,241.7
		c-2,0-3.8,0-5.5,0c0,6.1,0,12.1,0,18c2,0,3.7,0,5.5,0C150.4,253.6,150.4,247.7,150.4,241.7z"/>
	<path d="M153.3,321.8c-3.8,0-7.5,0-11.3,0c0-8,0-15.8,0-23.8c3.8,0,7.4,0,11.3,0C153.3,305.9,153.3,313.8,153.3,321.8z
		 M150.4,300.9c-2,0-3.8,0-5.6,0c0,6.1,0,12,0,18c1.9,0,3.7,0,5.6,0C150.4,312.9,150.4,307,150.4,300.9z"/>
	<path d="M142,268.4c3.8,0,7.4,0,11.2,0c0,7.9,0,15.8,0,23.8c-3.6,0-7.4,0-11.2,0C142,284.3,142,276.5,142,268.4z M150.4,289.4
		c0-6.2,0-12.1,0-18.1c-2,0-3.7,0-5.5,0c0,6.1,0,12.1,0,18.1C146.8,289.4,148.5,289.4,150.4,289.4z"/>
	<path d="M143.5,215.2c2.8,0,5.3,0,8.1,0c0,5.1,0,10.2,0,15.5c-2.6,0-5.3,0-8.1,0C143.5,225.6,143.5,220.5,143.5,215.2z
		 M146.5,218.1c0,3.2,0,6.4,0,9.5c0.8,0,1.5,0,2.2,0c0-3.3,0-6.4,0-9.5C147.9,218.1,147.2,218.1,146.5,218.1z"/>
	<path d="M233,339.9c5.2,0,10.3,0,15.4,0c0,12.9,0,25.7,0,38.7c-5.2,0-10.2,0-15.4,0C233,365.7,233,352.9,233,339.9z M235.9,357.6
		c1.2,0,2.2,0,3.3,0c0-5,0-9.9,0-14.8c-1.1,0-2.2,0-3.3,0C235.9,347.7,235.9,352.6,235.9,357.6z M245.5,357.6c0-5.1,0-10,0-14.8
		c-1.1,0-2.1,0-3.1,0c0,5,0,9.9,0,14.8C243.4,357.6,244.4,357.6,245.5,357.6z M236,360.6c0,5.1,0,10,0,14.9c1.2,0,2.1,0,3,0
		c0-5.1,0-9.9,0-14.9C237.9,360.6,237,360.6,236,360.6z M245.4,375.6c0-5.1,0-10,0-14.9c-1.1,0-2.1,0-3.1,0c0,5,0,9.9,0,14.9
		C243.4,375.6,244.3,375.6,245.4,375.6z"/>
	<path d="M204.2,378.6c-5.2,0-10.2,0-15.4,0c0-12.9,0-25.7,0-38.6c5,0,10.1,0,15.4,0C204.2,352.8,204.2,365.6,204.2,378.6z
		 M194.9,342.8c-1.2,0-2.1,0-3.1,0c0,5,0,9.8,0,14.7c1.1,0,2.1,0,3.1,0C194.9,352.6,194.9,347.7,194.9,342.8z M194.8,360.7
		c-1.2,0-2.2,0-3.2,0c0,4.3,0,8.4,0,12.5c0,2.8,0.1,2.9,3.2,2.3C194.8,370.6,194.8,365.7,194.8,360.7z M198.1,342.7
		c0,5.1,0,10,0,14.8c1.1,0,2.1,0,3.1,0c0-5,0-9.9,0-14.8C200.1,342.7,199.2,342.7,198.1,342.7z M201.1,375.6c0-5.1,0-10,0-14.9
		c-1.1,0-2,0-3.1,0c0,5,0,9.9,0,14.9C199.1,375.6,200.1,375.6,201.1,375.6z"/>
	<path d="M226.3,378.6c-5.1,0-10.2,0-15.3,0c0-12.9,0-25.7,0-38.7c5.1,0,10.1,0,15.3,0C226.3,352.8,226.3,365.6,226.3,378.6z
		 M223.4,357.6c0-5,0-9.8,0-14.8c-1.1,0-2.1,0-3.2,0c0,5,0,9.9,0,14.8C221.4,357.6,222.3,357.6,223.4,357.6z M213.9,342.7
		c0,5.1,0,10,0,14.9c1.2,0,2.1,0,3.2,0c0-5,0-9.9,0-14.9C216.1,342.7,215.1,342.7,213.9,342.7z M217.1,375.6c0-5,0-10,0-14.9
		c-1.2,0-2.3,0-3.3,0c0,5.1,0,9.9,0,14.9C215,375.6,216,375.6,217.1,375.6z M223.4,375.5c0-5,0-9.9,0-14.9c-1.1,0-2.1,0-3.3,0
		c0,0.8-0.1,1.5-0.1,2.2c0,3.3,0,6.6,0,9.9C220.1,375.9,220.1,375.9,223.4,375.5z"/>
	<path d="M233.1,301.3c5.2,0,10.3,0,15.4,0c0,10,0,19.9,0,29.9c-5.2,0-10.2,0-15.4,0C233.1,321.3,233.1,311.4,233.1,301.3z
		 M242.3,314.5c1.1,0,2.1,0,3.1,0c0-3.5,0-6.9,0-10.4c-1.1,0-2.1,0-3.1,0C242.3,307.6,242.3,311,242.3,314.5z M235.9,304.2
		c0,3.5,0,6.9,0,10.4c1.1,0,2.1,0,3,0c0-3.6,0-7,0-10.4C237.9,304.2,237,304.2,235.9,304.2z M245.4,328.3c0-3.6,0-7.1,0-10.5
		c-1.1,0-2.1,0-3.1,0c0,3.6,0,7,0,10.5C243.3,328.3,244.3,328.3,245.4,328.3z M235.9,317.7c0,3.7,0,7.1,0,10.6c1.1,0,2.1,0,3.1,0
		c0-3.6,0-7,0-10.6C237.9,317.7,236.9,317.7,235.9,317.7z"/>
	<path d="M248.4,292.7c-5.2,0-10.3,0-15.4,0c0-9.9,0-19.8,0-29.8c5.1,0,10.2,0,15.4,0C248.4,272.8,248.4,282.6,248.4,292.7z
		 M235.9,276.3c1.2,0,2.2,0,3.3,0c0-3.6,0-7.1,0-10.7c-1.1,0-2.2,0-3.3,0C235.9,269.2,235.9,272.7,235.9,276.3z M245.5,265.6
		c-1.1,0-2.1,0-3.1,0c0,3.6,0,7.2,0,10.7c1.1,0,2.1,0,3.1,0C245.5,272.7,245.5,269.2,245.5,265.6z M239,289.7c0-3.6,0-6.9,0-10.2
		c-1.2,0-2.1,0-3,0c0,3.5,0,6.9,0,10.2C237,289.7,237.9,289.7,239,289.7z M242.3,279.6c0,3.5,0,6.8,0,10.1c1.1,0,2.1,0,3.1,0
		c0-3.4,0-6.7,0-10.1C244.4,279.6,243.4,279.6,242.3,279.6z"/>
	<path d="M204.2,331.2c-5.2,0-10.2,0-15.4,0c0-10,0-19.9,0-29.9c5.1,0,10.2,0,15.4,0C204.2,311.2,204.2,321.1,204.2,331.2z
		 M191.8,314.5c1.1,0,2,0,3.1,0c0-3.5,0-6.9,0-10.4c-1.1,0-2,0-3.1,0C191.8,307.6,191.8,311,191.8,314.5z M191.7,317.8
		c0,3.6,0,7,0,10.6c1.1,0,2.1,0,3.1,0c0-3.6,0-7,0-10.6C193.7,317.8,192.7,317.8,191.7,317.8z M198,317.8c0,3.7,0,7.1,0,10.5
		c1.1,0,2.1,0,3.1,0c0-3.6,0-7,0-10.5C200,317.8,199.1,317.8,198,317.8z M198.1,304.2c0,3.6,0,7,0,10.4c1.1,0,2,0,3.1,0
		c0-3.5,0-6.9,0-10.4C200.2,304.2,199.2,304.2,198.1,304.2z"/>
	<path d="M188.8,292.6c0-9.9,0-19.8,0-29.8c5.1,0,10.2,0,15.4,0c0,9.9,0,19.8,0,29.8C199.1,292.6,194,292.6,188.8,292.6z
		 M191.8,265.6c0,3.7,0,7.3,0,10.8c1.1,0,2,0,3,0c0-3.6,0-7.2,0-10.8C193.8,265.6,192.9,265.6,191.8,265.6z M194.8,289.8
		c0-3.6,0-6.9,0-10.2c-1.2,0-2.2,0-3.1,0c0,3.5,0,6.8,0,10.2C192.8,289.8,193.7,289.8,194.8,289.8z M198.1,265.6c0,3.7,0,7.2,0,10.8
		c1.1,0,2,0,3.1,0c0-3.6,0-7.2,0-10.8C200.2,265.6,199.2,265.6,198.1,265.6z M201.1,289.8c0-3.5,0-6.8,0-10.2c-1.1,0-2,0-3.1,0
		c0,3.4,0,6.8,0,10.2C199.1,289.8,200,289.8,201.1,289.8z"/>
	<path d="M226.4,301.3c0,10,0,19.8,0,29.9c-5.1,0-10.2,0-15.4,0c0-10,0-19.8,0-29.9C216.1,301.3,221.1,301.3,226.4,301.3z
		 M217.2,314.6c0-3.6,0-7,0-10.4c-1.2,0-2.2,0-3.3,0c0,3.5,0,6.9,0,10.4C215,314.6,216,314.6,217.2,314.6z M220.2,304.1
		c0,3.6,0,7,0,10.4c1.1,0,2.1,0,3.2,0c0-3.5,0-6.9,0-10.4C222.3,304.1,221.3,304.1,220.2,304.1z M220.3,317.8c0,3.7,0,7.1,0,10.5
		c1.2,0,2.1,0,3.1,0c0-3.6,0-7,0-10.5C222.3,317.8,221.4,317.8,220.3,317.8z M213.9,317.8c0,3.6,0,7.1,0,10.6c1.2,0,2.2,0,3.3,0
		c0-3.5,0-7,0-10.6C216,317.8,215,317.8,213.9,317.8z"/>
	<path d="M226.3,292.7c-5.2,0-10.2,0-15.4,0c0-9.9,0-19.8,0-29.8c5.1,0,10.2,0,15.4,0C226.3,272.7,226.3,282.6,226.3,292.7z
		 M220.2,265.6c0,3.7,0,7.2,0,10.8c1.1,0,2.1,0,3.2,0c0-3.6,0-7.1,0-10.8C222.3,265.6,221.4,265.6,220.2,265.6z M213.9,265.6
		c0,3.6,0,7.2,0,10.7c1.2,0,2.2,0,3.2,0c0-3.7,0-7.2,0-10.7C216,265.6,215,265.6,213.9,265.6z M217.1,289.7c0-3.5,0-6.9,0-10.2
		c-1.2,0-2.3,0-3.3,0c0,3.5,0,6.8,0,10.2C215,289.7,216,289.7,217.1,289.7z M220.2,289.8c1.2,0,2.2,0,3.2,0c0-3.4,0-6.8,0-10.1
		c-1.1,0-2.1,0-3.2,0C220.2,283.1,220.2,286.3,220.2,289.8z"/>
	<path d="M248.4,241.3c0,4.5,0,9,0,13.6c-5.2,0-10.3,0-15.4,0c0-4.6,0-9,0-13.6C238.1,241.3,243.2,241.3,248.4,241.3z M239,244.3
		c-1.2,0-2.2,0-3.1,0c0,2.7,0,5.2,0,7.8c1.1,0,2,0,3.1,0C239,249.5,239,247,239,244.3z M242.4,244.3c0,2.7,0,5.3,0,7.8
		c1.1,0,2.1,0,3.1,0c0-2.7,0-5.2,0-7.8C244.4,244.3,243.5,244.3,242.4,244.3z"/>
	<path d="M204.2,255c-5.2,0-10.2,0-15.4,0c0-4.6,0-9,0-13.7c5.1,0,10.1,0,15.4,0C204.2,245.8,204.2,250.3,204.2,255z M194.8,244.5
		c-1.1,0-2.1,0-3,0c0,2.7,0,5.2,0,7.9c1.1,0,2,0,3,0C194.8,249.7,194.8,247.1,194.8,244.5z M198.1,252.2c1.2,0,2.2,0,3.1,0
		c0-2.7,0-5.3,0-7.9c-1.1,0-2.1,0-3.1,0C198.1,247,198.1,249.6,198.1,252.2z"/>
	<path d="M226.3,241.4c0,0.4,0.1,0.8,0.1,1.2c0,4.1,0,8.2,0,12.5c-5.2,0-10.2,0-15.4,0c0-4.5,0-9,0-13.6
		C216.1,241.4,221.1,241.4,226.3,241.4z M213.9,252.3c1.2,0,2.2,0,3.2,0c0-2.7,0-5.3,0-7.9c-1.2,0-2.1,0-3.2,0
		C213.9,247,213.9,249.5,213.9,252.3z M223.4,252.3c0-2.8,0-5.4,0-8.1c-1.1,0-2.1,0-3.1,0c0,2.7,0,5.4,0,8.1
		C221.4,252.3,222.3,252.3,223.4,252.3z"/>
	<path d="M202.4,225.5c0,1,0,1.8,0,2.7c-3.6,0-7.1,0-10.7,0c0-0.9,0-1.8,0-2.7C195.2,225.5,198.7,225.5,202.4,225.5z"/>
	<path d="M223.5,225.5c0,0.9,0,1.7,0,2.7c-3.5,0-7,0-10.6,0c0-0.9,0-1.7,0-2.7C216.3,225.5,219.8,225.5,223.5,225.5z"/>
	<path d="M234,228.2c0-0.9,0-1.8,0-2.7c3.5,0,7,0,10.6,0c0,0.9,0,1.8,0,2.7C241.1,228.2,237.6,228.2,234,228.2z"/>
	<path class="st0" d="M130.2,345.7c0-9.2,7.2-16.3,16.6-16.3c9.6,0,17.1,7.2,17,16.4c-0.1,9.1-7.5,16.3-16.9,16.3
		C137.5,362.2,130.1,355,130.2,345.7z M148.9,360.9c4.3,0,9.3-2.2,12.4-7.8c2.9-5.4,2.6-10.8-0.8-15.9c-3.6-5.3-8.9-6.9-15-6.5
		c-5.4,0.3-9.6,2.6-12.4,7.2c-3.1,5.1-3.1,10.4-0.2,15.6C136,358.8,141,360.9,148.9,360.9z"/>
	<path class="st0" d="M164.8,271.2c0.6,0,1.2,0,1.8,0c0,4.4,0,8.8,0,13.3c-0.6,0-1.2,0-1.8,0C164.8,280.1,164.8,275.8,164.8,271.2z"
		/>
	<path class="st0" d="M170,271.2c0.7,0,1.2,0,1.9,0c0,4.4,0,8.8,0,13.3c-0.6,0-1.2,0-1.9,0C170,280.1,170,275.8,170,271.2z"/>
	<path class="st0" d="M164.8,300.8c0.6,0,1.2,0,1.8,0c0,4.4,0,8.7,0,13.3c-0.5,0-1.1,0.1-1.8,0.2
		C164.8,309.8,164.8,305.4,164.8,300.8z"/>
	<path class="st0" d="M171.9,300.8c0,4.6,0,8.8,0,13.3c-0.6,0.1-1.2,0.1-1.9,0.2c0-4.5,0-8.8,0-13.3
		C170.5,300.9,171.1,300.8,171.9,300.8z"/>
	<path class="st0" d="M166.7,254.8c-0.7,0-1.2,0-1.9,0c0-4.4,0-8.8,0-13.3c0.6,0,1.2-0.1,1.9-0.1C166.7,246,166.7,250.3,166.7,254.8
		z"/>
	<path class="st0" d="M171.9,254.8c-0.7,0-1.2,0-1.9,0c0-4.4,0-8.7,0-13.2c0.6,0,1.2-0.1,1.9-0.1C171.9,246,171.9,250.3,171.9,254.8
		z"/>
	<path class="st0" d="M125.2,271.3c0,4.4,0,8.7,0,13.1c-1.3,0.4-1.9,0.2-1.9-1.3c0.1-3.5,0.1-7,0-10.5
		C123.3,271.2,123.9,270.9,125.2,271.3z"/>
	<path class="st0" d="M130.1,271.3c0,4.4,0,8.7,0,13c-1.8,0.3-1.9,0.3-1.9-1.3c0-3.4,0-6.9,0-10.3
		C128.2,271.3,128.6,270.8,130.1,271.3z"/>
	<path class="st0" d="M125.2,314.1c-0.6,0-1.1,0-1.8,0c0-4.1,0-8.2,0.1-12.3c0-0.4,0.9-0.8,1.8-1.6
		C125.2,305.2,125.2,309.6,125.2,314.1z"/>
	<path class="st0" d="M130.1,314.1c-1.3,0.3-1.9,0.1-1.9-1.3c0.1-3.5,0.1-7,0-10.5c0-1.4,0.6-1.6,1.9-1.3
		C130.1,305.2,130.1,309.6,130.1,314.1z"/>
	<path class="st0" d="M125.2,254.8c-0.6,0-1.2,0-1.9,0c0-4.1,0-8.2,0.1-12.2c0-0.5,0.9-0.9,1.4-1.3c0.1,0.1,0.3,0.3,0.4,0.4
		C125.2,246,125.2,250.3,125.2,254.8z"/>
	<path class="st0" d="M130.1,254.8c-1.3,0.3-1.9,0.1-1.9-1.3c0.1-3.5,0.1-7,0-10.5c0-1.4,0.6-1.6,1.9-1.3
		C130.1,246,130.1,250.3,130.1,254.8z"/>
	<path class="st0" d="M150.4,241.7c0,6,0,11.9,0,18c-1.8,0-3.6,0-5.5,0c0-5.9,0-11.9,0-18C146.6,241.7,148.4,241.7,150.4,241.7z"/>
	<path class="st0" d="M150.4,300.9c0,6.1,0,12,0,18c-1.8,0-3.6,0-5.6,0c0-6,0-11.9,0-18C146.6,300.9,148.4,300.9,150.4,300.9z"/>
	<path class="st0" d="M150.4,289.4c-1.9,0-3.6,0-5.5,0c0-6,0-12,0-18.1c1.8,0,3.5,0,5.5,0C150.4,277.2,150.4,283.2,150.4,289.4z"/>
	<path class="st0" d="M146.5,218.1c0.8,0,1.4,0,2.2,0c0,3.1,0,6.2,0,9.5c-0.7,0-1.4,0-2.2,0C146.5,224.4,146.5,221.3,146.5,218.1z"
		/>
	<path class="st0" d="M235.9,357.6c0-5,0-9.8,0-14.8c1.1,0,2.1,0,3.3,0c0,4.9,0,9.8,0,14.8C238.1,357.6,237.1,357.6,235.9,357.6z"/>
	<path class="st0" d="M245.5,357.6c-1.1,0-2,0-3.1,0c0-4.9,0-9.8,0-14.8c1,0,1.9,0,3.1,0C245.5,347.6,245.5,352.5,245.5,357.6z"/>
	<path class="st0" d="M236,360.6c0.9,0,1.9,0,3,0c0,5,0,9.8,0,14.9c-0.9,0-1.8,0-3,0C236,370.7,236,365.8,236,360.6z"/>
	<path class="st0" d="M245.4,375.6c-1.1,0-2,0-3.1,0c0-5,0-9.9,0-14.9c1,0,2,0,3.1,0C245.4,365.6,245.4,370.5,245.4,375.6z"/>
	<path class="st0" d="M194.9,342.8c0,4.9,0,9.8,0,14.7c-1.1,0-2,0-3.1,0c0-4.9,0-9.7,0-14.7C192.7,342.8,193.7,342.8,194.9,342.8z"
		/>
	<path class="st0" d="M194.8,360.7c0,5,0,9.9,0,14.7c-3.1,0.6-3.2,0.5-3.2-2.3c0-4.1,0-8.2,0-12.5
		C192.6,360.7,193.6,360.7,194.8,360.7z"/>
	<path class="st0" d="M198.1,342.7c1.1,0,2,0,3.1,0c0,4.9,0,9.8,0,14.8c-1,0-2,0-3.1,0C198.1,352.7,198.1,347.8,198.1,342.7z"/>
	<path class="st0" d="M201.1,375.6c-1,0-2,0-3.1,0c0-5,0-9.9,0-14.9c1,0,2,0,3.1,0C201.1,365.6,201.1,370.5,201.1,375.6z"/>
	<path class="st0" d="M223.4,357.6c-1.1,0-2.1,0-3.2,0c0-4.9,0-9.8,0-14.8c1.1,0,2.1,0,3.2,0C223.4,347.7,223.4,352.6,223.4,357.6z"
		/>
	<path class="st0" d="M213.9,342.7c1.1,0,2.1,0,3.2,0c0,5,0,9.9,0,14.9c-1.1,0-2.1,0-3.2,0C213.9,352.7,213.9,347.8,213.9,342.7z"/>
	<path class="st0" d="M217.1,375.6c-1.1,0-2.1,0-3.3,0c0-4.9,0-9.8,0-14.9c1,0,2.1,0,3.3,0C217.1,365.6,217.1,370.6,217.1,375.6z"/>
	<path class="st0" d="M223.4,375.5c-3.3,0.4-3.3,0.4-3.3-2.7c0-3.3,0-6.6,0-9.9c0-0.7,0.1-1.4,0.1-2.2c1.2,0,2.2,0,3.3,0
		C223.4,365.7,223.4,370.6,223.4,375.5z"/>
	<path class="st0" d="M242.3,314.5c0-3.5,0-6.9,0-10.4c1.1,0,2,0,3.1,0c0,3.4,0,6.8,0,10.4C244.4,314.5,243.4,314.5,242.3,314.5z"/>
	<path class="st0" d="M235.9,304.2c1,0,1.9,0,3,0c0,3.4,0,6.8,0,10.4c-1,0-1.9,0-3,0C235.9,311.1,235.9,307.7,235.9,304.2z"/>
	<path class="st0" d="M245.4,328.3c-1.1,0-2,0-3.1,0c0-3.5,0-6.9,0-10.5c1,0,2,0,3.1,0C245.4,321.3,245.4,324.7,245.4,328.3z"/>
	<path class="st0" d="M235.9,317.7c1,0,2,0,3.1,0c0,3.5,0,7,0,10.6c-1,0-2,0-3.1,0C235.9,324.8,235.9,321.4,235.9,317.7z"/>
	<path class="st0" d="M235.9,276.3c0-3.6,0-7.1,0-10.7c1.1,0,2.2,0,3.3,0c0,3.6,0,7,0,10.7C238.2,276.3,237.1,276.3,235.9,276.3z"/>
	<path class="st0" d="M245.5,265.6c0,3.6,0,7.1,0,10.7c-1.1,0-2,0-3.1,0c0-3.6,0-7.1,0-10.7C243.4,265.6,244.3,265.6,245.5,265.6z"
		/>
	<path class="st0" d="M239,289.7c-1,0-1.9,0-3,0c0-3.4,0-6.7,0-10.2c0.9,0,1.9,0,3,0C239,282.8,239,286.2,239,289.7z"/>
	<path class="st0" d="M242.3,279.6c1.1,0,2.1,0,3.1,0c0,3.4,0,6.7,0,10.1c-1,0-1.9,0-3.1,0C242.3,286.4,242.3,283.1,242.3,279.6z"/>
	<path class="st0" d="M191.8,314.5c0-3.5,0-6.9,0-10.4c1.1,0,2,0,3.1,0c0,3.5,0,6.9,0,10.4C193.8,314.5,192.8,314.5,191.8,314.5z"/>
	<path class="st0" d="M191.7,317.8c1,0,2,0,3.1,0c0,3.5,0,7,0,10.6c-1,0-2,0-3.1,0C191.7,324.8,191.7,321.4,191.7,317.8z"/>
	<path class="st0" d="M198,317.8c1.1,0,2,0,3.1,0c0,3.5,0,6.9,0,10.5c-1,0-2,0-3.1,0C198,324.9,198,321.4,198,317.8z"/>
	<path class="st0" d="M198.1,304.2c1.1,0,2.1,0,3.1,0c0,3.5,0,6.9,0,10.4c-1.1,0-2,0-3.1,0C198.1,311.2,198.1,307.8,198.1,304.2z"/>
	<path class="st0" d="M191.8,265.6c1.1,0,2,0,3,0c0,3.6,0,7.2,0,10.8c-1,0-1.9,0-3,0C191.8,272.8,191.8,269.3,191.8,265.6z"/>
	<path class="st0" d="M194.8,289.8c-1.1,0-2,0-3.1,0c0-3.4,0-6.7,0-10.2c0.9,0,2,0,3.1,0C194.8,282.9,194.8,286.2,194.8,289.8z"/>
	<path class="st0" d="M198.1,265.6c1.1,0,2.1,0,3.1,0c0,3.6,0,7.1,0,10.8c-1.1,0-2.1,0-3.1,0C198.1,272.7,198.1,269.2,198.1,265.6z"
		/>
	<path class="st0" d="M201.1,289.8c-1.1,0-2,0-3.1,0c0-3.4,0-6.7,0-10.2c1,0,2,0,3.1,0C201.1,283,201.1,286.3,201.1,289.8z"/>
	<path class="st0" d="M217.2,314.6c-1.2,0-2.1,0-3.3,0c0-3.5,0-6.9,0-10.4c1,0,2.1,0,3.3,0C217.2,307.6,217.2,311,217.2,314.6z"/>
	<path class="st0" d="M220.2,304.1c1.1,0,2.1,0,3.2,0c0,3.5,0,6.9,0,10.4c-1.1,0-2,0-3.2,0C220.2,311.1,220.2,307.7,220.2,304.1z"/>
	<path class="st0" d="M220.3,317.8c1.1,0,2.1,0,3.1,0c0,3.5,0,7,0,10.5c-1,0-2,0-3.1,0C220.3,324.9,220.3,321.4,220.3,317.8z"/>
	<path class="st0" d="M213.9,317.8c1.2,0,2.1,0,3.3,0c0,3.6,0,7,0,10.6c-1.1,0-2.1,0-3.3,0C213.9,324.9,213.9,321.4,213.9,317.8z"/>
	<path class="st0" d="M220.2,265.6c1.1,0,2.1,0,3.2,0c0,3.6,0,7.1,0,10.8c-1.1,0-2.1,0-3.2,0C220.2,272.8,220.2,269.3,220.2,265.6z"
		/>
	<path class="st0" d="M213.9,265.6c1.1,0,2.1,0,3.2,0c0,3.5,0,7.1,0,10.7c-1,0-2.1,0-3.2,0C213.9,272.7,213.9,269.2,213.9,265.6z"/>
	<path class="st0" d="M217.1,289.7c-1.1,0-2.1,0-3.3,0c0-3.4,0-6.7,0-10.2c1,0,2.1,0,3.3,0C217.1,282.8,217.1,286.2,217.1,289.7z"/>
	<path class="st0" d="M220.2,289.8c0-3.4,0-6.7,0-10.1c1.1,0,2.1,0,3.2,0c0,3.3,0,6.7,0,10.1C222.4,289.8,221.4,289.8,220.2,289.8z"
		/>
	<path class="st0" d="M239,244.3c0,2.6,0,5.2,0,7.8c-1,0-2,0-3.1,0c0-2.6,0-5.1,0-7.8C236.8,244.3,237.8,244.3,239,244.3z"/>
	<path class="st0" d="M242.4,244.3c1.1,0,2,0,3.1,0c0,2.6,0,5.2,0,7.8c-1,0-2,0-3.1,0C242.4,249.5,242.4,247,242.4,244.3z"/>
	<path class="st0" d="M194.8,244.5c0,2.6,0,5.2,0,7.9c-1.1,0-2,0-3,0c0-2.6,0-5.2,0-7.9C192.8,244.5,193.7,244.5,194.8,244.5z"/>
	<path class="st0" d="M198.1,252.2c0-2.6,0-5.2,0-7.9c1,0,2,0,3.1,0c0,2.6,0,5.2,0,7.9C200.3,252.2,199.3,252.2,198.1,252.2z"/>
	<path class="st0" d="M213.9,252.3c0-2.7,0-5.2,0-7.9c1.1,0,2.1,0,3.2,0c0,2.6,0,5.2,0,7.9C216.1,252.3,215.1,252.3,213.9,252.3z"/>
	<path class="st0" d="M223.4,252.3c-1.1,0-2,0-3.1,0c0-2.7,0-5.3,0-8.1c1.1,0,2,0,3.1,0C223.4,246.9,223.4,249.5,223.4,252.3z"/>
	<path d="M148.9,360.9c-8,0-13-2.1-16-7.5c-3-5.2-2.9-10.5,0.2-15.6c2.8-4.6,7-6.9,12.4-7.2c6.2-0.4,11.4,1.3,15,6.5
		c3.4,5.1,3.7,10.5,0.8,15.9C158.3,358.7,153.2,360.9,148.9,360.9z M145.5,344.2c0-3.6,0-7,0-10.4c-5.6,0.1-11.1,5.5-10.7,10.4
		C138.3,344.2,141.8,344.2,145.5,344.2z M159.4,344.2c-0.7-5.8-5.1-9.9-10.7-10.3c0,3.4,0,6.8,0,10.3
		C152.3,344.2,155.8,344.2,159.4,344.2z M145.5,347.5c-3.8,0-7.3,0-10.8,0c0.3,5.4,5.5,10.3,10.8,10.2
		C145.5,354.3,145.5,351,145.5,347.5z M159.3,347.3c-3.3,0-6.6,0-9.8,0c-0.3,0-0.9,0.6-0.9,1c-0.1,3.1,0,6.2,0,9.2
		C153.8,357.8,158.8,352.9,159.3,347.3z"/>
	<path class="st0" d="M145.5,344.2c-3.7,0-7.2,0-10.7,0c-0.4-4.9,5.1-10.3,10.7-10.4C145.5,337.2,145.5,340.6,145.5,344.2z"/>
	<path class="st0" d="M159.4,344.2c-3.6,0-7.1,0-10.7,0c0-3.5,0-6.9,0-10.3C154.3,334.3,158.7,338.5,159.4,344.2z"/>
	<path class="st0" d="M145.5,347.5c0,3.5,0,6.8,0,10.2c-5.3,0.1-10.6-4.8-10.8-10.2C138.2,347.5,141.7,347.5,145.5,347.5z"/>
	<path class="st0" d="M159.3,347.3c-0.5,5.6-5.5,10.4-10.8,10.3c0-3.1,0-6.1,0-9.2c0-0.4,0.6-1,0.9-1
		C152.8,347.3,156,347.3,159.3,347.3z"/>
</g>
</svg>
