<?xml version="1.0" encoding="utf-8"?>
<!-- Generator: Adobe Illustrator 21.0.0, SVG Export Plug-In . SVG Version: 6.00 Build 0)  -->
<svg version="1.1" id="Calque_1" xmlns="http://www.w3.org/2000/svg" xmlns:xlink="http://www.w3.org/1999/xlink" x="0px" y="0px"
	 viewBox="0 0 768 670" style="enable-background:new 0 0 768 670;" xml:space="preserve">
<style type="text/css">
	.st0{fill:#FFFFFF;}
</style>
<g>
	<g>
		<path class="st0" d="M1,671C1,447.7,1,224.3,1,1c256,0,512,0,768,0c0,223.3,0,446.7,0,670C513,671,257,671,1,671z M379,253.8
			c-1.3-2.5-2.2-4.1-3-5.7c-5.8-12.7-13.4-24.2-23.2-34.1c-20.2-20.4-44.2-30.7-73.1-25.9c-25.2,4.3-43.5,19-56.5,40.6
			c-10,16.6-14.5,34.9-16.1,54c-0.5,6.1-0.1,12.4-0.1,19.1c3.1-1.7,5.4-3.1,7.7-4.3c24.4-12.6,53-7.5,70.7,13.5
			c16.7,19.9,20.9,43.5,16.8,68.5c-1.4,8.7-6,16.9-9.3,25.7c35,21,65.7,47.6,86.4,84.5c9-18.9,22.6-34,37.7-47.7
			c15.1-13.7,31.3-26.2,47-39.1c-15-27.2-13.2-55.3,1.7-82.5c12.9-23.5,37.7-34.7,62.4-29.2c7.8,1.8,15.1,5.6,22.7,8.6
			c0.1-1,0.3-2.6,0.2-4.2c-1-10.3-1.3-20.6-3.2-30.7c-5-26.1-17-48.2-39.5-63.5c-31.4-21.2-74.8-15.6-103.2,13
			C394,225.5,385.6,238.3,379,253.8z M186.1,339.1c-1.1-2-1.8-3.1-2.3-4.2c-5.8-11.4-13.6-21.2-24.1-28.8
			c-14-10.1-36.7-11.5-51.6-2.8c-17.2,10-26.1,25.6-29.8,44.5c-4.7,24.1-1,46.4,18.1,63.6c8.5,7.6,17.9,14.5,27.6,20.5
			c15.9,9.8,31.8,19.6,44.3,33.8c6.5,7.4,12.4,15.4,18.6,23.1c-0.1,0.1,0.2,0,0.4-0.3c11.3-19.2,27.3-33.9,45-46.8
			c11.6-8.4,24-15.6,35.5-24c9.7-7.1,18.7-15.5,23.1-27c10.4-26.6,6.5-51.9-10.9-74.3c-11.8-15.2-28.5-20.9-47.6-17.5
			c-15.4,2.8-27.6,11.3-36.6,24.1C192.4,327.9,189.7,333.2,186.1,339.1z M571.3,489.6c13.2-21.4,31-37.8,51.2-51.6
			c10-6.9,20.6-13,30.3-20.2c9.7-7.1,18.6-15.6,23.2-27c10.2-25.5,6.6-50-9-71.9c-15.1-21.1-39.6-26.2-63.1-15.3
			c-13.7,6.4-23,17.3-29.7,30.6c-0.7,1.4-1.4,2.8-2.7,5.3c-1.5-2.6-2.4-4.3-3.5-5.9c-3.6-5.6-6.8-11.5-11.1-16.5
			c-21.3-25.4-56.2-26.4-78.2-2.2c-9.3,10.3-14.1,22.9-16.1,36.5c-3.6,24.1,1.2,45.6,20.7,61.8c9.6,7.9,19.8,15.2,30.5,21.6
			C537,448.7,557.2,465.5,571.3,489.6z"/>
		<path d="M379,253.8c6.5-15.5,15-28.3,26-39.4c28.4-28.6,71.8-34.2,103.2-13c22.6,15.2,34.5,37.4,39.5,63.5
			c1.9,10.1,2.2,20.5,3.2,30.7c0.1,1.6-0.1,3.2-0.2,4.2c-7.7-3-15-6.8-22.7-8.6c-24.6-5.6-49.5,5.6-62.4,29.2
			c-14.9,27.2-16.8,55.2-1.7,82.5c-15.6,12.9-31.9,25.4-47,39.1c-15,13.7-28.6,28.9-37.7,47.7c-20.7-36.9-51.4-63.4-86.4-84.5
			c3.3-8.8,7.9-17,9.3-25.7c4.1-25-0.1-48.6-16.8-68.5c-17.7-21-46.3-26.1-70.7-13.5c-2.3,1.2-4.6,2.5-7.7,4.3
			c0-6.7-0.4-12.9,0.1-19.1c1.6-19.1,6.1-37.4,16.1-54c13-21.6,31.3-36.3,56.5-40.6c28.9-4.9,52.9,5.5,73.1,25.9
			c9.8,9.9,17.4,21.4,23.2,34.1C376.8,249.8,377.7,251.3,379,253.8z"/>
		<path d="M186.1,339.1c3.5-5.9,6.3-11.1,9.7-16c9-12.8,21.2-21.3,36.6-24.1c19.1-3.5,35.8,2.2,47.6,17.5
			c17.4,22.4,21.3,47.6,10.9,74.3c-4.5,11.4-13.4,19.9-23.1,27c-11.5,8.4-23.9,15.6-35.5,24c-17.8,12.8-33.7,27.6-45,46.8
			c-0.2,0.3-0.5,0.4-0.4,0.3c-6.2-7.8-12.1-15.7-18.6-23.1c-12.5-14.2-28.4-23.9-44.3-33.8c-9.7-6-19.1-12.8-27.6-20.5
			c-19.1-17.2-22.8-39.4-18.1-63.6c3.7-18.9,12.6-34.5,29.8-44.5c14.9-8.7,37.6-7.4,51.6,2.8c10.5,7.6,18.3,17.3,24.1,28.8
			C184.4,336,185,337.1,186.1,339.1z"/>
		<path d="M571.3,489.6c-14.1-24.1-34.3-40.9-57.5-54.8c-10.7-6.4-20.9-13.7-30.5-21.6c-19.5-16.1-24.3-37.7-20.7-61.8
			c2-13.6,6.8-26.2,16.1-36.5c22-24.2,56.9-23.3,78.2,2.2c4.2,5.1,7.4,11,11.1,16.5c1,1.6,1.9,3.3,3.5,5.9c1.3-2.5,2-3.9,2.7-5.3
			c6.7-13.3,15.9-24.2,29.7-30.6c23.5-11,48-5.8,63.1,15.3c15.7,21.9,19.2,46.4,9,71.9c-4.6,11.4-13.5,19.8-23.2,27
			c-9.8,7.2-20.3,13.3-30.3,20.2C602.3,451.8,584.5,468.2,571.3,489.6z"/>
	</g>
</g>
</svg>
