<?xml version="1.0" encoding="utf-8"?>
<!-- Generator: Adobe Illustrator 21.0.0, SVG Export Plug-In . SVG Version: 6.00 Build 0)  -->
<svg version="1.1" id="Calque_1" xmlns="http://www.w3.org/2000/svg" xmlns:xlink="http://www.w3.org/1999/xlink" x="0px" y="0px"
	 viewBox="0 0 692 940" style="enable-background:new 0 0 692 940;" xml:space="preserve">
<style type="text/css">
	.st0{fill:#FFFFFF;stroke:#000000;stroke-width:6;stroke-miterlimit:10;}
	.st1{fill:#00AD75;}
	.st2{fill:#91CDBA;}
	.st3{fill:#A0D0C1;}
	.st4{fill:#DDEDE8;}
</style>
<path class="st0" d="M524,758h52c56.7,0,103-46.3,103-103V125c0-56.7-46.3-103-103-103H112C55.3,22,9,68.3,9,125v530
	c0,56.7,46.3,103,103,103h238l162,160l-8-160H524z"/>
<g>
	<path class="st1" d="M344.5,54c0.4,10.3,3.1,20.3,4.7,30.5c2.2,14,5,28,7.3,42c0.5,2.7,0.8,4,4,2.7c3.5-1.5,7.7-5.3,10.6-3.3
		c2.2,1.5,1.8,7,2.3,10.7c2.9,19.7,5.6,39.5,8.4,59.2c0.5,3.6,1.1,7.2,1.7,11.6c3.5-4.3,6.4-8,10.2-12.6c0.6,9,1.1,16.7,1.6,24.4
		c1.1,19.3,2.4,38.5,3.3,57.8c0.2,3.7,1.4,3.6,4.1,2.7c4.2-1.4,8.6-2.5,12.8-4c2.9-1.1,3.5-0.5,2.9,2.5
		c-4.2,20.1-8.3,40.3-12.4,60.4c-1.8,8.9-3.4,17.9-5.5,26.7c-1,4.2,0.7,3.4,3.1,2.4c4.8-1.8,9.7-3.6,14.6-5.4
		c0.9,1.9-0.3,3.6-0.8,5.2c-7.3,24.1-14.6,48.3-22.2,72.3c-1.4,4.4-0.4,5.4,4,5.2c7.8-0.3,7.8-0.1,4.7,7.1
		c-4.3,9.9-8.6,19.8-12.8,29.8c-0.5,1.2-2,2.7-0.1,3.8c2.3,1.3,2.3-1.2,2.9-2.2c10.7-17.4,21.2-34.8,32.1-52.7
		c2.6,4.5,3.3,9.3,5.4,14.6c14.6-19.7,29-39.1,43.6-58.9c1.8,3.5,3.5,6.4,4.8,9.6c1.4,3.3,2.6,4.6,6.1,1.7
		c13.9-11.3,28.1-22.3,42.2-33.3c1.5-1.2,3.1-2.3,4.9-3.5c1.1,3.9-1.3,7.2-0.4,11c2.5-0.4,4.4-2.1,6.3-3.3
		c13.9-9,27.8-18.1,41.6-27.3c3.2-2.1,5.1-2.5,6,1.8c0.2,0.8,0.6,1.6,0.8,2.4c0.8,3.3,1.8,4.2,5.3,1.9c13.7-9.1,27.6-17.9,41.4-26.7
		c1.3-0.9,2.5-2.1,5.3-2.1c-12.6,15.3-24.7,30.1-36.7,44.8c0.3,0.4,0.4,0.8,0.7,1c8.9,4.9,8.9,4.9,2.1,12.9
		c-10.5,12.4-21,24.9-31.5,37.3c-0.6,0.7-1,1.7-1.6,2.7c4,1.3,7.6-1.3,11.9,0c-3.7,3.7-7.2,7.2-10.7,10.7
		c-10.8,10.8-21.6,21.8-32.6,32.5c-2.6,2.5-2.1,3.7,0.6,5.4c3.1,1.9,6,4.1,9.6,6.7c-8.7,5.1-17,9.9-25.2,14.6
		c-11.5,6.7-22.9,13.4-34.5,19.9c-2.8,1.6-2.5,2.4-0.1,3.9c3.1,1.8,6.1,3.8,10,6.2c-20.3,9.3-39.8,18.2-59.3,27.1
		c1.1,4.1,3.3,4.5,7,2.9c7.6-3.3,15.4-6.1,24-9.4c-1,3.7-1.9,6.8-3.1,10.8c19-4.3,37.6-8.5,56.9-12.9c-1,4.3-1.9,8.1-2.8,12.2
		c17,0,33.9-0.1,50.8,1.3c-0.8,2.4-3.6,3-5.3,5.3c5,1.8,10,1.4,14.8,1.9c10.4,1.2,20.9,2.1,31.3,2.9c3.8,0.3,4,1.9,2.5,4.6
		c-2.2,3.8-0.4,4.7,3.2,5c13.7,1.3,27.4,2.8,41.1,4.2c0,1.6-1.2,1.5-2.1,1.7c-12.9,2.5-25.7,5.1-38.7,7.4c-3.3,0.6-4.4,1.5-3.1,4.7
		c1.3,3.1,1,4.7-3.3,5.3c-13.8,2-27.5,4.7-41.2,7.2c-1.1,0.2-2.1,0.6-3.6,1.2c2.7,2,4.9,3.6,8,6c-8.6,0.9-16.3,1.7-23.9,2.4
		c-7.8,0.8-15.5,1.7-23.3,2.2c-3.9,0.3-3.9,1.9-2.5,4.8c0.9,1.9,1.5,4,2.4,6.8c-19.4-2.7-38.2-5.3-57.6-8c1.6,3.7,2.9,6.9,4.6,11
		c-17.4-4.1-34.1-8.1-50.8-12.1c-1.4,2,0,3.9-0.1,6.7c-5.6-1.9-11-3.7-16.3-5.6c-7.7-2.7-15.4-5.4-23-8.1c-1.3-0.4-2.9-1.2-3.5,0.2
		c-0.7,1.7,1.4,1.9,2.5,2.5c7.2,3.5,14.3,6.9,21.5,10.3c-0.5,1.8-2.5,1.7-3.5,3.8c5.5,3,11.1,6.1,16.6,9.2c1.7,1,3.5,1.9,5.2,2.9
		c2.2,1.4,6.5,2.3,1.3,5.7c-2.2,1.5,0,2.5,0.9,3.4c4.8,4.6,9.8,9.1,14.5,13.7c0.6,0.6,4.8,1.9,0,3.3c-1.6,0.5,0.3,2.3,1.1,3.1
		c4.2,4.7,8.4,9.5,12.9,14c2.5,2.5,2.9,4.1-1.2,5.2c5.7,6.2,11.1,12.1,16.6,18.1c-0.2,0.3-0.4,0.5-0.6,0.8c-5-3.1-9.9-6.3-15-9.2
		c-1.8-1-4.2-3.9-5,1.1c-0.4,2.2-1.9,0.4-2.6,0c-6-3.6-11.9-7.3-17.8-10.8c-1-0.6-2-2.8-3.1,0.3c-0.9,2.5-2.5,0.2-3.4-0.4
		c-4.8-3.3-9.4-6.9-14.1-10.3c-4.6-3.5-4.6-3.5-7,2.2c-6.6-8-13.1-15.7-19.6-23.5c-2.2,0.5-0.8,3.6-3.3,4.2
		c-4.4-6.6-8.9-13.3-13.4-20c-0.9-1.3-1.3-3.5-4-1.4c-1.9,1.6-2.3-1-2.9-2.1c-4.4-7.8-8.7-15.6-13.1-23.4c-3.3,1.9-1,4.7-1.1,7.1
		c0.8,15.3,1.6,30.6,2.4,45.9c0.6,12.3,1.2,24.6,2,36.9c0.3,4-0.6,5.5-5,5.3c-10.6-0.3-10.8-0.1-10.3-10.8
		c1.3-25.7,2.8-51.5,4.2-77.2c0-2.4,1.7-5-1-7c-4,7.6-8,15.3-12,22.9c-0.8,1.4-0.8,4.5-4,1.9c-1.6-1.4-2.3,1-3,2
		c-4.6,6.7-9,13.4-13.6,20.2c-1.9-0.9-1.2-3.3-2.9-4.8c-6.5,7.8-13,15.6-19.8,23.7c-1-1.9-1.5-4.4-2.5-4.7c-1.6-0.5-3.1,1.5-4.5,2.6
		c-4.5,3.4-9,6.8-13.7,10c-1.1,0.7-3.1,4.4-4.3-0.3c-0.3-1.2-1.6,0.1-2.4,0.6c-6.6,4.1-13.3,8.1-20.4,12.5c0.1-5.7-2.5-4.4-5.4-2.5
		c-4.9,3.1-9.9,6.1-15.5,8.3c4.3-5,8.4-10.1,13-14.8c2.6-2.7,2.3-4-1.3-5.2c5.2-5.7,10.3-11,15-16.5c0.7-0.8,5.2-2.6,0.1-4.2
		c-1.2-0.4,0.3-1.6,0.9-2.1c4.5-4.2,8.9-8.5,13.5-12.6c3.2-2.8,4.7-5.1-1.3-7.6c9.4-5.3,18.1-10.2,27.3-15.4c-2.1-1.5-3.8-2.8-6-4.4
		c6.8-3,13.2-5.8,19.7-8.6c1.4-1,3.4-0.9,4.7-2.1c0.4-4-2-1.4-2.9-1.1c-12.1,4.1-24.1,8.2-36.2,12.4c-0.8,0.3-1.5,0.5-2.3,0.7
		c-0.3-0.4-0.7-0.6-0.7-0.8c0.6-5.9,0.6-5.9-5.2-4.5c-13.7,3.3-27.3,6.6-41,9.9c-1.3,0.3-2.6,0.4-4.6,0.7c1.6-3.6,2.9-6.7,4.7-10.7
		c-8,1.1-15.2,2.2-22.4,3.2c-10.5,1.5-21,2.9-31.5,4.3c-2.7,0.4-3.8,0.2-2.9-3.3c2.1-7.6,1.9-7.4-6-8.1c-14-1.2-28-2.7-42.5-4.2
		c1.7-3,5-3.6,7.6-6.3c-7.1-1.4-13.7-2.6-20.2-3.8c-8.3-1.5-16.7-3.2-25.1-4.4c-3.6-0.5-4.6-1.3-2.4-4.4c2.5-3.7,1.8-5-2.9-5.6
		c-12.2-1.7-24.2-4.2-36.3-6.4c-0.6-0.1-1.1-0.4-1.5-1.4c7.1-0.8,14.3-1.7,21.4-2.4c6.6-0.7,13.2-1.3,19.8-2
		c2.5-0.3,4.2-1.2,2.5-4.1c-2.5-4.2,0-4.9,3.5-5.3c13.1-1.2,26.2-2.5,39.2-3.8c1.6-0.2,3.3,0,5-1c-0.3-2.7-4.2-2.5-4.5-5.4
		c16.8-1.5,33.5-1.2,50.5-1.4c-1-4-1.8-7.6-2.9-11.9c19.1,4.7,37.7,9.3,56.7,14c-1-3.8-1.8-7-2.7-10.5c10.5,0.9,19.5,9,30.3,6.8
		c0.2-0.6,0.3-1.2,0.5-1.8c-19.5-8.9-38.9-17.8-59.3-27.2c4.5-2.8,8.3-5.3,12.9-8.1c-21-12.2-41.5-24.2-62.7-36.5
		c3.3-2.4,6-4.7,9-6.5c3.2-1.9,3.7-3,0.7-5.9c-13-12.7-25.8-25.6-38.6-38.5c-1.3-1.3-2.5-2.6-4.3-4.5c4.2-0.7,7.7,1.3,12,0.1
		c-4.4-5.4-8.7-10.7-13-16c-8.3-10-16.6-19.9-25-29.8c-1.9-2.2-1.5-3.3,1.1-4.3c2.3-0.9,4.4-2.1,7-3.4
		c-12.5-15.2-24.6-30.1-36.8-44.9c0.3-0.3,0.5-0.7,0.8-1c2.3,1.4,4.7,2.6,7,4.1c12,7.7,23.9,15.5,35.9,23.3c5.3,3.4,5.5,3.5,7.3-2.4
		c1.3-4.3,2.6-5.3,6.9-2.4c14.7,10,29.6,19.5,44.5,29.2c0.8,0.5,1.6,1,3,1.8c0.7-4.3-1.2-7.9-0.9-12.2c9.3,7.3,18.4,14.4,27.5,21.5
		c7.2,5.6,14.5,11.1,21.5,16.9c2,1.6,2.7,1,3.6-0.8c1.8-3.6,3.6-7.1,5.8-11.5c14.3,19.3,28.2,38.2,42.6,57.8c2.1-4.8,4-9,6.2-14
		c7.6,12.2,14.7,23.7,21.9,35.2c3.9,6.2,7.8,12.4,11.7,18.5c0.6,0.9,0.6,3,2.7,1.9c1.7-1,0.7-2.3,0.2-3.4c-4.7-11-9.4-22-14.4-32.9
		c-1.5-3.3-1.7-4.5,2.6-4.4c8.8,0.1,8.8,0,6.2-8.7c-7.4-24.1-14.7-48.2-22-72.4c-0.1-0.4-0.1-0.9-0.2-1.8c5,1.9,9.8,3.6,14.5,5.4
		c2.8,1.1,4.5,2,3.5-2.8c-6-28.7-11.7-57.5-17.6-86.2c-0.8-3.7-0.3-4.1,3.1-2.9c4,1.5,8.2,2.5,12.3,3.9c2.6,0.9,4.1,1.1,4.2-2.6
		c0.5-12.8,1.5-25.6,2.3-38.4c0.8-14.3,1.6-28.5,2.5-44.1c3.7,4.6,6.6,8.3,10.2,12.8c1-6.2,1.8-11.7,2.6-17.1
		c3.1-20.9,6.3-41.7,9.1-62.6c0.5-3.4,1.6-2.9,3.7-1.9c2.4,1.1,4.9,2,7.3,3.2c2.8,1.4,3.8,1.2,4.4-2.4c3.8-24.2,7.9-48.4,11.9-72.5
		C343.2,54,343.8,54,344.5,54z"/>
	<path class="st2" d="M346.4,616.1c-1.5-2.4-0.5-5.1-0.8-7.6c-0.1-0.7,0.3-1.4,1.1-1c0.4,0.2,0.6,1,0.9,1.5
		C345.5,611.1,347.3,613.8,346.4,616.1z"/>
	<path class="st3" d="M338.7,609.2c0.2-0.4,0.3-1,0.6-1.3c0.7-0.7,1.3-0.3,1.2,0.5c-0.2,2.6,0.7,5.3-0.8,7.8
		C338.8,613.9,340.4,611.3,338.7,609.2z"/>
	<path class="st4" d="M300.2,607.9c-1.2,1.5-2.9,1.9-4.7,2.1C296.7,608.5,298.3,608,300.2,607.9z"/>
</g>
</svg>
