<?xml version="1.0" encoding="utf-8"?>
<!-- Generator: Adobe Illustrator 21.0.0, SVG Export Plug-In . SVG Version: 6.00 Build 0)  -->
<svg version="1.1" id="Calque_1" xmlns="http://www.w3.org/2000/svg" xmlns:xlink="http://www.w3.org/1999/xlink" x="0px" y="0px"
	 viewBox="0 0 692 940" style="enable-background:new 0 0 692 940;" xml:space="preserve">
<style type="text/css">
	.st0{fill:#FFFFFF;stroke:#000000;stroke-width:6;stroke-miterlimit:10;}
	.st1{fill:#ECEE12;}
	.st2{fill:#EAEC14;}
	.st3{fill:#A4A4A4;}
	.st4{fill:#E9EA4B;}
	.st5{fill:#D7D85D;}
	.st6{fill:#E1E254;}
	.st7{fill:#DEDF55;}
	.st8{fill:#ACACAC;}
	.st9{fill:#C6C79D;}
	.st10{fill:#898989;}
	.st11{fill:#C2C2BC;}
	.st12{fill:#E9EB43;}
	.st13{fill:#A5A5A5;}
	.st14{fill:#ADADAA;}
	.st15{fill:#DDDE51;}
	.st16{fill:#EBEC43;}
	.st17{fill:#9D9D9D;}
	.st18{fill:#A2A29E;}
	.st19{fill:#9B9B9B;}
	.st20{fill:#EDEF2D;}
	.st21{fill:#EDEF2B;}
	.st22{fill:#E8E84C;}
	.st23{fill:#010101;}
	.st24{fill:#B3B3B3;}
	.st25{fill:#A3A3A3;}
	.st26{fill:#BEBEBE;}
	.st27{fill:#C2C2B3;}
	.st28{fill:#979797;}
	.st29{fill:#B4B4B4;}
	.st30{fill:#AFAFAF;}
	.st31{fill:#C3C3C3;}
	.st32{fill:#D0D0BE;}
	.st33{fill:#010100;}
	.st34{fill:#E3E44C;}
	.st35{fill:#DADB57;}
	.st36{fill:#E1E257;}
	.st37{fill:#DDDE55;}
	.st38{fill:#DFE058;}
	.st39{fill:#E4E552;}
	.st40{fill:#EDEF2E;}
	.st41{fill:#E2E349;}
	.st42{fill:#EDEF31;}
	.st43{fill:#ECEE13;}
	.st44{fill:#EBED13;}
	.st45{fill:#EBED14;}
	.st46{fill:#E8E8E8;}
	.st47{fill:#F3F3F3;}
	.st48{fill:#EDEDED;}
</style>
<path class="st0" d="M524,758h52c56.7,0,103-46.3,103-103V125c0-56.7-46.3-103-103-103H112C55.3,22,9,68.3,9,125v530
	c0,56.7,46.3,103,103,103h238l162,160l-8-160H524z"/>
<g>
	<path d="M643.9,339.4c0,24.4-0.1,48.8,0.1,73.2c0,4.5-1.5,7.2-5.5,9.5c-122.8,70.7-245.4,141.6-368.1,212.5c-3.9,2.2-7,2.4-11,0.1
		c-70-40.6-140.1-81-210.1-121.4c-7.8-4.5-9.4-10.1-4.8-18c2.8-4.8,5.2-9.8,6-15.4c0.5-3.8,0.1-7.3-3.8-9.4
		c-3.3-1.8-3.9-4.7-4.4-8.3c-1.9-12.6,3.4-20.5,13.2-28.4c37.9-30.4,75.1-61.7,112.4-92.8c4.4-3.7,9.8-3.3,14.6-4.9
		c1.8-0.6,3.7-0.8,5.6-1.1c8.7-1.6,15.7-5.8,20-13.8c1-1.8,2.5-3.4,3.2-5.3c6.3-16,18.7-26.5,31.6-37.1
		c57.5-47.2,114.7-94.8,172-142.3c6.3-5.2,6.2-5.2,13.1-1.2C498.3,175.8,568.6,216.5,639,257c3.8,2.2,5,4.7,5,8.7
		C643.9,290.3,643.9,314.8,643.9,339.4z"/>
	<path class="st1" d="M528.5,211.3c-15.3,1.7-29.2,6.4-39.2,19c-8.3,10.5-9.7,24.3,0.6,34.8c6.6,6.7,14.5,9.7,23.5,10.6
		c2.4,1,5.1-0.2,7.6,0.8c9.2-1.1,18.4-2.2,26.7-6.7c10.9-5.9,19.7-13.7,22.2-26.7c0.5-2.6,0.5-5.1,0-7.6c-0.9-2.7-1.9-5.5-3.2-9.2
		c5.8,3.2,11,6,16,8.9c11.2,6.5,22.3,13.1,33.5,19.6c3.8,2.2,7.5,4.5,11.4,6.5c2.7,1.4,2.7,2.8,0.5,4.7
		c-6.1,5.1-12.2,10.2-18.3,15.2c-6.7,5.5-13.5,10.9-20.1,16.4c-8.6,7.2-17.1,14.4-25.9,21.3c-8.3,6.5-16,13.8-24.3,20.3
		c-12.7,10-24.5,21-37.4,30.7c-2.7,2-5.2,4.4-7.9,6.5c-2.5,0.8-5.3-0.3-7.8,0.7c-7.1,1.2-14.5,1.1-20.6,6c-4.1,3.3-6.6,7.2-7.2,12.4
		c-0.7,2.2-0.6,4.4-0.1,6.6c0.8,2.7-0.2,4.7-2.4,6.3c-8.9,6.5-17,14.1-25.7,20.8c-8.1,6.3-15.8,13.1-23.5,19.8
		c-3.7,3.3-8,3.5-12.1,4.7c-5.2,1.5-10.4,3.1-15.1,5.9c-6.1,3.5-8.5,9.5-9.8,15.8c-0.8,3.9-2.6,6.7-5.4,9c-11,9.2-21.9,18.3-33,27.3
		c-12.1,9.9-24.4,19.7-36.5,29.6c-9.8,8.1-19.4,16.4-29.1,24.7c-0.9,0.8-1.7,1.4-2.9,0.7c-11.4-6.7-22.9-13.3-34.7-20.2
		c4.5-3.4,8.6-6.4,10.6-11.3c3.9-9.3-1-19.3-10.7-22.1c-14.3-4.2-26.6-1.3-36.2,10.1c-2.3,2.7-3.3,0.5-4.5-0.2
		c-15.2-8.7-30.4-17.5-45.6-26.3c-27.6-16-55.3-31.9-83-47.8c-3-1.7-4.6-2.5-0.7-5.6c23.3-18.9,46.3-38.2,69.4-57.3
		c14.9-12.4,29.8-24.8,44.8-37.1c3.9-3.2,9.1-3.3,13.8-4.4c8.6-2,17-4.5,24.7-8.8c10.1-5.7,15.1-15.2,16.8-26.2
		c0.9-6.2,3.9-9.8,8.6-13.5c15.7-12.6,31.1-25.7,46.6-38.5c19.4-16.1,38.9-32.2,58.3-48.3c18.1-15,36.2-30,54.2-45.1
		c7.7-6.4,15.4-12.8,23.1-19.2c2.1-1.8,4-1.9,6.5-0.4c12.8,7.7,25.8,15.2,38.7,22.7c11.6,6.7,23.3,13.3,35,19.9
		c13.7,7.9,27.4,15.8,41.3,23.8c-1.5,1.1-2.8,0.5-4,0.5C533.6,210.7,531.1,210.8,528.5,211.3z"/>
	<path class="st1" d="M627.2,311c-3.5-11.6-8.9-15.6-21.6-14.9c10-8.4,19.2-16.1,28.3-23.7c1.8,0.9,1.1,2.4,1.1,3.5
		c0,44.6,0,89.2,0.1,133.8c0,2.8-0.7,4.8-3.2,6.3c-17.1,9.7-34,19.7-51.2,29.2c-4.3,2.4-8.2,6-14.1,6.8c9.2-12,14.9-24.9,16.7-39.4
		c0.5-3.2,0.6-6.4-0.1-9.6c-0.6-2.1-1.1-4.3-1.9-6.3c-4.6-12.9-16.9-17.9-30.7-12.3c-9.6,3.9-16.6,11.1-22.8,19.1
		c-8.2,10.6-13.6,22.6-15,36.1c-1.2,11.3,0.3,21.9,10.8,29.2c3,2.1,6.4,1.7,11,3c-56.7,32.7-112.3,64.8-168,97
		c-0.3-0.3-0.6-0.6-0.9-0.9c11.6-12.2,18.2-26.5,19.3-43.2c-1-1.8,0.2-4-0.8-5.8c-1.6-4-2.8-8.1-6.1-11.1c-4.7-4.3-10-6-16.2-4.7
		c-1.7,0.3-3.4,0.4-5.5-0.3c6.2-5.1,12.3-10.2,18.6-15.2c0.5-0.4,1.5-0.3,2.3-0.3c10.7-0.3,19.5-5,24-14.5
		c5.4-11.1,13.6-19.1,23-26.5c10.5-8.2,20.6-16.9,31.5-26c0.3,11.8,2.3,22,15.4,25c1.6,0.6,3.2,0.6,4.8,0c19.8-5.9,29-21,34.3-39.5
		c0.5-1.8,0.8-3.7,1.2-5.6c0.8-1.6,0.6-3.2,0.1-4.8c-1.2-4.9-1.9-10-5.7-13.8c-2-2.1,0.2-2.7,1.2-3.6c10.4-8.7,20.7-17.4,31.1-26
		c12.6-10.5,25.2-21,37.9-31.4c1.4-1.1,2.5-2.9,5.2-2.4c-2.6,6.2-5.1,12.1-6.1,18.7c-1.1,6.8-0.1,13.1,3.4,19
		c2.1,3.6,5.5,5.2,9.4,6.2c2.3,0.7,4.5,0.7,6.8,0c19.6-6.8,28.4-22.2,32.6-41.2C627.8,317.3,627.9,314.2,627.2,311z"/>
	<path class="st1" d="M259.6,623.8c-2.1,0.2-3.5-1.4-5.1-2.2c-3-1.6-7.2-2.8-0.9-6.2c2.7-1.5,3.6-5.2,3.9-8.4
		c1.1-9.3-8-22.3-17-25.2c-7.7-2.5-12.6,2.9-13.3,8.9c-0.5,4.3,0,8.6,2,12.5c0.5,1,1,2,0.2,3.9c-19.7-11.3-39.2-22.5-59.5-34.2
		c11.9-2.5,16.4-9.4,14.2-20.7c-2.3-11.6-8.1-21-18.5-26.9c-7.1-4.1-13.2-2.5-18.5,3.6c-1.8,2.1-1.2,4.8-2.4,6.9
		c-0.6,1.9-0.6,3.9,0,5.8c1.9,6.1,2.8,12.6,7.2,17.6c0.5,0.6,0.9,1.6,0.2,2.1c-1,0.8-2,0.2-3-0.4c-6-3.5-12.1-7-18.1-10.5
		c-22.5-13-44.9-26-67.3-39.1c-1.5-0.9-3.6-1.2-4.1-3.3c0.7-1.1,1.5-0.8,2.3-0.8c7.8-0.7,12.1-5.6,11.3-13.4
		c-1.1-9.7-6.8-16.9-13.3-23.6c-1.4-1.5-2.8-3.2-4.6-4.2c-4.6-2.6-4.9-6.5-3.8-11.3c3.8,0.8,6.5,3.5,9.7,5.3
		c14.2,7.9,28.2,16.3,42.4,24.3c15.5,8.7,30.7,18.2,46.1,27.2c11.6,6.7,23.4,13.1,35.1,19.7c3.4,2,6.4,4.4,8,8.3
		c1.8,4.3,4.1,8.5,7.7,11.7c4.8,4.3,9.8,5,15.1,1.2c2.1-1.5,4-1.2,5.6-0.3c9.7,5.4,19.2,11.1,28.8,16.7c3.3,1.9,6.5,3.8,9.8,5.7
		c1,4.2,0.4,8.5,0.4,12.8c0.1,10.5,0.1,21,0,31.6C260.1,620.7,260.5,622.4,259.6,623.8z"/>
	<path class="st1" d="M270,574.6c21.1-17.6,42.1-35.1,63.2-52.7c0.3,0.3,0.6,0.6,1,0.9c-7.5,10.9-12.3,22.7-11.3,36.1
		c0.6,7.7,2.6,14.7,10.2,19.1c3.7,2.1,7.5,1.4,12.4,2.2c-25.2,14.6-49.6,28.7-74.1,42.9c-1.4,0.3-1.7-0.6-1.6-1.6
		C269.9,605.9,269.2,590.2,270,574.6z"/>
	<path class="st1" d="M537.7,221c8.5-0.1,15.3,3.8,20.9,9.8c3.3,3.6,3.5,8.5,2.2,12.7c-2.7,8.6-9.3,14.1-17,18.2
		c-0.6,0.3-1.8-0.3-2.7-0.5c-1.6-0.7-3.2-0.7-4.8,0c-5.9,1.3-11.6,3.3-17.4,5.1c-6.9,2.2-14.3-1.1-20.4-5.7
		c-9.9-7.5-8.1-19.4,0-27.3c7.8-7.5,17.1-11.9,28-12.4C530.2,220.3,533.9,220.4,537.7,221z"/>
	<path class="st1" d="M573.8,404.4c1.7,16.2-4.8,29.6-14.3,41.6c-5.6,7-12.5,12.5-21.5,15.5c-6.8,2.2-14.6-1.3-16.1-10.9
		c-0.2-1.6-0.1-3.2-0.5-4.7c-0.5-2.3,0.7-3,2.6-3.7c15.1-5.4,22-17.4,25.6-32.1c1.1-4.4,1.6-8.7-0.5-12.9c-0.4-0.8-0.5-1.3,0.2-2
		c2.7-2.8,12.5-4.5,16.3-3C571.4,394.5,573.2,399,573.8,404.4z"/>
	<path class="st1" d="M332.2,556.8c-0.2-3.3,0.2-5.9,4.1-8.4c9.7-6.2,14.8-15.7,15.2-27.4c0-1-0.2-2,0.1-2.8
		c1-2.8,10.6-7.2,14.6-6.5c4.5,0.8,7.5,3.4,8.4,8.2c2.6,13.4-2.8,24.5-10.1,35.1c-4.4,6.5-10,11.3-17.3,14.2
		c-8.5,3.4-14.6-0.4-15-9.6C332.2,558.7,332.2,558,332.2,556.8z"/>
	<path class="st1" d="M478,390.4c0-1.1-1.2-2.5,1.1-2.8c2.4-0.3,4.9-0.7,7.3-1.1c1.6-0.8,3.5,0.2,5-0.7c6.8-2,11.4,5.2,10.9,11.4
		c-1,11.2-5,21.3-13,29.5c-4,4-8.1,7.8-13.9,9c-4.8,1-9.3-1.7-9.8-6.6c-0.4-3.9-0.3-8,0.1-11.9c0.2-1.6,0.8-3.4,2.6-4.7
		c5.5-3.9,8.5-9.6,9.8-16.2C478.6,394.3,478.5,392.4,478,390.4z"/>
	<path class="st1" d="M588.9,352.3c-3.2-1.1-4.7-3.5-4.9-6.8c-0.5-7.2-0.5-14.2,5.4-19.8c1.7-1.7,2.7-4.1,3.5-6.6
		c2.5-7.7,8.7-11.6,16-13.8c3.7-1.1,8,2,8.7,5.9c1.1,5.9,0.5,11.8-1.8,17.3c-4.4,10.6-10.3,20-22.2,23.8
		C592,352.8,590.4,352.8,588.9,352.3z"/>
	<path class="st1" d="M218.3,520.4c3.8,0.7,8.3,1,11.4,4.9c2.2,2.8,1.7,5.3-0.1,7.8c-1.2,1.6-2.9,2.8-4.6,4
		c-4.3,3.2-10.5,2.8-13.9,7.8c-1.1,1.6-3.7,1.1-5.4-0.8c-3-3.5-4.8-7.8-6.9-11.8c-0.9-1.7,0.3-2.4,0.9-3.3
		C204.1,522.7,210.6,520.8,218.3,520.4z"/>
	<path class="st1" d="M153.4,540.9c-0.1-9,3.4-11.3,9.6-7.3c8.5,5.5,12.6,13.9,13.1,23.8c0.3,5.3-3.9,7.6-8.6,4.9
		C158.5,557.3,154.7,548.9,153.4,540.9z"/>
	<path class="st1" d="M236.7,590.6c6.2,1.5,12.2,9.7,11.7,15.8c-0.3,3.5-2.3,2.9-4.2,1.6c-3.9-2.8-7-6.3-7.7-11.4
		C236.1,594.6,235.8,592.6,236.7,590.6z"/>
	<path class="st2" d="M395.7,464.8c-0.9,4.3-10.3,12.4-14.4,12.8c-2.3,0.2-2.3-1-1.9-2.5c1.4-5.5,8.9-11.1,14.8-11.5
		C396,463.5,395.7,464.1,395.7,464.8z"/>
	<path class="st2" d="M58.5,498.6c-4.7,0-5.2-0.8-3.2-5c0.8-1.7,1.6-3.4,2.1-5.1c0.4-1.3,0.3-3.1,2.1-3.1c1.5,0,1.9,1.9,2.7,2.9
		c0.7,0.9,1,2.2,1.4,3.4C65.3,496.5,63.8,498.6,58.5,498.6z"/>
	<path class="st3" d="M270,574.6c0,14.6,0,29.2,0.2,43.9c0,1.6-0.9,3.6,1.2,4.7c-1,1-2.1,1.4-2.1-0.5c0.2-15.9-0.7-31.8,0.4-47.7
		C269.7,574.8,269.9,574.7,270,574.6z"/>
	<path class="st4" d="M259.6,623.8c0-16.3,0-32.7,0.1-49c1.1,0.5,1,1.5,1,2.5c0,14.9,0,29.9,0,44.8
		C260.6,622.9,260.7,623.7,259.6,623.8z"/>
	<path class="st5" d="M537.7,221c-3.7,0-7.4,0-11.1,0C530.2,219.9,533.9,219.5,537.7,221z"/>
	<path class="st6" d="M627.2,311c1.4,3.2,1.3,6.4,0.1,9.6C627.3,317.4,627.2,314.2,627.2,311z"/>
	<path class="st7" d="M583.2,402.9c1.4,3.2,1.4,6.4,0.1,9.6C583.2,409.3,583.2,406.1,583.2,402.9z"/>
	<path class="st8" d="M569.9,235.4c1.2,2.5,1.2,5.1,0,7.6C569.9,240.5,569.9,237.9,569.9,235.4z"/>
	<path class="st9" d="M521,276.5c-2.5-0.3-5.2,1.1-7.6-0.8C516,275.8,518.6,275.5,521,276.5z"/>
	<path class="st10" d="M486.4,376.9c2.5-1.6,5.2-0.6,7.8-0.7C491.7,377.6,489,376.9,486.4,376.9z"/>
	<path class="st11" d="M528.5,211.3c2.6-1.3,5.1-1.3,7.7,0C533.6,211.4,531.1,211.3,528.5,211.3z"/>
	<path class="st12" d="M594.6,361.8c-2.3,1.5-4.5,1.4-6.8,0C590.1,361.8,592.4,361.8,594.6,361.8z"/>
	<path class="st13" d="M458.5,401.9c-1.3-2.2-1.3-4.4,0.1-6.6C458.6,397.5,458.6,399.7,458.5,401.9z"/>
	<path class="st14" d="M236.7,590.6c-0.1,2-0.1,4-0.2,6C235.4,594.5,234.9,592.5,236.7,590.6z"/>
	<path class="st15" d="M384.1,518.7c1.6,1.8,0.7,3.9,0.8,5.8C383.9,522.7,384,520.7,384.1,518.7z"/>
	<path class="st16" d="M144.7,541.7c-1.3-1.9-1.3-3.9,0-5.8C144.7,537.8,144.7,539.7,144.7,541.7z"/>
	<path class="st17" d="M478,390.4c1.2,1.9,1.3,3.9-0.1,5.8C478,394.3,478,392.4,478,390.4z"/>
	<path class="st18" d="M491.4,385.7c-1.5,1.5-3.3,0.8-5,0.7C487.9,385.4,489.7,385.5,491.4,385.7z"/>
	<path class="st19" d="M588.9,352.3c1.6,0,3.2,0,4.8,0C592,353.5,590.4,353.7,588.9,352.3z"/>
	<path class="st20" d="M511.4,395.2c1.3,1.6,1.3,3.2-0.1,4.8C511.4,398.4,511.4,396.8,511.4,395.2z"/>
	<path class="st21" d="M536.2,261.2c1.6-1.4,3.2-1.4,4.8,0C539.4,261.2,537.8,261.2,536.2,261.2z"/>
	<path class="st22" d="M475.9,445.1c-1.6,1.2-3.2,1.3-4.8,0C472.7,445.1,474.3,445.1,475.9,445.1z"/>
	<path d="M291,343.6c2.7-13.1,11.7-21,23-26.6c6.5-3.2,13.8-4.4,21.1-5.2c1.6-0.5,3.2-0.5,4.8,0c10,0.7,19.7,2.6,27.3,9.8
		c9.8,9.2,10.8,22.5,2.8,33.3c-7.3,9.8-17.5,15.2-29,18.3c-5.7,1.5-11.4,2.1-17.2,1.8c-1.5-0.8-3.4,0.2-4.9-0.8
		c-12.2-1.8-22-6.9-27.2-18.9c-0.7-1.7-0.2-3.4-0.8-5C290.6,348,290.5,345.8,291,343.6z"/>
	<path d="M385.1,246.7c-4.1,17.1-17,24.1-32.5,27.7c-10.3,2.4-20.5,1.8-29.8-3.6c-11.2-6.5-16.5-18.4-8.9-31.5
		c7.3-12.6,19.3-17.2,32.9-19.3c1.5-0.8,3.2,0.2,4.6-0.7c1.2,0,2.5,0,3.7,0c1.6,0.7,3.5-0.1,5.1,0.7c8.7,2,16.7,4.9,21.9,13
		c1.7,2.6,2,5.5,3.1,8.2C385.6,243,385.7,244.8,385.1,246.7z"/>
	<path d="M268.2,457.6c-9.3-0.8-16.7-4.9-21.6-13.1c-5.4-9.1-1.6-19,3.4-24.4c12.8-13.9,28.8-17.1,46.6-12.3
		c9.4,2.6,16.1,8.7,17.2,18.7c1,9-3.5,16.2-10.5,21.7c-7.2,5.7-15.5,8.9-24.7,9.6C275.2,457.9,271.7,458.2,268.2,457.6z"/>
	<path d="M412.7,209.5c-6.3-0.4-13.9-2.6-18.9-10.3c-3.5-5.4-3.1-11-0.5-16.3c4.9-10.1,21.8-17.7,33-15.3c5.4,1.2,10.8,2.4,15,6.3
		c8,7.6,6.4,20.5-3.5,27.9C431,207,423.3,209.4,412.7,209.5z"/>
	<path d="M179.3,420c0.1,5.4-2.6,9.5-6.6,12.7c-8,6.5-17.3,7.7-26.8,5c-6.3-1.8-10-6.9-10.2-13.8c-0.1-5.9,2.7-10.2,7.6-13.4
		c8.8-5.8,18-7.1,27.6-2.7C176,410.1,179.2,414.1,179.3,420z"/>
	<path class="st23" d="M407.8,378c3.4-13.5,22.7-15.4,30.9-8.8c4.2,3.4,5.5,9.2,3.2,14c-4.6,9.7-23.3,14.9-31.7,5
		c-1.4-1.7-2.2-3.4-2.5-5.5C407.4,381.2,407.3,379.6,407.8,378z"/>
	<path class="st23" d="M504.6,294.5c3.4,0.8,6.7,1.6,9.2,4.3c4,4.3,3.8,11.9-0.8,16.5c-5.1,4.9-15.6,8.4-23.8,4.3
		c-7-3.5-8.6-12.4-3.6-18.5c3.1-3.7,7.1-5.3,11.4-6.5C499.5,294,502,294.2,504.6,294.5z"/>
	<path class="st24" d="M268.2,457.6c3.5,0.1,7,0.1,10.4,0.2C275.2,458.7,271.7,458.9,268.2,457.6z"/>
	<path class="st25" d="M504.6,294.5c-2.5,0-5.1,0.1-7.6,0.1C499.5,293.3,502,293.4,504.6,294.5z"/>
	<path class="st26" d="M291,343.6c0,2.2,0,4.5,0,6.7C290,348,289.8,345.8,291,343.6z"/>
	<path class="st27" d="M385.1,246.7c0-1.9,0-3.7,0.1-5.6C386.4,243,386.5,244.8,385.1,246.7z"/>
	<path class="st28" d="M319,374.2c1.7-0.2,3.4-0.3,4.9,0.8C322.2,375.1,320.5,375.7,319,374.2z"/>
	<path class="st29" d="M351.3,219.3c-1.4,0.9-3,0.8-4.6,0.7C348.1,218.5,349.8,219.4,351.3,219.3z"/>
	<path class="st30" d="M407.8,378c0,1.6,0,3.2-0.1,4.7C406.7,381.2,406.6,379.6,407.8,378z"/>
	<path class="st31" d="M360.1,220c-1.7,0.1-3.5,0.2-5.1-0.7C356.7,219.6,358.6,218.4,360.1,220z"/>
	<path class="st32" d="M340,311.8c-1.6,0-3.2,0-4.8,0C336.8,310.6,338.4,310.6,340,311.8z"/>
	<path class="st33" d="M441.5,475.6c3.9,1.7,6.1,4.9,7.7,8.6c0.7,2.2,0.5,4.5,0.1,6.7c-2.5,10.8-7.5,19.6-18.3,23.9
		c-2.3,0.6-4.6,0.8-6.8-0.1c-5.4-2.3-8.6-8.4-7.3-15.1c2.1-11.3,7.6-20.1,18.9-24.2C437.7,475,439.6,474.9,441.5,475.6z"/>
	<path class="st23" d="M609.3,394.1c5.7,0.1,9.6,4.3,9,9.9c-0.7,6.8-3.9,12.1-9.7,16.1c-4,2.8-7.9,2-10.9-0.5
		c-2.6-2.2-3.5-5.9-2.7-9.5c1.6-6.8,4.5-12.7,11.6-15.4C607.6,394.3,608.8,394.2,609.3,394.1z"/>
	<path class="st34" d="M424.1,514.8c2.3,0,4.6,0,6.8,0.1C428.7,516.4,426.4,516.4,424.1,514.8z"/>
	<path class="st35" d="M449.3,490.9c0-2.2-0.1-4.5-0.1-6.7C450.6,486.5,450.6,488.7,449.3,490.9z"/>
	<path class="st36" d="M441.5,475.6c-1.9,0-3.8-0.1-5.8-0.1C437.7,474.2,439.6,474.1,441.5,475.6z"/>
	<path class="st23" d="M115.1,511.1c-1.5,2.9-3.1,5.8-6.6,6.7c-1.7,0.5-3.3,0.7-4.9-0.1c-7.2-3.1-13.2-12.3-12.7-19.9
		c0.3-4.1,1.5-7.7,6-8.9c2-0.5,3.9-0.7,5.9,0.1c6.7,3,10.2,8.6,12.4,15.3C115.8,506.6,115.8,508.8,115.1,511.1z"/>
	<path class="st37" d="M115.1,511.1c0-2.3,0-4.5,0-6.8C116.6,506.6,116.6,508.8,115.1,511.1z"/>
	<path class="st38" d="M102.8,489c-2,0-3.9-0.1-5.9-0.1C98.9,487.6,100.8,487.5,102.8,489z"/>
	<path class="st39" d="M103.6,517.7c1.6,0,3.3,0.1,4.9,0.1C106.8,519.1,105.2,519.2,103.6,517.7z"/>
	<path class="st23" d="M276,583.5c0.1-8.3,6.2-17.3,13.1-19.1c6.4-1.6,11.5,2.1,11.6,8.6c0.1,8.6-3.7,15.2-11.2,19.4
		C283.1,596.2,275.9,591.4,276,583.5z"/>
	<path class="st1" d="M300.7,343.1c1.4-6.5,5.8-10.8,11.1-14.2c12.2-7.9,25.4-10.4,39.4-6.4c5,1.4,9.8,4.1,12.8,8.6
		c4,5.9,3.3,12.3-1.7,19c-4.6-5.4-11-7.2-17.5-8.6c-2.6-0.6-5.1-0.7-7.7,0.1c-6.5,1.7-13,3.1-18.7,7.2c-3.9,2.7-6.8,6.1-8.6,10.2
		c-1.2,2.6-1.8,1.7-3.2,0.8c-3-1.9-5.4-4.4-5.9-8.1C300.1,348.8,300.1,346,300.7,343.1z"/>
	<path class="st40" d="M337.1,341.6c2.6-1.4,5.1-1.4,7.7-0.1C342.2,341.6,339.7,341.6,337.1,341.6z"/>
	<path class="st41" d="M300.7,343.1c0,2.8,0,5.7,0,8.5C299.3,348.8,299.4,346,300.7,343.1z"/>
	<path class="st1" d="M352.5,228.8c7.1-1.3,13,2,18.7,5.1c5.1,2.8,6.5,11.9,3.2,16.9c-6.2,9.4-15.5,13.7-26.2,15.1
		c-4.8,0.6-9.8,0.5-14.7-0.7c-6.6-1.6-11.8-4.8-13.6-11.7c-1.8-7.1,2.2-12.2,7.3-16.4c5.1-4.1,10.8-7.1,17.5-7.6
		C347.2,228.5,350,230,352.5,228.8z"/>
	<path class="st42" d="M352.5,228.8c-2.4,1.8-5.2,0.6-7.8,0.9C347.1,228,349.9,228.9,352.5,228.8z"/>
	<path class="st1" d="M275.6,448.8c-7.5,0.1-13.6-0.9-18.6-5.6c-4.4-4.2-4.9-9.6-1.8-15c6.9-12,30.4-17.7,41.7-10.4
		c9.8,6.3,10.9,15.9,1.5,22.8C291.5,445.7,283.8,449.6,275.6,448.8z"/>
	<path class="st1" d="M412.5,200.4c-1.5-0.4-3.1-0.6-4.5-1.1c-8.2-2.6-9.9-10.3-3.6-16.1c5.5-5.1,18.3-9.4,27.2-4.4
		c8.4,4.6,7.2,9.6,1.6,15.3c-2.2,2.2-5.2,3.8-8.9,3.3c-2.6-0.3-5.3,0.4-7.6,2C415.4,200.2,414,200.3,412.5,200.4z"/>
	<path class="st43" d="M155.4,429.9c-4.9,0-8.9-0.6-10.5-5.1c-1.1-3.1,2.1-7.1,7.1-8.8c4.5-1.5,9.2-3.2,14-0.5
		c5.4,3,5.8,7.1,0.7,10.6C163.2,428.6,159.2,430.1,155.4,429.9z"/>
	<path class="st44" d="M423.4,384.3c-1.2-0.2-2.1-0.4-3-0.4c-1.7,0-2.7-1-3.4-2.2c-1-1.7,0.8-2.6,1.6-3.5c2.5-2.7,6-3.3,9.5-3.3
		c1.8,0,4.4-0.2,4.9,2.7c0.4,2.6-1.7,4.1-3.4,5.1C427.6,383.6,425.3,383.8,423.4,384.3z"/>
	<path class="st45" d="M497.9,312c-2.5,0-4.9-0.4-5.6-2.8c-0.8-2.6,2-3.2,3.6-4.3c3-2.2,6.2-1.1,9.3-0.3c0.9,0.2,2,1.4,2.1,2.3
		c0.1,0.9-0.6,1.9-1.9,2.4C502.8,310.2,500.7,312.3,497.9,312z"/>
	<path class="st1" d="M439.7,490.2c-0.8,6.8-4.2,11.7-10.2,15.2c-2.2,1.3-2.8,0.5-3.3-1.3c-1.8-5.6,3.8-16.5,9.3-18.6
		C438.5,484.4,440,486.1,439.7,490.2z"/>
	<path class="st46" d="M604.4,412.1c0.5-5,0.5-5,4.4-8.3C609.2,407.4,607.6,409.7,604.4,412.1z"/>
	<path class="st47" d="M100,497.9c4.8,3.8,5.5,5,6.2,10.3C101.7,506.2,100.1,503.5,100,497.9z"/>
	<path class="st48" d="M291.6,573.1c0,5.2-2.2,8.3-5.9,11.1C285.5,579.2,287.6,576.2,291.6,573.1z"/>
</g>
</svg>
